<svg width="1053" height="1248" viewBox="0 0 1053 1248" fill="none" xmlns="http://www.w3.org/2000/svg">
<path d="M495.646 864.42C498.099 861.969 498.182 858.021 495.812 855.487L339.478 685.744C333.948 679.719 324.718 679.137 318.481 684.373C306.133 694.802 285.967 711.797 268.629 726.424C262.226 731.826 252.705 731.078 247.3 724.72C223.974 697.42 177.74 643.402 149.633 610.492C136.951 595.658 114.333 594.827 100.529 608.622L91.8392 617.307C78.0352 631.102 78.9084 653.748 93.7518 666.422L236.697 788.504L245.429 795.983C251.873 801.468 261.519 800.72 266.966 794.279C280.188 778.656 302.64 752.062 319.355 732.241C325.009 725.551 334.822 724.928 341.266 730.829C377.647 764.278 486.706 864.628 486.706 864.628C489.243 866.955 493.193 866.872 495.646 864.462V864.42Z" fill="#FCC189"/>
<path d="M491.072 868.41C488.993 868.41 486.915 867.662 485.293 866.166L339.853 732.367C337.192 729.915 333.782 728.668 330.165 728.876C326.589 729.084 323.305 730.787 320.935 733.572L268.546 795.61C265.553 799.142 261.353 801.302 256.738 801.676C252.123 802.092 247.591 800.596 244.057 797.563L92.38 668.043C84.8544 661.644 80.3224 652.294 79.9482 642.405C79.574 632.515 83.3576 622.875 90.3427 615.894L99.0325 607.21C106.018 600.229 115.747 596.365 125.601 596.822C135.58 597.196 144.685 601.6 151.213 609.204L248.88 723.433C253.537 728.876 261.811 729.541 267.299 724.929L317.151 682.877C324.219 676.894 334.739 677.559 341.017 684.415L497.351 854.158C500.469 857.523 500.344 862.717 497.101 865.958C495.438 867.621 493.234 868.452 491.072 868.452V868.41ZM330.997 724.679C335.321 724.679 339.396 726.3 342.68 729.292L488.12 863.091C489.867 864.712 492.528 864.629 494.191 862.967C495.854 861.305 495.895 858.645 494.315 856.9L337.982 687.157C333.2 681.963 325.217 681.423 319.854 685.994L270.002 728.045C262.767 734.153 251.874 733.281 245.762 726.092L148.095 611.864C142.357 605.132 134.332 601.268 125.518 600.894C116.662 600.561 108.346 603.802 102.068 610.077L93.3779 618.761C87.0996 625.036 83.8565 633.346 84.1892 642.197C84.5218 651.048 88.4301 659.068 95.1658 664.843L246.843 794.363C249.545 796.649 252.955 797.77 256.489 797.48C259.981 797.189 263.183 795.568 265.428 792.867L317.816 730.829C320.935 727.172 325.217 724.97 329.957 724.679C330.331 724.679 330.664 724.679 331.038 724.679H330.997Z" fill="#231F20"/>
<path d="M828.104 995.101C826.357 1015.88 808.811 1031.63 788.272 1031.63C787.149 1031.63 786.027 1031.63 784.821 1031.46C762.826 1029.63 746.486 1010.27 748.315 988.286C754.718 913.45 744.407 836.993 718.545 767.018C713.514 753.43 707.901 740.05 701.665 726.961V797.019C701.665 812.767 695.76 827.186 686.156 838.031V1170.29C686.156 1191.15 670.897 1209.8 650.108 1211.8C626.242 1214.08 606.16 1195.38 606.16 1171.99V858.932H542.129V1170.25C542.129 1191.1 526.87 1209.76 506.081 1211.76C482.215 1214.04 462.133 1195.34 462.133 1171.95V845.054C448.121 833.71 439.182 816.341 439.182 796.936V732.903C436.064 740.84 433.195 748.818 430.451 756.962C406.834 827.643 399.018 904.516 407.791 979.02C410.452 1001 394.735 1020.82 372.823 1023.48C371.243 1023.65 369.622 1023.73 368.042 1023.73C348.043 1023.73 330.746 1008.77 328.376 988.452C318.231 902.23 327.254 813.474 354.529 731.698C374.071 672.984 402.552 618.384 439.182 568.728V560.667C439.182 526.428 466.956 498.629 501.258 498.629H639.588C673.932 498.629 701.665 526.469 701.665 560.667V576.416C740.79 625.614 771.682 680.131 793.594 739.219C823.53 820.081 835.421 908.505 828.062 995.018L828.104 995.101Z" fill="#FCC189"/>
<path d="M502.049 1214.13C491.571 1214.13 481.675 1210.31 473.817 1203.2C465.044 1195.22 460.013 1183.88 460.013 1172.08V846.179C445.419 833.963 437.062 816.095 437.062 797.064V744.334C435.482 748.655 433.944 753.101 432.405 757.714C408.872 828.145 401.097 904.644 409.87 978.857C412.656 1001.88 396.149 1022.86 373.073 1025.6C371.369 1025.77 369.705 1025.85 368.042 1025.85C346.754 1025.85 328.793 1009.9 326.298 988.747C316.111 902.275 325.175 813.145 352.534 731.078C371.951 672.78 400.39 617.93 437.062 568.067V560.67C437.062 525.309 465.834 496.555 501.217 496.555H639.547C674.93 496.555 703.702 525.309 703.702 560.67V575.713C742.827 625.036 773.72 679.802 795.507 738.516C825.526 819.627 837.501 908.425 830.1 995.229C828.27 1016.79 809.851 1033.66 788.189 1033.66C786.983 1033.66 785.777 1033.67 784.489 1033.5C761.496 1031.59 744.283 1011.18 746.195 988.082C752.557 913.661 742.287 837.453 716.55 767.728C712.6 757.049 708.276 746.536 703.702 736.397V797.022C703.702 812.397 698.214 827.19 688.194 838.824V1170.33C688.194 1192.73 671.521 1211.88 650.274 1213.92C638.217 1215.08 626.741 1211.26 617.844 1203.2C609.071 1195.22 604.04 1183.88 604.04 1172.08V861.097H544.209V1170.33C544.209 1192.73 527.536 1211.88 506.29 1213.92C504.876 1214.05 503.462 1214.13 502.09 1214.13H502.049ZM441.22 722.02V797.022C441.22 815.139 449.328 832.093 463.423 843.561L464.171 844.185V1172.08C464.171 1182.71 468.703 1192.98 476.603 1200.13C484.627 1207.4 494.98 1210.85 505.832 1209.77C525 1207.94 540.009 1190.61 540.009 1170.29V856.9H608.156V1172.04C608.156 1182.67 612.688 1192.94 620.588 1200.08C628.612 1207.36 638.965 1210.8 649.817 1209.77C668.985 1207.94 683.994 1190.61 683.994 1170.29V837.245L684.493 836.664C694.181 825.694 699.503 811.607 699.503 797.022V717.781L703.453 726.092C709.565 738.973 715.303 752.519 720.417 766.315C746.403 836.622 756.714 913.453 750.311 988.456C748.565 1009.27 764.074 1027.64 784.904 1029.39C786.11 1029.55 787.15 1029.55 788.189 1029.55C807.731 1029.55 824.32 1014.34 825.983 994.896C833.301 908.674 821.451 820.541 791.598 739.97C769.895 681.423 739.044 626.864 700.002 577.749L699.544 577.167V560.67C699.544 527.595 672.643 500.71 639.547 500.71H501.217C468.121 500.71 441.22 527.595 441.22 560.67V569.438L440.804 569.978C404.174 619.634 375.776 674.276 356.442 732.366C329.25 813.851 320.228 902.358 330.373 988.248C332.618 1007.32 348.792 1021.7 368.001 1021.7C369.539 1021.7 371.078 1021.61 372.616 1021.45C393.322 1018.96 408.207 1000.05 405.712 979.314C396.856 904.478 404.714 827.356 428.455 756.342C431.283 747.824 434.152 739.929 437.228 732.159L441.22 721.978V722.02Z" fill="#231F20"/>
<path d="M645.243 605.965H505.083C493.441 605.965 484.003 615.397 484.003 627.032V797.689C484.003 809.324 493.441 818.756 505.083 818.756H645.243C656.885 818.756 666.323 809.324 666.323 797.689V627.032C666.323 615.397 656.885 605.965 645.243 605.965Z" fill="#FED7B3"/>
<path d="M384.964 639.659H749.937C804.861 639.659 858.664 620.295 898.786 582.815C930.053 553.645 951.674 516.954 956.497 474.695L983.689 235.559C996.037 126.981 987.847 6.60324 886.479 47.5742L720.25 154.032C684.659 168.41 466.748 168.036 431.449 152.91L242.975 52.145C142.855 9.34572 148.052 125.776 157.407 234.229L177.822 470.498C181.273 510.388 199.692 545.667 227.3 574.463C268.171 617.137 325.84 639.617 384.964 639.617V639.659Z" fill="#FCC189"/>
<path d="M749.937 641.738H384.964C323.886 641.738 265.843 617.762 225.803 575.919C196.366 545.17 179.069 508.811 175.785 470.707L155.37 234.439C148.468 154.367 144.601 74.0868 179.277 49.0305C194.453 38.0606 216.199 38.4761 243.807 50.3186L432.446 151.125C466.499 165.669 683.952 166.5 719.502 152.123L885.398 45.8725C914.794 33.9468 938.244 34.6117 955.457 47.7008C994.832 77.6187 993.709 166.5 985.809 235.851L958.617 474.987C954.044 515.21 933.878 553.065 900.283 584.396C860.618 621.419 807.231 641.821 750.02 641.821L749.937 641.738ZM205.679 45.083C196.324 45.083 188.341 47.493 181.647 52.3547C148.759 76.1228 152.667 155.156 159.445 234.065L179.859 470.333C183.061 507.482 199.983 543.009 228.755 573.052C268.047 614.064 324.967 637.583 384.923 637.583H749.895C806.067 637.583 858.456 617.596 897.331 581.279C930.178 550.613 949.927 513.673 954.376 474.447L981.568 235.311C989.343 167.082 990.632 79.6964 952.838 50.9419C936.872 38.8085 914.794 38.3099 887.186 49.4876L721.289 155.738C683.62 171.029 466.499 170.157 430.534 154.782L241.936 53.9752C228.048 48.0332 215.991 45.083 205.638 45.083H205.679Z" fill="#231F20"/>
<mask id="mask0_35406_3843" style="mask-type:luminance" maskUnits="userSpaceOnUse" x="442" y="750" width="72" height="446">
<path d="M488.287 836.206C487.04 832.798 486.374 828.892 486.457 824.571C487.663 819.792 488.911 815.138 490.324 810.484C492.237 809.155 493.941 807.825 495.605 806.454C479.431 806.662 463.174 796.398 463.298 775.58C463.34 767.103 464.546 758.045 461.261 750.191C460.346 753.557 459.39 756.591 458.184 759.167C456.895 763.239 455.44 767.394 453.694 771.591C452.28 775.954 450.908 780.359 449.578 784.763C446.917 793.614 444.422 802.548 442.177 811.648C445.752 814.931 449.328 818.255 452.654 821.33C456.355 827.479 461.136 833.006 466.666 837.494V888.562C466.666 891.346 466.666 894.213 466.666 897.163C464.172 930.406 464.172 970.379 466.666 1000.46C466.666 1004.04 466.666 1007.57 466.666 1011.14V1164.39C466.666 1177.15 472.737 1188.53 482.092 1195.84C482.05 1195.1 481.884 1194.39 481.884 1193.6C482.133 1134.64 483.547 1074.55 487.829 1014.92C488.204 1009.94 488.619 1004.99 489.409 1000.13C512.194 970.421 520.177 930.447 506.415 890.266C505.916 885.695 505.334 881.166 504.585 876.553C505.375 872.98 506.29 869.323 507.33 865.666C508.369 862.01 509.45 858.312 510.697 854.613C500.843 852.577 492.029 846.469 488.328 836.206H488.287Z" fill="white"/>
</mask>
<g mask="url(#mask0_35406_3843)">
<path d="M486.749 789.75C487.921 789.75 488.87 788.801 488.87 787.631C488.87 786.461 487.921 785.512 486.749 785.512C485.578 785.512 484.629 786.461 484.629 787.631C484.629 788.801 485.578 789.75 486.749 789.75Z" fill="#231F20"/>
<path d="M486.749 978.192C487.921 978.192 488.87 977.243 488.87 976.072C488.87 974.902 487.921 973.953 486.749 973.953C485.578 973.953 484.629 974.902 484.629 976.072C484.629 977.243 485.578 978.192 486.749 978.192Z" fill="#231F20"/>
<path d="M499.265 927.246C501.86 927.246 503.963 925.144 503.963 922.551C503.963 919.958 501.86 917.855 499.265 917.855C496.67 917.855 494.566 919.958 494.566 922.551C494.566 925.144 496.67 927.246 499.265 927.246Z" fill="#231F20"/>
<path d="M486.749 883.953C487.921 883.953 488.87 883.004 488.87 881.834C488.87 880.664 487.921 879.715 486.749 879.715C485.578 879.715 484.629 880.664 484.629 881.834C484.629 883.004 485.578 883.953 486.749 883.953Z" fill="#231F20"/>
<path d="M499.265 833.047C501.86 833.047 503.963 830.945 503.963 828.352C503.963 825.758 501.86 823.656 499.265 823.656C496.67 823.656 494.566 825.758 494.566 828.352C494.566 830.945 496.67 833.047 499.265 833.047Z" fill="#231F20"/>
<path d="M438.685 928.196C443.553 928.196 447.499 924.252 447.499 919.387C447.499 914.522 443.553 910.578 438.685 910.578C433.817 910.578 429.87 914.522 429.87 919.387C429.87 924.252 433.817 928.196 438.685 928.196Z" fill="#231F20"/>
<path d="M438.685 834.001C443.553 834.001 447.499 830.057 447.499 825.192C447.499 820.327 443.553 816.383 438.685 816.383C433.817 816.383 429.87 820.327 429.87 825.192C429.87 830.057 433.817 834.001 438.685 834.001Z" fill="#231F20"/>
<path d="M486.749 1166.68C487.921 1166.68 488.87 1165.73 488.87 1164.56C488.87 1163.39 487.921 1162.44 486.749 1162.44C485.578 1162.44 484.629 1163.39 484.629 1164.56C484.629 1165.73 485.578 1166.68 486.749 1166.68Z" fill="#231F20"/>
<path d="M499.265 1115.73C501.86 1115.73 503.963 1113.63 503.963 1111.04C503.963 1108.44 501.86 1106.34 499.265 1106.34C496.67 1106.34 494.566 1108.44 494.566 1111.04C494.566 1113.63 496.67 1115.73 499.265 1115.73Z" fill="#231F20"/>
<path d="M486.749 1072.43C487.921 1072.43 488.87 1071.48 488.87 1070.31C488.87 1069.14 487.921 1068.2 486.749 1068.2C485.578 1068.2 484.629 1069.14 484.629 1070.31C484.629 1071.48 485.578 1072.43 486.749 1072.43Z" fill="#231F20"/>
<path d="M499.265 1021.49C501.86 1021.49 503.963 1019.39 503.963 1016.79C503.963 1014.2 501.86 1012.1 499.265 1012.1C496.67 1012.1 494.566 1014.2 494.566 1016.79C494.566 1019.39 496.67 1021.49 499.265 1021.49Z" fill="#231F20"/>
<path d="M438.685 1116.68C443.553 1116.68 447.499 1112.74 447.499 1107.88C447.499 1103.01 443.553 1099.07 438.685 1099.07C433.817 1099.07 429.87 1103.01 429.87 1107.88C429.87 1112.74 433.817 1116.68 438.685 1116.68Z" fill="#231F20"/>
<path d="M438.685 1022.45C443.553 1022.45 447.499 1018.5 447.499 1013.64C447.499 1008.77 443.553 1004.83 438.685 1004.83C433.817 1004.83 429.87 1008.77 429.87 1013.64C429.87 1018.5 433.817 1022.45 438.685 1022.45Z" fill="#231F20"/>
<path d="M438.685 1210.93C443.553 1210.93 447.499 1206.98 447.499 1202.12C447.499 1197.25 443.553 1193.31 438.685 1193.31C433.817 1193.31 429.87 1197.25 429.87 1202.12C429.87 1206.98 433.817 1210.93 438.685 1210.93Z" fill="#231F20"/>
</g>
<mask id="mask1_35406_3843" style="mask-type:luminance" maskUnits="userSpaceOnUse" x="641" y="729" width="66" height="475">
<path d="M699.337 758.336C695.387 751.854 690.106 740.385 683.911 729.332C672.144 769.306 661.792 809.612 653.518 849.918C652.478 854.946 650.565 858.935 648.112 862.218C646.948 864.42 645.576 866.498 643.871 868.409C654.307 902.815 655.139 942.664 653.351 971.044C650.856 1010.44 647.821 1049.58 647.114 1089.1C646.782 1107.21 634.641 1161.48 648.362 1174.07C658.299 1183.17 660.045 1194.06 657.01 1203.7C676.593 1200.58 690.688 1182.71 690.688 1162.64V830.388C700.293 819.501 706.197 805.124 706.197 789.376V770.178C704.035 766.272 701.79 762.325 699.337 758.336Z" fill="white"/>
</mask>
<g mask="url(#mask1_35406_3843)">
<path d="M650.857 739.759C655.725 739.759 659.671 735.815 659.671 730.95C659.671 726.085 655.725 722.141 650.857 722.141C645.988 722.141 642.042 726.085 642.042 730.95C642.042 735.815 645.988 739.759 650.857 739.759Z" fill="#231F20"/>
<path d="M698.88 978.192C700.051 978.192 701.001 977.243 701.001 976.072C701.001 974.902 700.051 973.953 698.88 973.953C697.709 973.953 696.76 974.902 696.76 976.072C696.76 977.243 697.709 978.192 698.88 978.192Z" fill="#231F20"/>
<path d="M698.88 883.953C700.051 883.953 701.001 883.004 701.001 881.834C701.001 880.664 700.051 879.715 698.88 879.715C697.709 879.715 696.76 880.664 696.76 881.834C696.76 883.004 697.709 883.953 698.88 883.953Z" fill="#231F20"/>
<path d="M650.857 928.196C655.725 928.196 659.671 924.252 659.671 919.387C659.671 914.522 655.725 910.578 650.857 910.578C645.988 910.578 642.042 914.522 642.042 919.387C642.042 924.252 645.988 928.196 650.857 928.196Z" fill="#231F20"/>
<path d="M698.88 1166.68C700.051 1166.68 701.001 1165.73 701.001 1164.56C701.001 1163.39 700.051 1162.44 698.88 1162.44C697.709 1162.44 696.76 1163.39 696.76 1164.56C696.76 1165.73 697.709 1166.68 698.88 1166.68Z" fill="#231F20"/>
<path d="M698.88 1072.43C700.051 1072.43 701.001 1071.48 701.001 1070.31C701.001 1069.14 700.051 1068.2 698.88 1068.2C697.709 1068.2 696.76 1069.14 696.76 1070.31C696.76 1071.48 697.709 1072.43 698.88 1072.43Z" fill="#231F20"/>
<path d="M650.857 1116.68C655.725 1116.68 659.671 1112.74 659.671 1107.88C659.671 1103.01 655.725 1099.07 650.857 1099.07C645.988 1099.07 642.042 1103.01 642.042 1107.88C642.042 1112.74 645.988 1116.68 650.857 1116.68Z" fill="#231F20"/>
<path d="M650.857 1022.45C655.725 1022.45 659.671 1018.5 659.671 1013.64C659.671 1008.77 655.725 1004.83 650.857 1004.83C645.988 1004.83 642.042 1008.77 642.042 1013.64C642.042 1018.5 645.988 1022.45 650.857 1022.45Z" fill="#231F20"/>
<path d="M650.857 1210.93C655.725 1210.93 659.671 1206.98 659.671 1202.12C659.671 1197.25 655.725 1193.31 650.857 1193.31C645.988 1193.31 642.042 1197.25 642.042 1202.12C642.042 1206.98 645.988 1210.93 650.857 1210.93Z" fill="#231F20"/>
</g>
<mask id="mask2_35406_3843" style="mask-type:luminance" maskUnits="userSpaceOnUse" x="86" y="40" width="907" height="992">
<path d="M891.011 48.7382L724.823 155.155C689.149 169.532 471.28 169.158 435.98 154.033L247.548 53.2674C147.387 10.4681 152.584 126.899 161.939 235.351L182.354 471.662C185.888 511.552 204.265 546.83 231.873 575.627C272.745 618.343 330.372 640.781 389.496 640.781H398.851C386.544 663.51 375.817 687.071 366.669 711.379L344.009 686.822C344.009 686.822 343.843 686.697 343.76 686.614C341.348 693.428 336.941 699.37 330.247 702.487C313.117 710.507 298.107 721.56 281.393 730.161C274.907 742.461 261.934 750.605 246.342 744.497C210.668 730.493 186.013 706.019 155.702 683.788C126.431 662.305 106.806 649.009 101.193 613.564L96.3703 618.384C82.5248 632.221 83.3979 654.868 98.2829 667.583L241.187 789.623L249.918 797.144C256.404 802.587 266.009 801.881 271.456 795.399C284.719 779.733 307.13 753.181 323.844 733.361C329.54 726.712 339.353 726.089 345.756 731.989C348.708 734.69 352.242 737.973 356.15 741.588C331.037 820.995 322.929 906.552 332.783 989.699C334.738 1006.11 346.421 1018.87 361.348 1023.23C358.312 999.256 360.35 975.53 361.722 950.931C363.717 914.821 364.591 878.961 371.16 843.226C377.854 806.784 386.003 768.639 398.186 733.61C409.869 700.035 426.833 668.622 438.475 635.005C438.475 634.922 438.516 634.881 438.558 634.839C429.286 619.672 417.478 615.226 398.518 611.86C366.961 606.251 334.155 605.212 308.668 583.064C281.393 559.338 271.83 523.644 266.716 489.238C261.311 453.004 261.061 416.563 251.54 380.994C241.436 343.264 233.827 305.7 228.838 266.931C224.015 229.368 202.602 145.39 262.641 141.858C290.166 140.237 323.719 159.061 347.253 170.903C384.174 189.436 418.642 214.783 457.892 228.329C537.846 255.962 641.667 230.199 719.751 207.137C751.059 197.871 785.028 184.325 815.006 186.07C832.178 175.889 847.77 155.404 866.064 149.462C887.643 142.481 909.056 149.67 920.822 169.158C946.434 211.417 930.468 282.638 928.182 327.931C924.731 396.908 928.389 468.587 879.036 523.644C856.709 548.534 827.895 564.033 799.289 579.906C779.831 603.259 756.422 622.207 724.49 628.149C722.869 628.44 721.206 628.565 719.584 628.648C715.219 640.823 710.936 653.039 706.778 665.339C718.295 675.561 726.819 688.691 735.841 704.232C752.348 732.654 771.848 759.705 782.7 791.036C807.896 864.044 806.316 954.338 801.036 1031.83C817.792 1028.22 830.972 1014.13 832.51 996.265C839.87 909.752 827.937 821.286 798.042 740.466C785.07 705.603 769.062 672.32 750.019 640.823H754.427C809.31 640.823 863.153 621.376 903.235 583.979C934.501 554.809 956.122 518.076 960.904 475.858L988.096 236.681C1000.49 128.104 992.253 7.72564 890.886 48.7797L891.011 48.7382Z" fill="white"/>
</mask>
<g mask="url(#mask2_35406_3843)">
<path d="M987.889 330.384C990.162 330.384 992.005 328.542 992.005 326.27C992.005 323.998 990.162 322.156 987.889 322.156C985.615 322.156 983.772 323.998 983.772 326.27C983.772 328.542 985.615 330.384 987.889 330.384Z" fill="#231F20"/>
<path d="M807.854 322.948C812.837 322.948 816.877 318.911 816.877 313.931C816.877 308.951 812.837 304.914 807.854 304.914C802.872 304.914 798.832 308.951 798.832 313.931C798.832 318.911 802.872 322.948 807.854 322.948Z" fill="#231F20"/>
<path d="M691.27 324.813C700.638 324.813 708.233 317.223 708.233 307.86C708.233 298.497 700.638 290.906 691.27 290.906C681.901 290.906 674.306 298.497 674.306 307.86C674.306 317.223 681.901 324.813 691.27 324.813Z" fill="#231F20"/>
<path d="M987.889 149.048C990.162 149.048 992.005 147.206 992.005 144.934C992.005 142.662 990.162 140.82 987.889 140.82C985.615 140.82 983.772 142.662 983.772 144.934C983.772 147.206 985.615 149.048 987.889 149.048Z" fill="#231F20"/>
<path d="M783.739 239.72C786.013 239.72 787.855 237.878 787.855 235.606C787.855 233.334 786.013 231.492 783.739 231.492C781.466 231.492 779.623 233.334 779.623 235.606C779.623 237.878 781.466 239.72 783.739 239.72Z" fill="#231F20"/>
<path d="M895.418 234.149C904.787 234.149 912.382 226.559 912.382 217.196C912.382 207.833 904.787 200.242 895.418 200.242C886.049 200.242 878.454 207.833 878.454 217.196C878.454 226.559 886.049 234.149 895.418 234.149Z" fill="#231F20"/>
<path d="M807.854 141.608C812.837 141.608 816.877 137.571 816.877 132.591C816.877 127.611 812.837 123.574 807.854 123.574C802.872 123.574 798.832 127.611 798.832 132.591C798.832 137.571 802.872 141.608 807.854 141.608Z" fill="#231F20"/>
<path d="M691.27 143.485C700.638 143.485 708.233 135.895 708.233 126.532C708.233 117.168 700.638 109.578 691.27 109.578C681.901 109.578 674.306 117.168 674.306 126.532C674.306 135.895 681.901 143.485 691.27 143.485Z" fill="#231F20"/>
<path d="M783.739 58.3798C786.013 58.3798 787.855 56.538 787.855 54.2661C787.855 51.9941 786.013 50.1523 783.739 50.1523C781.466 50.1523 779.623 51.9941 779.623 54.2661C779.623 56.538 781.466 58.3798 783.739 58.3798Z" fill="#231F20"/>
<path d="M895.418 52.8133C904.787 52.8133 912.382 45.2229 912.382 35.8598C912.382 26.4966 904.787 18.9062 895.418 18.9062C886.049 18.9062 878.454 26.4966 878.454 35.8598C878.454 45.2229 886.049 52.8133 895.418 52.8133Z" fill="#231F20"/>
<path d="M987.889 693.059C990.162 693.059 992.005 691.218 992.005 688.946C992.005 686.674 990.162 684.832 987.889 684.832C985.615 684.832 983.772 686.674 983.772 688.946C983.772 691.218 985.615 693.059 987.889 693.059Z" fill="#231F20"/>
<path d="M807.854 685.616C812.837 685.616 816.877 681.579 816.877 676.599C816.877 671.619 812.837 667.582 807.854 667.582C802.872 667.582 798.832 671.619 798.832 676.599C798.832 681.579 802.872 685.616 807.854 685.616Z" fill="#231F20"/>
<path d="M697.797 654.914H684.742C678.63 657.49 674.306 663.515 674.306 670.538C674.306 679.887 681.914 687.491 691.27 687.491C700.625 687.491 708.233 679.887 708.233 670.538C708.233 663.474 703.909 657.449 697.797 654.914Z" fill="#231F20"/>
<path d="M987.889 511.724C990.162 511.724 992.005 509.882 992.005 507.61C992.005 505.338 990.162 503.496 987.889 503.496C985.615 503.496 983.772 505.338 983.772 507.61C983.772 509.882 985.615 511.724 987.889 511.724Z" fill="#231F20"/>
<path d="M783.739 602.388C786.013 602.388 787.855 600.546 787.855 598.274C787.855 596.002 786.013 594.16 783.739 594.16C781.466 594.16 779.623 596.002 779.623 598.274C779.623 600.546 781.466 602.388 783.739 602.388Z" fill="#231F20"/>
<path d="M895.418 596.825C904.787 596.825 912.382 589.235 912.382 579.871C912.382 570.508 904.787 562.918 895.418 562.918C886.049 562.918 878.454 570.508 878.454 579.871C878.454 589.235 886.049 596.825 895.418 596.825Z" fill="#231F20"/>
<path d="M807.854 504.288C812.837 504.288 816.877 500.251 816.877 495.271C816.877 490.291 812.837 486.254 807.854 486.254C802.872 486.254 798.832 490.291 798.832 495.271C798.832 500.251 802.872 504.288 807.854 504.288Z" fill="#231F20"/>
<path d="M691.27 506.153C700.638 506.153 708.233 498.563 708.233 489.2C708.233 479.836 700.638 472.246 691.27 472.246C681.901 472.246 674.306 479.836 674.306 489.2C674.306 498.563 681.901 506.153 691.27 506.153Z" fill="#231F20"/>
<path d="M783.739 421.052C786.013 421.052 787.855 419.21 787.855 416.938C787.855 414.666 786.013 412.824 783.739 412.824C781.466 412.824 779.623 414.666 779.623 416.938C779.623 419.21 781.466 421.052 783.739 421.052Z" fill="#231F20"/>
<path d="M895.418 415.485C904.787 415.485 912.382 407.895 912.382 398.532C912.382 389.168 904.787 381.578 895.418 381.578C886.049 381.578 878.454 389.168 878.454 398.532C878.454 407.895 886.049 415.485 895.418 415.485Z" fill="#231F20"/>
<path d="M807.854 1048.33C812.837 1048.33 816.877 1044.29 816.877 1039.31C816.877 1034.33 812.837 1030.3 807.854 1030.3C802.872 1030.3 798.832 1034.33 798.832 1039.31C798.832 1044.29 802.872 1048.33 807.854 1048.33Z" fill="#231F20"/>
<path d="M691.27 1050.16C700.638 1050.16 708.233 1042.57 708.233 1033.21C708.233 1023.85 700.638 1016.26 691.27 1016.26C681.901 1016.26 674.306 1023.85 674.306 1033.21C674.306 1042.57 681.901 1050.16 691.27 1050.16Z" fill="#231F20"/>
<path d="M987.889 874.391C990.162 874.391 992.005 872.55 992.005 870.278C992.005 868.006 990.162 866.164 987.889 866.164C985.615 866.164 983.772 868.006 983.772 870.278C983.772 872.55 985.615 874.391 987.889 874.391Z" fill="#231F20"/>
<path d="M783.739 965.063C786.013 965.063 787.855 963.222 787.855 960.95C787.855 958.678 786.013 956.836 783.739 956.836C781.466 956.836 779.623 958.678 779.623 960.95C779.623 963.222 781.466 965.063 783.739 965.063Z" fill="#231F20"/>
<path d="M895.418 959.493C904.787 959.493 912.382 951.903 912.382 942.539C912.382 933.176 904.787 925.586 895.418 925.586C886.049 925.586 878.454 933.176 878.454 942.539C878.454 951.903 886.049 959.493 895.418 959.493Z" fill="#231F20"/>
<path d="M807.854 866.956C812.837 866.956 816.877 862.919 816.877 857.939C816.877 852.959 812.837 848.922 807.854 848.922C802.872 848.922 798.832 852.959 798.832 857.939C798.832 862.919 802.872 866.956 807.854 866.956Z" fill="#231F20"/>
<path d="M691.27 868.825C700.638 868.825 708.233 861.235 708.233 851.871C708.233 842.508 700.638 834.918 691.27 834.918C681.901 834.918 674.306 842.508 674.306 851.871C674.306 861.235 681.901 868.825 691.27 868.825Z" fill="#231F20"/>
<path d="M895.418 778.157C904.787 778.157 912.382 770.567 912.382 761.204C912.382 751.84 904.787 744.25 895.418 744.25C886.049 744.25 878.454 751.84 878.454 761.204C878.454 770.567 886.049 778.157 895.418 778.157Z" fill="#231F20"/>
<path d="M579.633 330.384C581.906 330.384 583.749 328.542 583.749 326.27C583.749 323.998 581.906 322.156 579.633 322.156C577.36 322.156 575.517 323.998 575.517 326.27C575.517 328.542 577.36 330.384 579.633 330.384Z" fill="#231F20"/>
<path d="M603.749 232.28C608.732 232.28 612.771 228.243 612.771 223.263C612.771 218.283 608.732 214.246 603.749 214.246C598.766 214.246 594.727 218.283 594.727 223.263C594.727 228.243 598.766 232.28 603.749 232.28Z" fill="#231F20"/>
<path d="M399.6 322.948C404.583 322.948 408.622 318.911 408.622 313.931C408.622 308.951 404.583 304.914 399.6 304.914C394.617 304.914 390.577 308.951 390.577 313.931C390.577 318.911 394.617 322.948 399.6 322.948Z" fill="#231F20"/>
<path d="M283.015 324.813C292.384 324.813 299.978 317.223 299.978 307.86C299.978 298.497 292.384 290.906 283.015 290.906C273.646 290.906 266.051 298.497 266.051 307.86C266.051 317.223 273.646 324.813 283.015 324.813Z" fill="#231F20"/>
<path d="M579.633 149.048C581.906 149.048 583.749 147.206 583.749 144.934C583.749 142.662 581.906 140.82 579.633 140.82C577.36 140.82 575.517 142.662 575.517 144.934C575.517 147.206 577.36 149.048 579.633 149.048Z" fill="#231F20"/>
<path d="M603.749 50.944C608.732 50.944 612.771 46.907 612.771 41.9271C612.771 36.9472 608.732 32.9102 603.749 32.9102C598.766 32.9102 594.727 36.9472 594.727 41.9271C594.727 46.907 598.766 50.944 603.749 50.944Z" fill="#231F20"/>
<path d="M375.483 239.72C377.757 239.72 379.6 237.878 379.6 235.606C379.6 233.334 377.757 231.492 375.483 231.492C373.21 231.492 371.367 233.334 371.367 235.606C371.367 237.878 373.21 239.72 375.483 239.72Z" fill="#231F20"/>
<path d="M487.162 234.149C496.531 234.149 504.126 226.559 504.126 217.196C504.126 207.833 496.531 200.242 487.162 200.242C477.793 200.242 470.198 207.833 470.198 217.196C470.198 226.559 477.793 234.149 487.162 234.149Z" fill="#231F20"/>
<path d="M399.6 141.608C404.583 141.608 408.622 137.571 408.622 132.591C408.622 127.611 404.583 123.574 399.6 123.574C394.617 123.574 390.577 127.611 390.577 132.591C390.577 137.571 394.617 141.608 399.6 141.608Z" fill="#231F20"/>
<path d="M283.015 143.485C292.384 143.485 299.978 135.895 299.978 126.532C299.978 117.168 292.384 109.578 283.015 109.578C273.646 109.578 266.051 117.168 266.051 126.532C266.051 135.895 273.646 143.485 283.015 143.485Z" fill="#231F20"/>
<path d="M375.483 58.3798C377.757 58.3798 379.6 56.538 379.6 54.2661C379.6 51.9941 377.757 50.1523 375.483 50.1523C373.21 50.1523 371.367 51.9941 371.367 54.2661C371.367 56.538 373.21 58.3798 375.483 58.3798Z" fill="#231F20"/>
<path d="M487.162 52.8133C496.531 52.8133 504.126 45.2229 504.126 35.8598C504.126 26.4966 496.531 18.9062 487.162 18.9062C477.793 18.9062 470.198 26.4966 470.198 35.8598C470.198 45.2229 477.793 52.8133 487.162 52.8133Z" fill="#231F20"/>
<path d="M579.633 693.059C581.906 693.059 583.749 691.218 583.749 688.946C583.749 686.674 581.906 684.832 579.633 684.832C577.36 684.832 575.517 686.674 575.517 688.946C575.517 691.218 577.36 693.059 579.633 693.059Z" fill="#231F20"/>
<path d="M603.747 594.952C608.73 594.952 612.769 590.915 612.769 585.935C612.769 580.955 608.73 576.918 603.747 576.918C598.764 576.918 594.725 580.955 594.725 585.935C594.725 590.915 598.764 594.952 603.747 594.952Z" fill="#231F20"/>
<path d="M283.015 687.489C292.384 687.489 299.978 679.899 299.978 670.536C299.978 661.172 292.384 653.582 283.015 653.582C273.646 653.582 266.051 661.172 266.051 670.536C266.051 679.899 273.646 687.489 283.015 687.489Z" fill="#231F20"/>
<path d="M579.633 511.724C581.906 511.724 583.749 509.882 583.749 507.61C583.749 505.338 581.906 503.496 579.633 503.496C577.36 503.496 575.517 505.338 575.517 507.61C575.517 509.882 577.36 511.724 579.633 511.724Z" fill="#231F20"/>
<path d="M603.749 413.612C608.732 413.612 612.771 409.575 612.771 404.595C612.771 399.615 608.732 395.578 603.749 395.578C598.766 395.578 594.727 399.615 594.727 404.595C594.727 409.575 598.766 413.612 603.749 413.612Z" fill="#231F20"/>
<path d="M375.483 602.388C377.757 602.388 379.6 600.546 379.6 598.274C379.6 596.002 377.757 594.16 375.483 594.16C373.21 594.16 371.367 596.002 371.367 598.274C371.367 600.546 373.21 602.388 375.483 602.388Z" fill="#231F20"/>
<path d="M487.162 596.825C496.531 596.825 504.126 589.235 504.126 579.871C504.126 570.508 496.531 562.918 487.162 562.918C477.793 562.918 470.198 570.508 470.198 579.871C470.198 589.235 477.793 596.825 487.162 596.825Z" fill="#231F20"/>
<path d="M399.6 504.288C404.583 504.288 408.622 500.251 408.622 495.271C408.622 490.291 404.583 486.254 399.6 486.254C394.617 486.254 390.577 490.291 390.577 495.271C390.577 500.251 394.617 504.288 399.6 504.288Z" fill="#231F20"/>
<path d="M283.015 506.153C292.384 506.153 299.978 498.563 299.978 489.2C299.978 479.836 292.384 472.246 283.015 472.246C273.646 472.246 266.051 479.836 266.051 489.2C266.051 498.563 273.646 506.153 283.015 506.153Z" fill="#231F20"/>
<path d="M375.483 421.052C377.757 421.052 379.6 419.21 379.6 416.938C379.6 414.666 377.757 412.824 375.483 412.824C373.21 412.824 371.367 414.666 371.367 416.938C371.367 419.21 373.21 421.052 375.483 421.052Z" fill="#231F20"/>
<path d="M487.162 415.485C496.531 415.485 504.126 407.895 504.126 398.532C504.126 389.168 496.531 381.578 487.162 381.578C477.793 381.578 470.198 389.168 470.198 398.532C470.198 407.895 477.793 415.485 487.162 415.485Z" fill="#231F20"/>
<path d="M603.749 957.667C608.732 957.667 612.771 953.63 612.771 948.65C612.771 943.67 608.732 939.633 603.749 939.633C598.766 939.633 594.727 943.67 594.727 948.65C594.727 953.63 598.766 957.667 603.749 957.667Z" fill="#231F20"/>
<path d="M399.6 1048.33C404.583 1048.33 408.622 1044.29 408.622 1039.31C408.622 1034.33 404.583 1030.3 399.6 1030.3C394.617 1030.3 390.577 1034.33 390.577 1039.31C390.577 1044.29 394.617 1048.33 399.6 1048.33Z" fill="#231F20"/>
<path d="M283.015 1050.16C292.384 1050.16 299.978 1042.57 299.978 1033.21C299.978 1023.85 292.384 1016.26 283.015 1016.26C273.646 1016.26 266.051 1023.85 266.051 1033.21C266.051 1042.57 273.646 1050.16 283.015 1050.16Z" fill="#231F20"/>
<path d="M579.633 874.391C581.906 874.391 583.749 872.55 583.749 870.278C583.749 868.006 581.906 866.164 579.633 866.164C577.36 866.164 575.517 868.006 575.517 870.278C575.517 872.55 577.36 874.391 579.633 874.391Z" fill="#231F20"/>
<path d="M603.749 776.292C608.732 776.292 612.771 772.255 612.771 767.275C612.771 762.295 608.732 758.258 603.749 758.258C598.766 758.258 594.727 762.295 594.727 767.275C594.727 772.255 598.766 776.292 603.749 776.292Z" fill="#231F20"/>
<path d="M375.483 965.063C377.757 965.063 379.6 963.222 379.6 960.95C379.6 958.678 377.757 956.836 375.483 956.836C373.21 956.836 371.367 958.678 371.367 960.95C371.367 963.222 373.21 965.063 375.483 965.063Z" fill="#231F20"/>
<path d="M487.162 959.493C496.531 959.493 504.126 951.903 504.126 942.539C504.126 933.176 496.531 925.586 487.162 925.586C477.793 925.586 470.198 933.176 470.198 942.539C470.198 951.903 477.793 959.493 487.162 959.493Z" fill="#231F20"/>
<path d="M399.6 866.956C404.583 866.956 408.622 862.919 408.622 857.939C408.622 852.959 404.583 848.922 399.6 848.922C394.617 848.922 390.577 852.959 390.577 857.939C390.577 862.919 394.617 866.956 399.6 866.956Z" fill="#231F20"/>
<path d="M283.015 868.825C292.384 868.825 299.978 861.235 299.978 851.871C299.978 842.508 292.384 834.918 283.015 834.918C273.646 834.918 266.051 842.508 266.051 851.871C266.051 861.235 273.646 868.825 283.015 868.825Z" fill="#231F20"/>
<path d="M487.162 778.157C496.531 778.157 504.126 770.567 504.126 761.204C504.126 751.84 496.531 744.25 487.162 744.25C477.793 744.25 470.198 751.84 470.198 761.204C470.198 770.567 477.793 778.157 487.162 778.157Z" fill="#231F20"/>
<path d="M171.378 330.384C173.651 330.384 175.494 328.542 175.494 326.27C175.494 323.998 173.651 322.156 171.378 322.156C169.105 322.156 167.262 323.998 167.262 326.27C167.262 328.542 169.105 330.384 171.378 330.384Z" fill="#231F20"/>
<path d="M195.491 232.28C200.474 232.28 204.514 228.243 204.514 223.263C204.514 218.283 200.474 214.246 195.491 214.246C190.508 214.246 186.469 218.283 186.469 223.263C186.469 228.243 190.508 232.28 195.491 232.28Z" fill="#231F20"/>
<path d="M171.378 149.048C173.651 149.048 175.494 147.206 175.494 144.934C175.494 142.662 173.651 140.82 171.378 140.82C169.105 140.82 167.262 142.662 167.262 144.934C167.262 147.206 169.105 149.048 171.378 149.048Z" fill="#231F20"/>
<path d="M195.491 50.944C200.474 50.944 204.514 46.907 204.514 41.9271C204.514 36.9472 200.474 32.9102 195.491 32.9102C190.508 32.9102 186.469 36.9472 186.469 41.9271C186.469 46.907 190.508 50.944 195.491 50.944Z" fill="#231F20"/>
<path d="M78.9072 234.149C88.2761 234.149 95.8711 226.559 95.8711 217.196C95.8711 207.833 88.2761 200.242 78.9072 200.242C69.5383 200.242 61.9434 207.833 61.9434 217.196C61.9434 226.559 69.5383 234.149 78.9072 234.149Z" fill="#231F20"/>
<path d="M78.9072 52.8133C88.2761 52.8133 95.8711 45.2229 95.8711 35.8598C95.8711 26.4966 88.2761 18.9062 78.9072 18.9062C69.5383 18.9062 61.9434 26.4966 61.9434 35.8598C61.9434 45.2229 69.5383 52.8133 78.9072 52.8133Z" fill="#231F20"/>
<path d="M171.378 693.059C173.651 693.059 175.494 691.218 175.494 688.946C175.494 686.674 173.651 684.832 171.378 684.832C169.105 684.832 167.262 686.674 167.262 688.946C167.262 691.218 169.105 693.059 171.378 693.059Z" fill="#231F20"/>
<path d="M195.491 594.952C200.474 594.952 204.514 590.915 204.514 585.935C204.514 580.955 200.474 576.918 195.491 576.918C190.508 576.918 186.469 580.955 186.469 585.935C186.469 590.915 190.508 594.952 195.491 594.952Z" fill="#231F20"/>
<path d="M171.378 511.724C173.651 511.724 175.494 509.882 175.494 507.61C175.494 505.338 173.651 503.496 171.378 503.496C169.105 503.496 167.262 505.338 167.262 507.61C167.262 509.882 169.105 511.724 171.378 511.724Z" fill="#231F20"/>
<path d="M195.491 413.612C200.474 413.612 204.514 409.575 204.514 404.595C204.514 399.615 200.474 395.578 195.491 395.578C190.508 395.578 186.469 399.615 186.469 404.595C186.469 409.575 190.508 413.612 195.491 413.612Z" fill="#231F20"/>
<path d="M78.9072 596.825C88.2761 596.825 95.8711 589.235 95.8711 579.871C95.8711 570.508 88.2761 562.918 78.9072 562.918C69.5383 562.918 61.9434 570.508 61.9434 579.871C61.9434 589.235 69.5383 596.825 78.9072 596.825Z" fill="#231F20"/>
<path d="M78.9072 415.485C88.2761 415.485 95.8711 407.895 95.8711 398.532C95.8711 389.168 88.2761 381.578 78.9072 381.578C69.5383 381.578 61.9434 389.168 61.9434 398.532C61.9434 407.895 69.5383 415.485 78.9072 415.485Z" fill="#231F20"/>
<path d="M195.491 957.667C200.474 957.667 204.514 953.63 204.514 948.65C204.514 943.67 200.474 939.633 195.491 939.633C190.508 939.633 186.469 943.67 186.469 948.65C186.469 953.63 190.508 957.667 195.491 957.667Z" fill="#231F20"/>
<path d="M171.378 874.391C173.651 874.391 175.494 872.55 175.494 870.278C175.494 868.006 173.651 866.164 171.378 866.164C169.105 866.164 167.262 868.006 167.262 870.278C167.262 872.55 169.105 874.391 171.378 874.391Z" fill="#231F20"/>
<path d="M195.491 776.292C200.474 776.292 204.514 772.255 204.514 767.275C204.514 762.295 200.474 758.258 195.491 758.258C190.508 758.258 186.469 762.295 186.469 767.275C186.469 772.255 190.508 776.292 195.491 776.292Z" fill="#231F20"/>
<path d="M78.9072 959.493C88.2761 959.493 95.8711 951.903 95.8711 942.539C95.8711 933.176 88.2761 925.586 78.9072 925.586C69.5383 925.586 61.9434 933.176 61.9434 942.539C61.9434 951.903 69.5383 959.493 78.9072 959.493Z" fill="#231F20"/>
<path d="M78.9072 778.157C88.2761 778.157 95.8711 770.567 95.8711 761.204C95.8711 751.84 88.2761 744.25 78.9072 744.25C69.5383 744.25 61.9434 751.84 61.9434 761.204C61.9434 770.567 69.5383 778.157 78.9072 778.157Z" fill="#231F20"/>
</g>
<path d="M435.98 614.521L497.35 658.4C509.823 664.508 523.544 667.708 537.473 667.708H617.012C641.127 667.708 664.286 658.109 681.333 641.073L710.853 611.57" fill="#FCC189"/>
<path d="M616.97 669.787H537.431C523.295 669.787 509.117 666.504 496.394 660.271L434.733 616.184L437.145 612.818L498.514 656.698C510.364 662.474 523.918 665.632 537.431 665.632H616.97C640.711 665.632 663.039 656.407 679.836 639.62L709.357 610.117L712.309 613.067L682.788 642.57C665.201 660.147 641.834 669.828 616.97 669.828V669.787Z" fill="#231F20"/>
<path d="M946.684 407.635C940.738 498.178 865.981 571.228 775.299 575.176C737.546 576.838 702.288 566.865 672.684 548.54C670.356 547.086 667.196 548.083 666.365 550.701C658.382 576.879 634.058 595.827 605.245 595.827C591.649 595.827 578.926 591.589 568.614 584.234C558.303 591.506 545.663 595.827 531.901 595.827C504.376 595.827 480.926 578.417 472.029 553.901C471.114 551.366 468.287 550.244 465.958 551.574C433.735 570.065 395.317 578.874 354.612 574.054C272.495 564.33 206.677 497.929 197.696 415.779C185.846 307.41 270.499 215.703 376.524 215.703C427.207 215.703 472.943 236.646 505.624 270.345C522.005 287.257 544.915 295.027 568.365 292.95C570.278 292.783 572.19 292.7 574.144 292.7C576.098 292.7 578.136 292.783 580.09 292.991C602.293 295.069 623.581 284.971 639.256 269.14C671.853 236.147 717.131 215.703 767.191 215.703C870.555 215.703 953.503 302.839 946.684 407.635Z" fill="#FED7B3"/>
<path d="M384.133 560.999C469.463 560.999 538.637 491.868 538.637 406.59C538.637 321.311 469.463 252.18 384.133 252.18C298.803 252.18 229.629 321.311 229.629 406.59C229.629 491.868 298.803 560.999 384.133 560.999Z" fill="white"/>
<path d="M384.134 563.08C297.776 563.08 227.551 492.856 227.551 406.593C227.551 320.33 297.818 250.105 384.134 250.105C470.45 250.105 540.717 320.33 540.717 406.593C540.717 492.856 470.45 563.08 384.134 563.08ZM384.134 254.261C300.063 254.261 231.709 322.615 231.709 406.593C231.709 490.571 300.105 558.925 384.134 558.925C468.163 558.925 536.559 490.571 536.559 406.593C536.559 322.615 468.163 254.261 384.134 254.261Z" fill="#231F20"/>
<path d="M408.04 536.155C480.167 536.155 538.637 477.721 538.637 405.638C538.637 333.556 480.167 275.121 408.04 275.121C335.914 275.121 277.443 333.556 277.443 405.638C277.443 477.721 335.914 536.155 408.04 536.155Z" fill="#231F20"/>
<path d="M757.42 560.999C842.751 560.999 911.924 491.868 911.924 406.59C911.924 321.311 842.751 252.18 757.42 252.18C672.09 252.18 602.916 321.311 602.916 406.59C602.916 491.868 672.09 560.999 757.42 560.999Z" fill="white"/>
<path d="M757.421 563.08C671.063 563.08 600.838 492.856 600.838 406.593C600.838 320.33 671.105 250.105 757.421 250.105C843.737 250.105 914.004 320.33 914.004 406.593C914.004 492.856 843.737 563.08 757.421 563.08ZM757.421 254.261C673.35 254.261 604.996 322.615 604.996 406.593C604.996 490.571 673.392 558.925 757.421 558.925C841.45 558.925 909.846 490.571 909.846 406.593C909.846 322.615 841.45 254.261 757.421 254.261Z" fill="#231F20"/>
<path d="M733.514 536.155C805.64 536.155 864.111 477.721 864.111 405.638C864.111 333.556 805.64 275.121 733.514 275.121C661.387 275.121 602.917 333.556 602.917 405.638C602.917 477.721 661.387 536.155 733.514 536.155Z" fill="#231F20"/>
<path d="M531.569 600.854C528.284 600.854 525.083 600.563 521.923 599.94C514.605 598.527 507.87 595.369 502.423 590.798L505.084 587.599C508.493 590.466 514.314 594.206 522.713 595.826C539.511 599.109 560.3 592.128 569.031 580.285C573.937 573.637 573.729 566.864 572.69 562.335L576.723 561.379C577.97 566.739 578.22 574.8 572.357 582.737C564.25 593.707 547.577 600.771 531.528 600.771L531.569 600.854Z" fill="#231F20"/>
<path d="M621.087 600.849C605.038 600.849 588.365 593.785 580.257 582.815C574.395 574.879 574.644 566.817 575.891 561.457L579.924 562.413C578.885 566.9 578.636 573.674 583.583 580.364C592.315 592.206 613.104 599.145 629.901 595.904C638.258 594.284 644.121 590.544 647.53 587.677L650.191 590.876C644.745 595.406 638.009 598.564 630.691 600.018C627.573 600.641 624.33 600.932 621.045 600.932L621.087 600.849Z" fill="#231F20"/>
<path d="M528.99 600.021C525.498 598.608 521.631 598.318 517.931 597.528C517.764 597.528 517.64 597.362 517.515 597.32C516.143 597.32 514.729 597.445 513.357 597.403L511.361 605.963L514.147 617.889L520.924 622.834L527.701 617.889L530.487 605.963L529.074 600.021H528.99Z" fill="white"/>
<path d="M520.883 625.369L512.276 619.095L509.199 605.964L511.694 595.285H513.357C514.313 595.327 515.27 595.285 516.226 595.285H517.806L518.554 595.535C519.594 595.742 520.633 595.908 521.631 596.075C524.251 596.532 526.953 596.947 529.572 597.986L529.947 598.152L530.82 598.568L532.566 605.923L529.489 619.053L520.883 625.328V625.369ZM515.976 616.643L520.883 620.217L525.789 616.643L528.284 605.964L527.244 601.601C525.29 600.936 523.169 600.562 520.924 600.188C519.76 599.981 518.596 599.814 517.432 599.565L516.974 599.44H516.351C515.893 599.44 515.436 599.482 514.937 599.524L513.399 606.006L515.893 616.685L515.976 616.643Z" fill="#231F20"/>
<path d="M620.09 598.732L618.386 605.962L621.172 617.887L627.949 622.832L634.726 617.887L637.512 605.962L635.599 597.734C630.443 598.108 625.288 598.524 620.09 598.732Z" fill="white"/>
<path d="M627.948 625.366L619.341 619.092L616.265 605.961L618.427 596.736L620.007 596.653C625.162 596.445 630.276 596.071 635.432 595.656L637.22 595.531L639.673 605.961L636.596 619.092L627.99 625.366H627.948ZM623.042 616.64L627.948 620.214L632.854 616.64L635.349 605.961L633.935 599.936C629.861 600.227 625.786 600.518 621.711 600.725L620.464 605.961L622.959 616.64H623.042Z" fill="#231F20"/>
<path d="M845.233 459.074C868.357 459.074 887.103 440.34 887.103 417.23C887.103 394.121 868.357 375.387 845.233 375.387C822.11 375.387 803.364 394.121 803.364 417.23C803.364 440.34 822.11 459.074 845.233 459.074Z" fill="white"/>
<path d="M297.568 455.539C320.692 455.539 339.438 436.805 339.438 413.695C339.438 390.586 320.692 371.852 297.568 371.852C274.445 371.852 255.699 390.586 255.699 413.695C255.699 436.805 274.445 455.539 297.568 455.539Z" fill="white"/>
<g opacity="0.41">
<path d="M179.278 85.8915L197.573 184.621C198.28 188.444 201.232 191.435 205.057 192.183L299.564 210.467C308.628 212.212 314.573 201.283 308.17 194.635L195.369 77.5809C188.883 70.8494 177.574 76.6252 179.278 85.8499L197.573 184.579C198.28 188.402 201.232 191.394 205.057 192.142L299.564 210.425C308.628 212.17 314.573 201.242 308.17 194.593L195.369 77.5394C188.883 70.8079 177.574 76.5837 179.278 85.8084V85.8915Z" fill="#A4754C"/>
</g>
<g opacity="0.41">
<path d="M948.889 85.4306L930.594 184.16C929.888 187.983 926.935 190.974 923.11 191.722L828.603 210.006C819.539 211.751 813.594 200.822 819.997 194.174L932.798 77.12C939.284 70.3885 950.593 76.1643 948.889 85.389L930.594 184.118C929.888 187.941 926.935 190.933 923.11 191.681L828.603 209.964C819.539 211.709 813.594 200.781 819.997 194.132L932.798 77.0785C939.284 70.3469 950.593 76.1228 948.889 85.3475V85.4306Z" fill="#A4754C"/>
</g>
<path d="M634.767 520.239L647.864 500.46C650.567 496.346 647.49 486.997 642.833 485.21L620.755 476.733C617.679 475.528 614.893 470.666 614.727 466.013C614.519 461.483 611.899 456.705 608.864 455.375L593.438 448.727" fill="#FED7B3"/>
<path d="M636.471 521.401L633.02 519.116L646.117 499.337C646.99 498.007 647.032 495.431 646.159 492.771C645.285 490.029 643.622 487.785 642.042 487.162L619.964 478.685C616.056 477.189 612.813 471.662 612.605 466.136C612.439 462.022 610.027 458.199 607.99 457.327L592.564 450.678L594.228 446.855L609.653 453.504C613.437 455.124 616.555 460.609 616.763 465.97C616.929 470.083 619.382 474.031 621.461 474.82L643.539 483.297C646.366 484.378 648.82 487.452 650.109 491.525C651.356 495.431 651.148 499.212 649.568 501.622L636.471 521.401Z" fill="#231F20"/>
<path d="M509.201 517.954L496.104 498.175C493.401 494.061 496.478 484.711 501.134 482.925L523.212 474.448C526.289 473.243 529.075 468.381 529.241 463.727C529.449 459.198 532.069 454.42 535.104 453.09L550.529 446.441" fill="#FED7B3"/>
<path d="M507.454 519.116L494.357 499.337C492.777 496.927 492.569 493.145 493.816 489.239C495.105 485.167 497.558 482.092 500.386 481.012L522.464 472.535C524.543 471.746 526.996 467.798 527.162 463.685C527.37 458.324 530.53 452.839 534.272 451.219L549.697 444.57L551.36 448.393L535.935 455.042C533.898 455.914 531.486 459.779 531.32 463.851C531.07 469.377 527.869 474.904 523.96 476.4L501.882 484.876C500.303 485.5 498.639 487.744 497.766 490.486C496.935 493.145 496.935 495.722 497.808 497.051L510.905 516.83L507.454 519.116Z" fill="#231F20"/>
<path d="M518.887 496.636C555.808 498.131 592.647 498.173 629.36 496.677C647.447 495.971 656.012 512.259 641.667 520.154C622.167 530.917 604.663 542.634 590.401 555.89C583.375 562.413 569.862 563.078 562.211 556.97C545.788 543.839 527.286 531.54 506.58 520.154C492.235 512.218 500.759 495.929 518.887 496.636Z" fill="#231F20"/>
<path d="M247.134 299.885L540.509 321.575L487.455 256.337L345.799 231.738L274.825 269.759L247.134 299.885Z" fill="#FED7B3"/>
<path d="M224.196 293.287L223.786 297.422L522.558 327.015L522.968 322.88L224.196 293.287Z" fill="#231F20"/>
<path d="M907.559 297.435L614.6 324.112L666.489 258.001L807.73 230.992L879.327 267.808L907.559 297.435Z" fill="#FED7B3"/>
<path d="M907.302 293.402L623.111 322.953L623.542 327.086L907.732 297.535L907.302 293.402Z" fill="#231F20"/>
<path d="M617.635 471.328H579.882V475.483H617.635V471.328Z" fill="#231F20"/>
<path d="M491.653 1145.94H436.479C423.299 1145.94 412.613 1156.62 412.613 1169.79V1188.16C412.613 1201.33 423.299 1212.01 436.479 1212.01H491.653" fill="#FCC189"/>
<path d="M491.653 1213.59H436.479C422.467 1213.59 411.033 1202.2 411.033 1188.16V1169.79C411.033 1155.79 422.426 1144.36 436.479 1144.36H491.653V1147.48H436.479C424.172 1147.48 414.152 1157.49 414.152 1169.79V1188.16C414.152 1200.46 424.172 1210.47 436.479 1210.47H491.653V1213.59Z" fill="#231F20"/>
<path d="M642.707 1145.94H697.881C711.061 1145.94 721.747 1156.62 721.747 1169.79V1188.16C721.747 1201.33 711.061 1212.01 697.881 1212.01H642.707" fill="#FCC189"/>
<path d="M697.839 1213.59H642.665V1210.47H697.839C710.146 1210.47 720.167 1200.46 720.167 1188.16V1169.79C720.167 1157.49 710.146 1147.48 697.839 1147.48H642.665V1144.36H697.839C711.851 1144.36 723.285 1155.74 723.285 1169.79V1188.16C723.285 1202.16 711.893 1213.59 697.839 1213.59Z" fill="#231F20"/>
</svg>
