<?xml version="1.0" encoding="UTF-8"?>
<svg xmlns="http://www.w3.org/2000/svg" xmlns:xlink="http://www.w3.org/1999/xlink" viewBox="0 0 1178.6 1420.81">
  <defs>
    <style>
      .cls-1 {
        mask: url(#mask-1);
      }

      .cls-2 {
        fill: #231f20;
      }

      .cls-3 {
        fill: #a5764d;
      }

      .cls-4 {
        fill: #fff;
      }

      .cls-5 {
        mask: url(#mask);
      }

      .cls-6 {
        opacity: .41;
      }

      .cls-7 {
        stroke: #fcc189;
        stroke-width: 80px;
      }

      .cls-7, .cls-8 {
        fill: none;
        stroke-linecap: round;
        stroke-miterlimit: 10;
      }

      .cls-9 {
        mask: url(#mask-2);
      }

      .cls-8 {
        stroke: #231f20;
        stroke-width: 89px;
      }

      .cls-10 {
        fill: #fcc189;
      }

      .cls-11 {
        fill: #fed7b4;
      }
    </style>
    <mask id="mask" x="492.67" y="923" width="83.32" height="460.74" maskUnits="userSpaceOnUse">
      <g id="mask0_35406_3843" data-name="mask0 35406 3843">
        <path class="cls-4" d="M551.09,1009.01c-1.25-3.41-1.91-7.31-1.83-11.64,1.21-4.78,2.45-9.43,3.87-14.09,1.91-1.33,3.62-2.66,5.28-4.03-16.17.21-32.43-10.06-32.31-30.87.04-8.48,1.25-17.54-2.04-25.39-.91,3.37-1.87,6.4-3.08,8.98-1.29,4.07-2.74,8.23-4.49,12.42-1.41,4.36-2.79,8.77-4.12,13.17-2.66,8.85-5.16,17.78-7.4,26.89,3.58,3.28,7.15,6.61,10.48,9.68,3.7,6.15,8.48,11.68,14.01,16.16v59.67c-2.49,33.24-2.49,73.22,0,103.3v163.93c0,12.76,6.07,24.14,15.43,31.45-.04-.74-.21-1.45-.21-2.24.25-58.96,1.66-119.05,5.95-178.68.38-4.98.79-9.93,1.58-14.79,22.78-29.71,30.77-69.68,17.01-109.86-.5-4.57-1.08-9.1-1.83-13.71.79-3.57,1.71-7.23,2.74-10.89,1.04-3.66,2.12-7.35,3.37-11.05-9.85-2.04-18.67-8.14-22.37-18.41h-.04Z"/>
      </g>
    </mask>
    <mask id="mask-1" x="704.64" y="894.95" width="64.36" height="488.79" maskUnits="userSpaceOnUse">
      <g id="mask1_35406_3843" data-name="mask1 35406 3843">
        <path class="cls-4" d="M762.14,931.14c-3.95-6.48-9.23-17.95-15.43-29-11.77,39.97-22.12,80.28-30.39,120.59-1.04,5.03-2.95,9.02-5.41,12.3-1.16,2.2-2.54,4.28-4.24,6.19,10.44,34.41,11.27,74.26,9.48,102.64-2.49,39.4-5.53,78.54-6.24,118.06-.33,18.11-12.47,72.38,1.25,84.97,9.94,9.1,11.68,19.99,8.65,29.63,19.58-3.12,33.68-20.99,33.68-41.06v-332.25c9.61-10.89,15.51-25.26,15.51-41.01v-19.2c-2.16-3.91-4.41-7.85-6.86-11.84Z"/>
      </g>
    </mask>
    <mask id="mask-2" x="124.75" y="191.72" width="930.57" height="1012.92" maskUnits="userSpaceOnUse">
      <g id="mask2_35406_3843" data-name="mask2 35406 3843">
        <path class="cls-4" d="M953.81,221.55l-166.19,106.42c-35.67,14.38-253.54,14-288.84-1.12l-188.43-100.77c-100.16-42.8-94.96,73.63-85.61,182.08l20.42,236.31c3.53,39.89,21.91,75.17,49.52,103.97,40.87,42.72,98.5,65.15,157.62,65.15h9.36c-12.31,22.73-23.03,46.29-32.18,70.6l-22.66-24.56s-.17-.12-.25-.21c-2.41,6.81-6.82,12.76-13.51,15.87-17.13,8.02-32.14,19.07-48.85,27.67-6.49,12.3-19.46,20.44-35.05,14.34-35.67-14-60.33-38.48-90.64-60.71-29.27-21.48-48.9-34.78-54.51-70.22l-4.82,4.82c-13.85,13.84-12.97,36.48,1.91,49.2l142.9,122.04,8.73,7.52c6.49,5.44,16.09,4.74,21.54-1.74,13.26-15.67,35.67-42.22,52.39-62.04,5.7-6.65,15.51-7.27,21.91-1.37,2.95,2.7,6.49,5.98,10.39,9.6-25.11,79.41-33.22,164.96-23.37,248.11,1.96,16.41,13.64,29.17,28.57,33.53-3.04-23.97-1-47.7.37-72.3,2-36.11,2.87-71.97,9.44-107.71,6.69-36.44,14.84-74.59,27.03-109.62,11.68-33.58,28.65-64.99,40.29-98.6,0-.08.04-.12.08-.17-9.27-15.17-21.08-19.61-40.04-22.98-31.56-5.61-64.36-6.65-89.85-28.8-27.27-23.73-36.84-59.42-41.95-93.83-5.4-36.23-5.65-72.68-15.18-108.24-10.1-37.73-17.71-75.29-22.7-114.06-4.82-37.56-26.24-121.54,33.8-125.07,27.52-1.62,61.08,17.2,84.61,29.04,36.92,18.53,71.39,43.88,110.64,57.43,79.95,27.63,183.77,1.87,261.86-21.19,31.31-9.27,65.28-22.81,95.26-21.07,17.17-10.18,32.76-30.67,51.06-36.61,21.58-6.98,42.99.21,54.76,19.7,25.61,42.26,9.65,113.48,7.36,158.77-3.45,68.98.21,140.66-49.15,195.71-22.33,24.89-51.14,40.39-79.75,56.26-19.46,23.35-42.87,42.3-74.8,48.24-1.62.29-3.28.42-4.91.5-4.36,12.17-8.65,24.39-12.81,36.69,11.52,10.22,20.04,23.35,29.06,38.89,16.51,28.42,36.01,55.47,46.86,86.8,25.2,73.01,23.62,163.3,18.34,240.79,16.76-3.61,29.94-17.7,31.47-35.56,7.36-86.51-4.57-174.98-34.47-255.8-12.97-34.86-28.98-68.15-48.02-99.64h4.41c54.88,0,108.73-19.45,148.81-56.84,31.27-29.17,52.89-65.9,57.67-108.12l27.19-239.18c12.39-108.58,4.16-228.96-97.21-187.9l.12-.04Z"/>
      </g>
    </mask>
  </defs>
  <g id="Layer_3" data-name="Layer 3">
    <g>
      <path class="cls-10" d="M556.33,1041.3c3.41-.6,5.75-3.79,5.26-7.23l-30.85-228.7c-1.08-8.11-8.31-13.87-16.42-13.16-16.1,1.47-42.36,3.84-64.95,5.89-8.34.76-15.72-5.31-16.5-13.62-3.47-35.74-10.41-106.5-14.58-149.58-1.89-19.42-19.95-33.07-39.17-29.67l-12.1,2.14c-19.22,3.39-31.48,22.45-26.58,41.35l47.19,181.96,2.87,11.13c2.14,8.19,10.47,13.1,18.63,10.95,19.79-5.23,53.43-14.15,78.48-20.82,8.47-2.24,16.87,2.87,18.77,11.4,10.65,48.26,42.52,193,42.52,193,.75,3.36,4.03,5.56,7.42,4.99l.02-.03Z"/>
      <path class="cls-2" d="M550.29,1041.95c-1.7-1.19-2.98-3-3.45-5.15l-42.52-193c-.78-3.53-2.86-6.51-5.94-8.41-3.05-1.88-6.72-2.37-10.26-1.44l-78.48,20.82c-4.48,1.18-9.16.54-13.15-1.8-4.02-2.3-6.88-6.13-8.04-10.64l-50.08-193.06c-2.5-9.56-.86-19.82,4.5-28.13,5.36-8.32,13.99-14.05,23.71-15.77l12.1-2.14c9.73-1.72,19.91.69,27.73,6.71,7.96,6.02,12.9,14.85,13.89,24.82l14.58,149.58c.7,7.13,7.1,12.42,14.24,11.78l64.95-5.89c9.22-.85,17.46,5.72,18.68,14.94l30.85,228.7c.63,4.54-2.45,8.73-6.97,9.53-2.32.41-4.6-.17-6.37-1.41l.02-.03ZM501.47,832.43c3.54,2.48,5.95,6.14,6.93,10.48l42.52,193c.5,2.33,2.73,3.79,5.05,3.38,2.32-.41,3.87-2.57,3.58-4.9l-30.85-228.69c-.94-7-7.18-12.01-14.19-11.34l-64.95,5.89c-9.43.86-17.86-6.1-18.75-15.49l-14.58-149.58c-.84-8.81-5.21-16.57-12.22-21.93-7.07-5.35-15.74-7.46-24.48-5.91l-12.1,2.14c-8.74,1.54-16.16,6.5-20.96,13.94-4.8,7.44-6.19,16.26-3.98,24.85l50.08,193.06c.9,3.42,3.06,6.29,6.12,8.08,3.03,1.76,6.58,2.27,9.97,1.34l78.48-20.82c4.65-1.21,9.42-.56,13.47,1.92l.89.62-.03-.02Z"/>
    </g>
  </g>
  <g id="Layer_6" data-name="Layer 6">
    <g>
      <path class="cls-8" d="M759.56,840.52c13.37,24.25,102.07,79.78,137.95,86.68s44.81-32.17,82.72-174.64"/>
      <path class="cls-7" d="M759.56,840.52c13.37,24.25,102.07,79.78,137.95,86.68s44.81-32.17,82.72-174.64"/>
    </g>
    <g>
      <path class="cls-8" d="M504.69,840.52c-13.37,24.25-102.07,79.78-137.95,86.68-36.51,7.01-44.81-32.17-82.72-174.64"/>
      <path class="cls-7" d="M504.69,840.52c-13.37,24.25-102.07,79.78-137.95,86.68-36.51,7.01-44.81-32.17-82.72-174.64"/>
    </g>
  </g>
  <g id="Layer_2" data-name="Layer 2">
    <g>
      <path class="cls-10" d="M766.41,751.71c-.65-.83-1.28-1.66-1.94-2.49v-15.75c0-34.2-27.73-62.04-62.08-62.04h-138.33c-34.3,0-62.08,27.8-62.08,62.04v8.06c-.98,1.33-1.93,2.67-2.9,4.01v167.76c.95-2.54,1.9-5.07,2.9-7.59v64.03c0,19.41,8.94,36.77,22.95,48.12v326.9c0,23.39,20.08,42.09,43.95,39.81,20.79-2,36.05-20.66,36.05-41.51v-311.32h64.03v313.06c0,23.39,20.08,42.09,43.95,39.81,20.79-2,36.05-20.65,36.05-41.51v-332.26c9.6-10.85,15.51-25.26,15.51-41.01v-70.06c.65,1.37,1.3,2.75,1.94,4.13v-152.19Z"/>
      <path class="cls-2" d="M504.02,742.25v-8.77c0-33.08,26.9-59.96,60-59.96h138.33c33.1,0,60,26.88,60,59.96v16.5l.46.58c1.22,1.53,2.4,3.08,3.6,4.62v-25.18c-1.81-33.75-29.84-60.64-64.06-60.64h-138.33c-35.38,0-64.16,28.75-64.16,64.11v7.4c-.26.36-.51.72-.78,1.08v7.08c1.5-2.09,2.99-4.18,4.52-6.25l.42-.54Z"/>
      <path class="cls-2" d="M766.41,899.23c-.05-.11-.1-.22-.15-.32l-3.95-8.31v79.24c0,14.59-5.32,28.67-15.01,39.64l-.5.58v333.05c0,20.32-15.01,37.65-34.18,39.48-10.85,1.03-21.2-2.41-29.23-9.69-7.9-7.14-12.43-17.41-12.43-28.04v-315.14h-68.15v313.39c0,20.32-15.01,37.65-34.18,39.48-10.85,1.08-21.21-2.37-29.23-9.64-7.9-7.15-12.43-17.42-12.43-28.05v-327.89l-.75-.62c-14.09-11.47-22.2-28.42-22.2-46.54v-75.04l-3.99,10.18c-.32.8-.63,1.6-.94,2.41v11.92c.26-.72.52-1.44.78-2.15v52.73c0,19.03,8.36,36.9,22.95,49.11v325.9c0,11.8,5.03,23.14,13.8,31.12,7.86,7.11,17.75,10.93,28.23,10.93h.04c1.37,0,2.79-.08,4.2-.21,21.25-2.04,37.92-21.19,37.92-43.59v-309.23h59.83v310.98c0,11.8,5.03,23.14,13.8,31.12,8.9,8.06,20.37,11.88,32.43,10.72,21.25-2.04,37.92-21.19,37.92-43.59v-331.51c9.29-10.78,14.67-24.28,15.41-38.43v-73.98Z"/>
      <path class="cls-11" d="M708.04,778.77h-140.16c-11.64,0-21.08,9.43-21.08,21.07v170.66c0,11.63,9.44,21.07,21.08,21.07h140.16c11.64,0,21.08-9.43,21.08-21.07v-170.66c0-11.64-9.44-21.07-21.08-21.07Z"/>
      <g class="cls-5">
        <g>
          <path class="cls-2" d="M549.55,962.56c1.17,0,2.12-.95,2.12-2.12s-.95-2.12-2.12-2.12-2.12.95-2.12,2.12.95,2.12,2.12,2.12Z"/>
          <path class="cls-2" d="M549.55,1151c1.17,0,2.12-.95,2.12-2.12s-.95-2.12-2.12-2.12-2.12.95-2.12,2.12.95,2.12,2.12,2.12Z"/>
          <path class="cls-2" d="M562.07,1100.05c2.59,0,4.7-2.1,4.7-4.69s-2.1-4.7-4.7-4.7-4.7,2.1-4.7,4.7,2.1,4.69,4.7,4.69Z"/>
          <path class="cls-2" d="M549.55,1056.76c1.17,0,2.12-.95,2.12-2.12s-.95-2.12-2.12-2.12-2.12.95-2.12,2.12.95,2.12,2.12,2.12Z"/>
          <path class="cls-2" d="M562.07,1005.86c2.59,0,4.7-2.1,4.7-4.7s-2.1-4.7-4.7-4.7-4.7,2.1-4.7,4.7,2.1,4.7,4.7,4.7Z"/>
          <path class="cls-2" d="M501.49,1083.39c-.83,0-1.64.12-2.4.34v16.94c.76.22,1.57.34,2.4.34,4.87,0,8.81-3.94,8.81-8.81s-3.95-8.81-8.81-8.81Z"/>
          <path class="cls-2" d="M501.49,989.19c-.83,0-1.64.12-2.4.34v16.94c.76.22,1.57.34,2.4.34,4.87,0,8.81-3.94,8.81-8.81s-3.95-8.81-8.81-8.81Z"/>
          <path class="cls-2" d="M549.55,1339.49c1.17,0,2.12-.95,2.12-2.12s-.95-2.12-2.12-2.12-2.12.95-2.12,2.12.95,2.12,2.12,2.12Z"/>
          <path class="cls-2" d="M562.07,1288.54c2.59,0,4.7-2.1,4.7-4.69s-2.1-4.7-4.7-4.7-4.7,2.1-4.7,4.7,2.1,4.69,4.7,4.69Z"/>
          <path class="cls-2" d="M549.55,1245.24c1.17,0,2.12-.95,2.12-2.12s-.95-2.11-2.12-2.11-2.12.94-2.12,2.11.95,2.12,2.12,2.12Z"/>
          <path class="cls-2" d="M562.07,1194.3c2.59,0,4.7-2.1,4.7-4.7s-2.1-4.69-4.7-4.69-4.7,2.1-4.7,4.69,2.1,4.7,4.7,4.7Z"/>
          <path class="cls-2" d="M501.49,1289.49c4.87,0,8.81-3.94,8.81-8.8s-3.95-8.81-8.81-8.81-8.82,3.94-8.82,8.81,3.95,8.8,8.82,8.8Z"/>
          <path class="cls-2" d="M501.49,1177.64c-.83,0-1.64.12-2.4.34v16.94c.76.22,1.57.34,2.4.34,4.87,0,8.81-3.95,8.81-8.81s-3.95-8.81-8.81-8.81Z"/>
          <path class="cls-2" d="M501.49,1383.74c4.87,0,8.81-3.95,8.81-8.81s-3.95-8.81-8.81-8.81-8.82,3.94-8.82,8.81,3.95,8.81,8.82,8.81Z"/>
        </g>
      </g>
      <g class="cls-1">
        <g>
          <path class="cls-2" d="M713.66,912.57c4.87,0,8.81-3.94,8.81-8.81s-3.95-8.81-8.81-8.81-8.82,3.94-8.82,8.81,3.95,8.81,8.82,8.81Z"/>
          <path class="cls-2" d="M761.68,1151c1.17,0,2.12-.95,2.12-2.12s-.95-2.12-2.12-2.12-2.12.95-2.12,2.12.95,2.12,2.12,2.12Z"/>
          <path class="cls-2" d="M761.68,1056.76c1.17,0,2.12-.95,2.12-2.12s-.95-2.12-2.12-2.12-2.12.95-2.12,2.12.95,2.12,2.12,2.12Z"/>
          <path class="cls-2" d="M713.66,1101c4.87,0,8.81-3.94,8.81-8.81s-3.95-8.81-8.81-8.81-8.82,3.94-8.82,8.81,3.95,8.81,8.82,8.81Z"/>
          <path class="cls-2" d="M761.68,1339.49c1.17,0,2.12-.95,2.12-2.12s-.95-2.12-2.12-2.12-2.12.95-2.12,2.12.95,2.12,2.12,2.12Z"/>
          <path class="cls-2" d="M761.68,1245.24c1.17,0,2.12-.95,2.12-2.12s-.95-2.11-2.12-2.11-2.12.94-2.12,2.11.95,2.12,2.12,2.12Z"/>
          <path class="cls-2" d="M713.66,1289.49c4.87,0,8.81-3.94,8.81-8.8s-3.95-8.81-8.81-8.81-8.82,3.94-8.82,8.81,3.95,8.8,8.82,8.8Z"/>
          <path class="cls-2" d="M713.66,1195.26c4.87,0,8.81-3.95,8.81-8.81s-3.95-8.81-8.81-8.81-8.82,3.94-8.82,8.81,3.95,8.81,8.82,8.81Z"/>
          <path class="cls-2" d="M713.66,1383.74c4.87,0,8.81-3.95,8.81-8.81s-3.95-8.81-8.81-8.81-8.82,3.94-8.82,8.81,3.95,8.81,8.82,8.81Z"/>
        </g>
      </g>
    </g>
  </g>
  <g id="Layer_4" data-name="Layer 4">
    <path class="cls-10" d="M554.45,1318.75h-55.17c-13.18,0-23.87,10.68-23.87,23.85v18.37c0,13.17,10.69,23.85,23.87,23.85h55.17"/>
    <path class="cls-2" d="M554.45,1386.4h-55.17c-14.01,0-25.45-11.39-25.45-25.43v-18.37c0-14,11.39-25.43,25.45-25.43h55.17v3.12h-55.17c-12.31,0-22.33,10.01-22.33,22.31v18.37c0,12.3,10.02,22.31,22.33,22.31h55.17v3.12Z"/>
  </g>
  <g id="Layer_5" data-name="Layer 5">
    <path class="cls-10" d="M705.51,1318.75h55.17c13.18,0,23.87,10.68,23.87,23.85v18.37c0,13.17-10.69,23.85-23.87,23.85h-55.17"/>
    <path class="cls-2" d="M760.64,1386.4h-55.17v-3.12h55.17c12.31,0,22.33-10.01,22.33-22.31v-18.37c0-12.3-10.02-22.31-22.33-22.31h-55.17v-3.12h55.17c14.01,0,25.45,11.38,25.45,25.43v18.37c0,14-11.39,25.43-25.45,25.43Z"/>
  </g>
  <g id="Layer_1" data-name="Layer 1">
    <path class="cls-10" d="M447.77,812.47h364.97c54.92,0,108.73-19.36,148.85-56.84,31.27-29.17,52.89-65.86,57.71-108.12l27.19-239.14c12.35-108.58,4.16-228.96-97.21-187.98l-166.23,106.46c-35.59,14.38-253.5,14-288.8-1.12l-188.47-100.77c-100.12-42.8-94.92,73.63-85.57,182.08l20.42,236.27c3.45,39.89,21.87,75.17,49.48,103.97,40.87,42.67,98.54,65.15,157.66,65.15v.04Z"/>
    <ellipse class="cls-2" cx="636.22" cy="764.99" rx="56.94" ry="30.4"/>
    <path class="cls-2" d="M812.74,814.55h-364.97c-61.08,0-119.12-23.98-159.16-65.82-29.44-30.75-46.73-67.11-50.02-105.21l-20.42-236.27c-6.9-80.07-10.77-160.35,23.91-185.41,15.18-10.97,36.92-10.55,64.53,1.29l188.64,100.81c34.05,14.54,251.51,15.38,287.06,1l165.9-106.25c29.4-11.93,52.85-11.26,70.06,1.83,39.38,29.92,38.25,118.8,30.35,188.15l-27.19,239.14c-4.57,40.22-24.74,78.08-58.33,109.41-39.67,37.02-93.05,57.42-150.26,57.42l-.08-.08ZM268.48,217.89c-9.35,0-17.34,2.41-24.03,7.27-32.89,23.77-28.98,102.8-22.2,181.71l20.41,236.27c3.2,37.15,20.12,72.68,48.9,102.72,39.29,41.01,96.21,64.53,156.17,64.53h364.97c56.17,0,108.56-19.99,147.44-56.3,32.85-30.67,52.6-67.61,57.04-106.83l27.19-239.14c7.78-68.23,9.06-155.61-28.73-184.37-15.97-12.13-38.04-12.63-65.65-1.45l-165.9,106.25c-37.67,15.29-254.79,14.42-290.76-.96l-188.6-100.81c-13.89-5.94-25.95-8.89-36.3-8.89h.04Z"/>
    <g class="cls-9">
      <g>
        <path class="cls-2" d="M1050.69,503.19c2.27,0,4.12-1.84,4.12-4.11s-1.84-4.11-4.12-4.11-4.12,1.84-4.12,4.11,1.84,4.11,4.12,4.11Z"/>
        <path class="cls-2" d="M870.66,495.76c4.98,0,9.02-4.04,9.02-9.02s-4.04-9.02-9.02-9.02-9.02,4.04-9.02,9.02,4.04,9.02,9.02,9.02Z"/>
        <path class="cls-2" d="M754.07,497.62c9.37,0,16.96-7.59,16.96-16.95s-7.59-16.95-16.96-16.95-16.96,7.59-16.96,16.95,7.59,16.95,16.96,16.95Z"/>
        <path class="cls-2" d="M1050.69,321.86c2.27,0,4.12-1.84,4.12-4.11s-1.84-4.11-4.12-4.11-4.12,1.84-4.12,4.11,1.84,4.11,4.12,4.11Z"/>
        <path class="cls-2" d="M846.54,412.53c2.27,0,4.12-1.84,4.12-4.11s-1.84-4.11-4.12-4.11-4.12,1.84-4.12,4.11,1.84,4.11,4.12,4.11Z"/>
        <path class="cls-2" d="M958.22,406.96c9.37,0,16.96-7.59,16.96-16.95s-7.6-16.95-16.96-16.95-16.96,7.59-16.96,16.95,7.6,16.95,16.96,16.95Z"/>
        <path class="cls-2" d="M870.66,314.42c4.98,0,9.02-4.04,9.02-9.02s-4.04-9.02-9.02-9.02-9.02,4.04-9.02,9.02,4.04,9.02,9.02,9.02Z"/>
        <path class="cls-2" d="M754.07,316.29c9.37,0,16.96-7.59,16.96-16.95s-7.59-16.95-16.96-16.95-16.96,7.59-16.96,16.95,7.59,16.95,16.96,16.95Z"/>
        <path class="cls-2" d="M846.54,231.19c2.27,0,4.12-1.84,4.12-4.11s-1.84-4.11-4.12-4.11-4.12,1.84-4.12,4.11,1.84,4.11,4.12,4.11Z"/>
        <path class="cls-2" d="M958.22,225.62c9.37,0,16.96-7.59,16.96-16.95s-7.6-16.95-16.96-16.95-16.96,7.59-16.96,16.95,7.6,16.95,16.96,16.95Z"/>
        <path class="cls-2" d="M1050.69,684.53c2.27,0,4.12-1.84,4.12-4.11s-1.84-4.11-4.12-4.11-4.12,1.84-4.12,4.11,1.84,4.11,4.12,4.11Z"/>
        <path class="cls-2" d="M846.54,775.2c2.27,0,4.12-1.84,4.12-4.11s-1.84-4.11-4.12-4.11-4.12,1.84-4.12,4.11,1.84,4.11,4.12,4.11Z"/>
        <path class="cls-2" d="M958.22,769.63c9.37,0,16.96-7.59,16.96-16.95s-7.6-16.95-16.96-16.95-16.96,7.59-16.96,16.95,7.6,16.95,16.96,16.95Z"/>
        <path class="cls-2" d="M870.66,677.1c4.98,0,9.02-4.04,9.02-9.02s-4.04-9.02-9.02-9.02-9.02,4.04-9.02,9.02,4.04,9.02,9.02,9.02Z"/>
        <path class="cls-2" d="M754.07,678.96c9.37,0,16.96-7.59,16.96-16.95s-7.59-16.95-16.96-16.95-16.96,7.59-16.96,16.95,7.59,16.95,16.96,16.95Z"/>
        <path class="cls-2" d="M846.54,593.86c2.27,0,4.12-1.84,4.12-4.11s-1.84-4.11-4.12-4.11-4.12,1.84-4.12,4.11,1.84,4.11,4.12,4.11Z"/>
        <path class="cls-2" d="M958.22,588.29c9.37,0,16.96-7.59,16.96-16.95s-7.6-16.95-16.96-16.95-16.96,7.59-16.96,16.95,7.6,16.95,16.96,16.95Z"/>
        <path class="cls-2" d="M642.43,503.19c2.27,0,4.12-1.84,4.12-4.11s-1.84-4.11-4.12-4.11-4.12,1.84-4.12,4.11,1.84,4.11,4.12,4.11Z"/>
        <path class="cls-2" d="M666.55,405.09c4.98,0,9.02-4.04,9.02-9.02s-4.04-9.02-9.02-9.02-9.02,4.04-9.02,9.02,4.04,9.02,9.02,9.02Z"/>
        <path class="cls-2" d="M462.4,495.76c4.98,0,9.02-4.04,9.02-9.02s-4.04-9.02-9.02-9.02-9.02,4.04-9.02,9.02,4.04,9.02,9.02,9.02Z"/>
        <path class="cls-2" d="M345.82,497.62c9.37,0,16.96-7.59,16.96-16.95s-7.59-16.95-16.96-16.95-16.96,7.59-16.96,16.95,7.6,16.95,16.96,16.95Z"/>
        <path class="cls-2" d="M642.43,321.86c2.27,0,4.12-1.84,4.12-4.11s-1.84-4.11-4.12-4.11-4.12,1.84-4.12,4.11,1.84,4.11,4.12,4.11Z"/>
        <path class="cls-2" d="M666.55,223.75c4.98,0,9.02-4.04,9.02-9.02s-4.04-9.02-9.02-9.02-9.02,4.04-9.02,9.02,4.04,9.02,9.02,9.02Z"/>
        <path class="cls-2" d="M438.28,412.53c2.27,0,4.12-1.84,4.12-4.11s-1.84-4.11-4.12-4.11-4.12,1.84-4.12,4.11,1.84,4.11,4.12,4.11Z"/>
        <path class="cls-2" d="M549.96,406.96c9.37,0,16.96-7.59,16.96-16.95s-7.6-16.95-16.96-16.95-16.96,7.59-16.96,16.95,7.6,16.95,16.96,16.95Z"/>
        <path class="cls-2" d="M462.4,314.42c4.98,0,9.02-4.04,9.02-9.02s-4.04-9.02-9.02-9.02-9.02,4.04-9.02,9.02,4.04,9.02,9.02,9.02Z"/>
        <path class="cls-2" d="M345.82,316.29c9.37,0,16.96-7.59,16.96-16.95s-7.59-16.95-16.96-16.95-16.96,7.59-16.96,16.95,7.6,16.95,16.96,16.95Z"/>
        <path class="cls-2" d="M438.28,231.19c2.27,0,4.12-1.84,4.12-4.11s-1.84-4.11-4.12-4.11-4.12,1.84-4.12,4.11,1.84,4.11,4.12,4.11Z"/>
        <path class="cls-2" d="M549.96,225.62c9.37,0,16.96-7.59,16.96-16.95s-7.6-16.95-16.96-16.95-16.96,7.59-16.96,16.95,7.6,16.95,16.96,16.95Z"/>
        <path class="cls-2" d="M666.55,767.76c4.98,0,9.02-4.04,9.02-9.02s-4.04-9.02-9.02-9.02-9.02,4.04-9.02,9.02,4.04,9.02,9.02,9.02Z"/>
        <path class="cls-2" d="M642.43,684.53c2.27,0,4.12-1.84,4.12-4.11s-1.84-4.11-4.12-4.11-4.12,1.84-4.12,4.11,1.84,4.11,4.12,4.11Z"/>
        <path class="cls-2" d="M666.55,586.42c4.98,0,9.02-4.04,9.02-9.02s-4.04-9.02-9.02-9.02-9.02,4.04-9.02,9.02,4.04,9.02,9.02,9.02Z"/>
        <path class="cls-2" d="M438.28,775.2c2.27,0,4.12-1.84,4.12-4.11s-1.84-4.11-4.12-4.11-4.12,1.84-4.12,4.11,1.84,4.11,4.12,4.11Z"/>
        <path class="cls-2" d="M549.96,769.63c9.37,0,16.96-7.59,16.96-16.95s-7.6-16.95-16.96-16.95-16.96,7.59-16.96,16.95,7.6,16.95,16.96,16.95Z"/>
        <path class="cls-2" d="M462.4,677.1c4.98,0,9.02-4.04,9.02-9.02s-4.04-9.02-9.02-9.02-9.02,4.04-9.02,9.02,4.04,9.02,9.02,9.02Z"/>
        <path class="cls-2" d="M345.82,678.96c9.37,0,16.96-7.59,16.96-16.95s-7.59-16.95-16.96-16.95-16.96,7.59-16.96,16.95,7.6,16.95,16.96,16.95Z"/>
        <path class="cls-2" d="M438.28,593.86c2.27,0,4.12-1.84,4.12-4.11s-1.84-4.11-4.12-4.11-4.12,1.84-4.12,4.11,1.84,4.11,4.12,4.11Z"/>
        <path class="cls-2" d="M549.96,588.29c9.37,0,16.96-7.59,16.96-16.95s-7.6-16.95-16.96-16.95-16.96,7.59-16.96,16.95,7.6,16.95,16.96,16.95Z"/>
        <path class="cls-2" d="M234.18,503.19c2.27,0,4.12-1.84,4.12-4.11s-1.84-4.11-4.12-4.11-4.12,1.84-4.12,4.11,1.84,4.11,4.12,4.11Z"/>
        <path class="cls-2" d="M258.29,405.09c4.98,0,9.02-4.04,9.02-9.02s-4.04-9.02-9.02-9.02-9.02,4.04-9.02,9.02,4.04,9.02,9.02,9.02Z"/>
        <path class="cls-2" d="M234.18,321.86c2.27,0,4.12-1.84,4.12-4.11s-1.84-4.11-4.12-4.11-4.12,1.84-4.12,4.11,1.84,4.11,4.12,4.11Z"/>
        <path class="cls-2" d="M258.29,223.75c4.98,0,9.02-4.04,9.02-9.02s-4.04-9.02-9.02-9.02-9.02,4.04-9.02,9.02,4.04,9.02,9.02,9.02Z"/>
        <path class="cls-2" d="M141.71,406.96c9.37,0,16.96-7.59,16.96-16.95s-7.6-16.95-16.96-16.95-16.96,7.59-16.96,16.95,7.59,16.95,16.96,16.95Z"/>
        <path class="cls-2" d="M141.71,225.62c9.37,0,16.96-7.59,16.96-16.95s-7.6-16.95-16.96-16.95-16.96,7.59-16.96,16.95,7.59,16.95,16.96,16.95Z"/>
        <path class="cls-2" d="M234.18,684.53c2.27,0,4.12-1.84,4.12-4.11s-1.84-4.11-4.12-4.11-4.12,1.84-4.12,4.11,1.84,4.11,4.12,4.11Z"/>
        <path class="cls-2" d="M258.29,586.42c4.98,0,9.02-4.04,9.02-9.02s-4.04-9.02-9.02-9.02-9.02,4.04-9.02,9.02,4.04,9.02,9.02,9.02Z"/>
        <path class="cls-2" d="M141.71,588.29c9.37,0,16.96-7.59,16.96-16.95s-7.6-16.95-16.96-16.95-16.96,7.59-16.96,16.95,7.59,16.95,16.96,16.95Z"/>
      </g>
    </g>
    <path class="cls-10" d="M498.78,787.33l61.37,43.88c12.47,6.11,26.19,9.31,40.12,9.31h79.54c24.11,0,47.27-9.6,64.32-26.64l29.52-29.5"/>
    <path class="cls-2" d="M679.77,842.6h-79.54c-14.14,0-28.31-3.28-41.04-9.52l-61.66-44.09,2.41-3.37,61.37,43.88c11.85,5.78,25.4,8.93,38.92,8.93h79.54c23.74,0,46.07-9.23,62.87-26.01l29.52-29.5,2.95,2.95-29.52,29.5c-17.59,17.58-40.95,27.26-65.82,27.26v-.04Z"/>
    <path class="cls-11" d="M1009.49,580.44c-5.95,90.54-80.7,163.59-171.39,167.54-37.75,1.66-73.01-8.31-102.61-26.64-2.33-1.45-5.49-.46-6.32,2.16-7.98,26.18-32.31,45.13-61.12,45.13-13.6,0-26.32-4.24-36.63-11.59-10.31,7.27-22.95,11.59-36.71,11.59-27.52,0-50.98-17.41-59.87-41.93-.91-2.53-3.74-3.66-6.07-2.33-32.22,18.49-70.64,27.3-111.35,22.48-82.12-9.72-147.93-76.13-156.92-158.28-11.85-108.37,72.8-200.08,178.83-200.08,50.68,0,96.42,20.94,129.1,54.64,16.38,16.91,39.29,24.68,62.74,22.61,1.91-.17,3.83-.25,5.78-.25s3.99.08,5.95.29c22.2,2.08,43.49-8.02,59.17-23.85,32.6-32.99,77.88-53.44,127.93-53.44,103.36,0,186.31,87.14,179.49,191.93Z"/>
    <path class="cls-4" d="M446.93,733.81c85.33,0,154.5-69.13,154.5-154.41s-69.17-154.41-154.5-154.41-154.5,69.13-154.5,154.41,69.17,154.41,154.5,154.41Z"/>
    <path class="cls-2" d="M446.94,735.89c-86.36,0-156.58-70.22-156.58-156.49s70.27-156.49,156.58-156.49,156.58,70.22,156.58,156.49-70.27,156.49-156.58,156.49ZM446.94,427.07c-84.07,0-152.43,68.35-152.43,152.33s68.4,152.33,152.43,152.33,152.43-68.35,152.43-152.33-68.4-152.33-152.43-152.33Z"/>
    <path class="cls-2" d="M470.84,663.36c46.93,0,84.97-38.02,84.97-84.92s-38.04-84.92-84.97-84.92-84.97,38.02-84.97,84.92,38.04,84.92,84.97,84.92Z"/>
    <path class="cls-4" d="M820.22,733.81c85.33,0,154.5-69.13,154.5-154.41s-69.17-154.41-154.5-154.41-154.5,69.13-154.5,154.41,69.17,154.41,154.5,154.41Z"/>
    <path class="cls-2" d="M820.22,735.89c-86.36,0-156.58-70.22-156.58-156.49s70.27-156.49,156.58-156.49,156.58,70.22,156.58,156.49-70.27,156.49-156.58,156.49ZM820.22,427.07c-84.07,0-152.43,68.35-152.43,152.33s68.4,152.33,152.43,152.33,152.42-68.35,152.42-152.33-68.4-152.33-152.42-152.33Z"/>
    <path class="cls-2" d="M828.02,677.28c54.62,0,98.89-44.25,98.89-98.83s-44.28-98.83-98.89-98.83-98.89,44.25-98.89,98.83,44.28,98.83,98.89,98.83Z"/>
    <path class="cls-2" d="M594.37,773.66c-3.28,0-6.49-.29-9.65-.91-7.32-1.41-14.05-4.57-19.5-9.14l2.66-3.2c3.41,2.87,9.23,6.61,17.63,8.23,16.8,3.28,37.59-3.7,46.32-15.54,4.91-6.65,4.7-13.42,3.66-17.95l4.03-.96c1.25,5.36,1.5,13.42-4.37,21.36-8.11,10.97-24.78,18.03-40.83,18.03l.04.08Z"/>
    <path class="cls-2" d="M683.89,773.66c-16.05,0-32.72-7.06-40.83-18.03-5.86-7.94-5.61-16-4.37-21.36l4.03.96c-1.04,4.49-1.29,11.26,3.66,17.95,8.73,11.84,29.52,18.78,46.32,15.54,8.36-1.62,14.22-5.36,17.63-8.23l2.66,3.2c-5.45,4.53-12.18,7.69-19.5,9.14-3.12.62-6.36.91-9.65.91l.04-.08Z"/>
    <path class="cls-4" d="M591.79,772.83c-3.49-1.41-7.36-1.7-11.06-2.49-.17,0-.29-.17-.42-.21-1.37,0-2.79.12-4.16.08l-2,8.56,2.79,11.93,6.78,4.95,6.78-4.95,2.79-11.93-1.41-5.94h-.08Z"/>
    <path class="cls-2" d="M583.68,798.18l-8.61-6.27-3.08-13.13,2.49-10.68h1.66c.96.04,1.91,0,2.87,0h1.58l.75.25c1.04.21,2.08.37,3.08.54,2.62.46,5.32.87,7.94,1.91l.38.17.87.42,1.75,7.35-3.08,13.13-8.61,6.28v.04ZM578.78,789.45l4.91,3.57,4.91-3.57,2.49-10.68-1.04-4.36c-1.95-.67-4.08-1.04-6.32-1.41-1.16-.21-2.33-.37-3.49-.62l-.46-.12h-.62c-.46,0-.92.04-1.41.08l-1.54,6.48,2.49,10.68.08-.04Z"/>
    <path class="cls-4" d="M682.89,771.54l-1.7,7.23,2.79,11.93,6.78,4.94,6.78-4.94,2.79-11.93-1.91-8.23c-5.16.37-10.31.79-15.51,1Z"/>
    <path class="cls-2" d="M690.75,798.17l-8.61-6.27-3.08-13.13,2.16-9.22,1.58-.08c5.15-.21,10.27-.58,15.42-1l1.79-.12,2.45,10.43-3.08,13.13-8.61,6.27h-.04ZM685.84,789.45l4.91,3.57,4.91-3.57,2.49-10.68-1.41-6.03c-4.07.29-8.15.58-12.22.79l-1.25,5.24,2.49,10.68h.08Z"/>
    <path class="cls-4" d="M908.03,631.88c23.12,0,41.87-18.73,41.87-41.84s-18.75-41.84-41.87-41.84-41.87,18.73-41.87,41.84,18.75,41.84,41.87,41.84Z"/>
    <path class="cls-4" d="M373.65,628.35c23.12,0,41.87-18.73,41.87-41.84s-18.75-41.84-41.87-41.84-41.87,18.73-41.87,41.84,18.75,41.84,41.87,41.84Z"/>
    <g class="cls-6">
      <path class="cls-3" d="M242.08,258.7l18.29,98.73c.71,3.82,3.66,6.81,7.48,7.56l94.51,18.28c9.06,1.75,15.01-9.18,8.61-15.83l-112.8-117.05c-6.49-6.73-17.79-.96-16.09,8.27l18.29,98.73c.71,3.82,3.66,6.82,7.48,7.56l94.51,18.28c9.06,1.74,15.01-9.18,8.61-15.83l-112.8-117.05c-6.49-6.73-17.79-.96-16.09,8.27v.08Z"/>
    </g>
    <g class="cls-6">
      <path class="cls-3" d="M1011.69,258.24l-18.29,98.73c-.71,3.82-3.66,6.81-7.48,7.56l-94.51,18.28c-9.06,1.75-15.01-9.18-8.61-15.83l112.8-117.05c6.49-6.73,17.8-.96,16.09,8.27l-18.29,98.73c-.71,3.82-3.66,6.82-7.48,7.56l-94.51,18.28c-9.06,1.74-15.01-9.18-8.61-15.83l112.8-117.05c6.49-6.73,17.8-.96,16.09,8.27v.08Z"/>
    </g>
    <path class="cls-11" d="M697.57,693.05l13.1-19.78c2.7-4.11-.37-13.46-5.03-15.25l-22.08-8.48c-3.08-1.2-5.86-6.07-6.03-10.72-.21-4.53-2.83-9.31-5.86-10.64l-15.43-6.65"/>
    <path class="cls-2" d="M699.27,694.21l-3.45-2.28,13.1-19.78c.87-1.33.91-3.91.04-6.57-.87-2.74-2.54-4.99-4.12-5.61l-22.08-8.48c-3.91-1.5-7.15-7.02-7.36-12.55-.17-4.11-2.58-7.94-4.61-8.81l-15.43-6.65,1.66-3.82,15.42,6.65c3.78,1.62,6.9,7.11,7.11,12.47.17,4.11,2.62,8.06,4.7,8.85l22.08,8.48c2.83,1.08,5.28,4.15,6.57,8.23,1.25,3.91,1.04,7.69-.54,10.1l-13.1,19.78Z"/>
    <path class="cls-11" d="M572,690.76l-13.1-19.78c-2.7-4.11.37-13.46,5.03-15.25l22.08-8.48c3.08-1.2,5.86-6.07,6.03-10.72.21-4.53,2.83-9.31,5.86-10.64l15.42-6.65"/>
    <path class="cls-2" d="M570.26,691.92l-13.1-19.78c-1.58-2.41-1.79-6.19-.54-10.1,1.29-4.07,3.74-7.15,6.57-8.23l22.08-8.48c2.08-.79,4.53-4.74,4.7-8.85.21-5.36,3.37-10.85,7.11-12.47l15.43-6.65,1.66,3.82-15.42,6.65c-2.04.87-4.45,4.74-4.61,8.81-.25,5.53-3.45,11.05-7.36,12.55l-22.08,8.48c-1.58.62-3.24,2.87-4.12,5.61-.83,2.66-.83,5.24.04,6.57l13.1,19.78-3.45,2.29Z"/>
    <path class="cls-2" d="M581.69,669.44c36.92,1.5,73.76,1.54,110.47.04,18.09-.71,26.65,15.58,12.31,23.48-19.5,10.76-37,22.48-51.27,35.74-7.03,6.52-20.54,7.19-28.19,1.08-16.42-13.13-34.92-25.43-55.63-36.82-14.35-7.94-5.82-24.23,12.31-23.52Z"/>
    <path class="cls-2" d="M680.44,644.14h-37.75v4.15h37.75v-4.15Z"/>
  </g>
</svg>