<?xml version="1.0" encoding="UTF-8"?>
<svg id="Layer_1" data-name="Layer 1" xmlns="http://www.w3.org/2000/svg" viewBox="0 0 1178.6 1420.81">
  <defs>
    <style>
      .cls-1 {
        fill: #231f20;
      }

      .cls-2 {
        fill: #fff;
      }

      .cls-3 {
        opacity: .41;
      }

      .cls-4 {
        fill: #fcc189;
      }

      .cls-5 {
        fill: #fed7b3;
      }

      .cls-6 {
        fill: #a4754c;
      }
    </style>
  </defs>
  <g>
    <g>
      <path class="cls-4" d="M549.93,1037.26c2.45-2.45,2.53-6.39.18-8.94l-156.24-169.74h0c-5.53-6.01-14.76-6.62-21-1.36-12.34,10.41-32.51,27.44-49.82,42.04-6.39,5.39-15.9,4.64-21.33-1.72-23.32-27.29-69.5-81.33-97.61-114.22-12.68-14.84-35.27-15.68-49.07-1.88l-8.68,8.68c-13.8,13.8-12.91,36.43,1.92,49.11l142.85,122.08,8.73,7.46c6.43,5.49,16.07,4.74,21.52-1.72,13.2-15.64,35.65-42.22,52.37-62.03,5.64-6.68,15.45-7.32,21.88-1.4,36.36,33.47,145.36,133.81,145.36,133.81,2.55,2.35,6.49,2.26,8.94-.18h0Z"/>
      <path class="cls-1" d="M545.36,1041.24c-2.07,0-4.14-.75-5.78-2.26l-145.36-133.81c-2.68-2.47-6.09-3.75-9.67-3.48-3.57.22-6.84,1.89-9.21,4.69l-52.37,62.03c-2.99,3.54-7.17,5.7-11.78,6.07-4.64.36-9.13-1.08-12.68-4.11l-151.58-129.54c-7.51-6.42-12.04-15.76-12.43-25.64-.39-9.87,3.4-19.54,10.38-26.52l8.68-8.68c7-7,16.71-10.85,26.55-10.4,9.99.39,19.08,4.8,25.58,12.4l97.61,114.22c4.66,5.45,12.91,6.12,18.41,1.48l49.83-42.04c7.08-5.98,17.56-5.3,23.86,1.54l156.25,169.73c3.11,3.38,3,8.57-.25,11.82-1.67,1.67-3.85,2.51-6.03,2.51ZM385.37,897.5c4.31,0,8.41,1.61,11.66,4.6l145.36,133.81c1.74,1.61,4.4,1.54,6.06-.12,1.67-1.67,1.72-4.33.13-6.06l-156.25-169.73c-4.79-5.2-12.75-5.71-18.13-1.18l-49.83,42.04c-7.23,6.1-18.11,5.24-24.25-1.95l-97.61-114.22c-5.74-6.72-13.76-10.61-22.58-10.95-8.8-.32-17.17,2.92-23.45,9.19l-8.68,8.68c-6.26,6.26-9.52,14.58-9.17,23.42s4.24,16.89,10.98,22.64l151.58,129.54c2.69,2.3,6.14,3.4,9.64,3.12,3.5-.28,6.68-1.92,8.95-4.61l52.37-62.03c3.1-3.68,7.41-5.86,12.12-6.16.37-.02.73-.04,1.09-.04Z"/>
    </g>
    <circle class="cls-1" cx="225.84" cy="861.76" r="4.11"/>
  </g>
  <g>
    <path class="cls-4" d="M882.16,1167.92c-1.76,20.79-19.27,36.54-39.82,36.54-1.12,0-2.24,0-3.44-.16-21.99-1.84-38.3-21.19-36.46-43.18,6.4-74.85-3.92-151.29-29.75-221.26-5.04-13.59-10.63-26.95-16.87-40.06v70.05c0,15.75-5.92,30.15-15.51,41.02v332.27c0,20.88-15.25,39.53-36.03,41.53-23.84,2.29-43.93-16.42-43.93-39.79v-313.06h-63.97v311.32c0,20.88-15.25,39.53-36.03,41.53-23.84,2.29-43.93-16.42-43.93-39.79v-326.89c-13.99-11.35-22.95-28.71-22.95-48.14v-64.05c-3.12,7.92-6,15.91-8.72,24.07-23.59,70.69-31.43,147.53-22.63,222.06,2.64,21.99-13.03,41.82-34.94,44.46-1.6.16-3.2.24-4.8.24-19.99,0-37.26-14.95-39.66-35.26-10.16-86.2-1.12-174.96,26.15-256.76,19.51-58.69,47.98-113.31,84.6-162.96v-8.08c0-34.22,27.75-62.05,62.05-62.05h138.26c34.3,0,62.05,27.83,62.05,62.05v15.75c39.1,49.18,69.97,103.71,91.88,162.8,29.91,80.84,41.82,169.28,34.46,255.8Z"/>
    <path class="cls-1" d="M700.27,1386.94c-10.49,0-20.37-3.81-28.22-10.93-8.76-7.96-13.79-19.31-13.79-31.13v-310.98h-59.81v309.24c0,22.4-16.65,41.55-37.91,43.6-12,1.14-23.54-2.66-32.42-10.73-8.76-7.96-13.79-19.31-13.79-31.13v-325.91c-14.6-12.22-22.95-30.06-22.95-49.12v-52.71c-1.58,4.34-3.13,8.77-4.67,13.39-23.51,70.44-31.3,146.91-22.54,221.16,2.76,23.01-13.73,43.99-36.76,46.77-1.71.17-3.38.26-5.04.26-21.29,0-39.23-15.95-41.72-37.1-10.19-86.49-1.12-175.59,26.23-257.66,19.38-58.29,47.81-113.12,84.5-162.99v-7.4c0-35.36,28.77-64.13,64.13-64.13h138.25c35.36,0,64.13,28.77,64.13,64.13v15.03c39.11,49.3,69.97,104.08,91.75,162.81,30.01,81.12,41.97,169.89,34.59,256.7h0c-1.83,21.56-20.23,38.44-41.89,38.44-1.21,0-2.42,0-3.71-.17-22.99-1.92-40.19-22.3-38.26-45.42,6.36-74.43-3.89-150.63-29.63-220.37-3.96-10.67-8.26-21.18-12.85-31.35v60.62c0,15.36-5.5,30.17-15.51,41.8v331.49c0,22.4-16.65,41.55-37.91,43.6-1.41.13-2.81.2-4.2.2ZM594.29,1029.74h68.12v315.13c0,10.66,4.53,20.88,12.43,28.06,8.01,7.28,18.43,10.72,29.23,9.67,19.15-1.84,34.15-19.17,34.15-39.46v-333.06l.52-.59c9.67-10.96,14.99-25.04,14.99-39.64v-79.25l3.95,8.31c6.13,12.89,11.83,26.42,16.95,40.23,25.95,70.31,36.28,147.13,29.87,222.16-1.74,20.83,13.76,39.19,34.57,40.93,1.2.16,2.26.15,3.26.15,19.53,0,36.11-15.22,37.75-34.64h0c7.33-86.21-4.55-174.36-34.35-254.9-21.71-58.55-52.51-113.14-91.56-162.24l-.45-.57v-16.48c0-33.07-26.9-59.97-59.97-59.97h-138.25c-33.07,0-59.97,26.9-59.97,59.97v8.76l-.41.55c-36.63,49.66-64.99,104.29-84.3,162.39-27.16,81.5-36.17,169.97-26.06,255.86,2.25,19.06,18.41,33.43,37.6,33.43,1.53,0,3.06-.08,4.59-.23,20.71-2.49,35.57-21.4,33.09-42.14-8.84-74.85-.98-151.95,22.72-222.96,2.83-8.49,5.69-16.39,8.76-24.17l4.01-10.19v75c0,18.13,8.08,35.09,22.18,46.52l.77.62v327.88c0,10.66,4.53,20.88,12.43,28.06,8.01,7.28,18.41,10.72,29.22,9.67,19.15-1.84,34.15-19.17,34.15-39.46v-313.4Z"/>
  </g>
  <path class="cls-1" d="M739.99,1190.08c-6.68,2.27-11.51,8.53-11.51,15.98s4.84,13.7,11.51,15.98v-31.96Z"/>
  <circle class="cls-1" cx="837.84" cy="1133.76" r="4.11"/>
  <circle class="cls-1" cx="861.94" cy="1030.79" r="9.03"/>
  <path class="cls-1" d="M739.99,1008.74c-6.68,2.27-11.51,8.53-11.51,15.98s4.84,13.7,11.51,15.98v-31.96Z"/>
  <circle class="cls-1" cx="837.84" cy="952.43" r="4.11"/>
  <path class="cls-1" d="M453.61,812.49c-.16.67-.3,1.35-.3,2.07,0,4.99,4.04,9.03,9.03,9.03s9.03-4.04,9.03-9.03c0-.07-.03-.13-.03-.19-5.89-.78-11.79-1.43-17.73-1.88Z"/>
  <path class="cls-1" d="M658.7,1112.5v17.91c4.62-.4,8.26-4.23,8.26-8.95s-3.64-8.56-8.26-8.95Z"/>
  <path class="cls-1" d="M519.37,1098.44c-1.15,0-2.27.12-3.36.34v33.22c1.09.22,2.21.34,3.36.34,9.36,0,16.95-7.59,16.95-16.95s-7.59-16.95-16.95-16.95Z"/>
  <circle class="cls-1" cx="402.82" cy="1030.79" r="9.03"/>
  <circle class="cls-1" cx="410.98" cy="952.43" r="4.11"/>
  <rect class="cls-5" x="538.29" y="778.8" width="182.21" height="212.78" rx="5.07" ry="5.07"/>
  <g>
    <path class="cls-4" d="M439.3,812.49h364.76c54.89,0,108.64-19.38,148.77-56.85,31.26-29.19,52.85-65.86,57.66-108.13l27.18-239.12c12.34-108.58,4.14-228.96-97.17-187.97l-166.14,106.44c-35.59,14.4-253.34,14-288.63-1.1l-188.34-100.74c-100.05-42.81-94.86,73.64-85.5,182.06l20.39,236.27c3.44,39.9,21.86,75.16,49.43,103.96,40.86,42.68,98.49,65.17,157.58,65.17Z"/>
    <path class="cls-1" d="M804.07,814.57h-364.76c-61.06,0-119.04-23.99-159.08-65.81-29.42-30.73-46.71-67.11-50-105.22l-20.39-236.28c-6.91-80.08-10.76-160.37,23.88-185.43,15.18-10.97,36.88-10.55,64.51,1.27l188.5,100.82c34.06,14.56,251.35,15.38,286.88,1l165.79-106.26c29.37-11.92,52.82-11.25,70.02,1.83,39.35,29.9,38.22,118.81,30.34,188.13l-27.18,239.12c-4.58,40.24-24.74,78.08-58.31,109.41-39.64,37.02-92.99,57.41-150.18,57.41ZM260.14,217.94c-9.34,0-17.3,2.41-23.99,7.26-32.88,23.79-28.98,102.81-22.17,181.7l20.39,236.28c3.21,37.15,20.1,72.66,48.86,102.7,39.26,41.01,96.15,64.53,156.08,64.53h364.76c56.14,0,108.47-19.99,147.35-56.29,32.83-30.65,52.55-67.6,57.01-106.85l27.18-239.12c7.76-68.25,9.07-155.63-28.73-184.35-15.95-12.12-38.02-12.62-65.6-1.46l-165.79,106.26c-37.64,15.27-254.64,14.43-290.57-.94l-188.5-100.82c-13.88-5.93-25.93-8.9-36.28-8.9Z"/>
  </g>
  <g>
    <path class="cls-4" d="M490.27,787.35l61.34,43.89c12.47,6.13,26.19,9.31,40.08,9.31h79.48c24.12,0,47.24-9.58,64.29-26.63l29.5-29.5"/>
    <path class="cls-1" d="M671.18,842.63h-79.48c-14.14,0-28.31-3.29-41-9.52l-61.63-44.07,2.42-3.38,61.34,43.89c11.82,5.78,25.37,8.92,38.87,8.92h79.48c23.73,0,46.04-9.24,62.82-26.02l29.5-29.5,2.94,2.94-29.5,29.5c-17.57,17.57-40.92,27.24-65.76,27.24Z"/>
  </g>
  <path class="cls-5" d="M1000.67,580.48c-5.92,90.55-80.64,163.6-171.3,167.56-37.73,1.65-72.97-8.32-102.53-26.64-2.34-1.45-5.5-.47-6.3,2.16-8,26.16-32.29,45.13-61.07,45.13-13.59,0-26.31-4.24-36.62-11.59-10.32,7.28-22.95,11.59-36.7,11.59-27.51,0-50.95-17.43-59.83-41.94-.92-2.53-3.75-3.66-6.08-2.32-32.19,18.5-70.6,27.31-111.28,22.49-82.07-9.72-147.85-76.13-156.83-158.29-11.84-108.38,72.75-200.08,178.73-200.08,50.65,0,96.36,20.95,129.01,54.65,16.39,16.91,39.26,24.7,62.72,22.61,1.9-.17,3.83-.26,5.78-.26s4,.09,5.96.28c22.17,2.06,43.48-8.01,59.13-23.85,32.59-32.99,77.84-53.43,127.86-53.43,103.32,0,186.21,87.15,179.36,191.94Z"/>
  <g>
    <circle class="cls-2" cx="438.46" cy="579.43" r="154.42"/>
    <path class="cls-1" d="M438.46,735.92c-86.29,0-156.49-70.2-156.49-156.49s70.2-156.49,156.49-156.49,156.5,70.2,156.5,156.49-70.2,156.49-156.5,156.49ZM438.46,427.09c-84,0-152.34,68.34-152.34,152.34s68.34,152.34,152.34,152.34,152.34-68.34,152.34-152.34-68.34-152.34-152.34-152.34Z"/>
  </g>
  <g>
    <circle class="cls-2" cx="811.52" cy="579.43" r="154.42"/>
    <path class="cls-1" d="M811.52,735.92c-86.29,0-156.49-70.2-156.49-156.49s70.2-156.49,156.49-156.49,156.49,70.2,156.49,156.49-70.2,156.49-156.49,156.49ZM811.52,427.09c-84,0-152.34,68.34-152.34,152.34s68.34,152.34,152.34,152.34,152.34-68.34,152.34-152.34-68.34-152.34-152.34-152.34Z"/>
  </g>
  <g class="cls-3">
    <path class="cls-6" d="M229.39,235.25l23.52,127c.17.92.88,1.64,1.8,1.82l121.47,23.54c2.18.42,3.61-2.21,2.07-3.81l-144.99-150.55c-1.56-1.62-4.28-.23-3.87,1.99l23.52,127c.17.92.88,1.64,1.8,1.82l121.47,23.54c2.18.42,3.61-2.21,2.07-3.81l-144.99-150.55c-1.56-1.62-4.28-.23-3.87,1.99Z"/>
  </g>
  <g class="cls-3">
    <path class="cls-6" d="M1007.21,234.81l-23.52,127c-.17.92-.88,1.64-1.8,1.82l-121.47,23.54c-2.18.42-3.61-2.21-2.07-3.81l144.99-150.55c1.56-1.62,4.28-.23,3.87,1.99l-23.52,127c-.17.92-.88,1.64-1.8,1.82l-121.47,23.54c-2.18.42-3.61-2.21-2.07-3.81l144.99-150.55c1.56-1.62,4.28-.23,3.87,1.99Z"/>
  </g>
  <g>
    <circle class="cls-1" cx="861.94" cy="305.46" r="9.03"/>
    <circle class="cls-1" cx="837.84" cy="771.1" r="4.11"/>
    <path class="cls-1" d="M939.36,766.29c7.35-8.09,16.01-15.03,25.52-20.48-2.65-5.91-8.55-10.04-15.45-10.04-9.36,0-16.95,7.59-16.95,16.95,0,5.57,2.73,10.48,6.88,13.57Z"/>
    <path class="cls-1" d="M445.76,301.68c-.53,1.15-.85,2.43-.85,3.78,0,4.99,4.04,9.03,9.03,9.03,3.69,0,6.84-2.22,8.25-5.38-5.76-1.96-11.25-4.46-16.43-7.43Z"/>
    <circle class="cls-1" cx="337.43" cy="299.39" r="16.95"/>
    <circle class="cls-1" cx="225.84" cy="499.1" r="4.11"/>
    <circle class="cls-1" cx="249.93" cy="396.12" r="9.03"/>
    <circle class="cls-1" cx="225.84" cy="317.76" r="4.11"/>
    <path class="cls-1" d="M241.6,218.26c1.36,3.26,4.58,5.56,8.34,5.56,4.97,0,9-4.02,9.03-8.99-5.67,1.68-11.48,2.84-17.36,3.43Z"/>
    <path class="cls-1" d="M252.99,568.99c-.96-.35-1.98-.57-3.06-.57-4.99,0-9.03,4.04-9.03,9.03s4.04,9.03,9.03,9.03c.68,0,1.34-.09,1.98-.23.19-5.77.56-11.52,1.07-17.26Z"/>
  </g>
  <g>
    <circle class="cls-1" cx="458.36" cy="578.47" r="130.54"/>
    <path class="cls-2" d="M347.97,545.79c-5.99,0-11.67,1.28-16.82,3.55-2.15,9.4-3.32,19.16-3.32,29.21,0,17.55,3.49,34.28,9.77,49.56,3.32.85,6.79,1.35,10.38,1.35,23.11,0,41.84-18.73,41.84-41.84s-18.73-41.84-41.84-41.84Z"/>
  </g>
  <g>
    <circle class="cls-1" cx="791.75" cy="578.47" r="130.54"/>
    <path class="cls-2" d="M902.14,545.79c5.99,0,11.67,1.28,16.82,3.55,2.15,9.4,3.32,19.16,3.32,29.21,0,17.55-3.49,34.28-9.77,49.56-3.32.85-6.79,1.35-10.38,1.35-23.11,0-41.84-18.73-41.84-41.84s18.73-41.84,41.84-41.84Z"/>
  </g>
  <g>
    <path class="cls-2" d="M674.27,771.57l-1.7,7.23,2.8,11.91,6.76,4.93,6.76-4.93,2.8-11.91-1.93-8.22c-5.16.39-10.32.77-15.48.99Z"/>
    <path class="cls-1" d="M682.12,798.22l-8.6-6.28-3.09-13.14,2.17-9.24,1.57-.07c5.14-.21,10.28-.6,15.41-.98l1.77-.13,2.45,10.42-3.09,13.14-8.61,6.28ZM677.21,789.49l4.91,3.58,4.91-3.58,2.51-10.68-1.42-6.01c-4.07.3-8.13.59-12.2.79l-1.23,5.23,2.51,10.68Z"/>
  </g>
  <g>
    <path class="cls-5" d="M563.46,690.79l-13.1-19.77c-2.72-4.11.37-13.45,5.04-15.25l22.05-8.48c3.09-1.19,5.84-6.07,6.04-10.7h0c.19-4.53,2.83-9.32,5.86-10.63l15.41-6.65"/>
    <path class="cls-1" d="M561.72,691.94l-13.09-19.77c-1.59-2.41-1.8-6.19-.55-10.11,1.3-4.07,3.76-7.14,6.58-8.23l22.05-8.48c2.09-.8,4.54-4.75,4.71-8.85.23-5.36,3.36-10.83,7.12-12.45l15.41-6.65,1.65,3.81-15.41,6.65c-2.05.88-4.44,4.72-4.61,8.81-.23,5.53-3.47,11.05-7.37,12.55l-22.05,8.48c-1.59.61-3.24,2.86-4.11,5.61-.85,2.65-.82,5.22.06,6.55l13.09,19.77-3.47,2.3Z"/>
  </g>
  <g>
    <path class="cls-5" d="M688.94,693.09l13.1-19.77c2.72-4.11-.37-13.45-5.04-15.25l-22.05-8.48c-3.09-1.19-5.84-6.07-6.04-10.7h0c-.19-4.53-2.83-9.32-5.86-10.63l-15.41-6.65"/>
    <path class="cls-1" d="M690.67,694.24l-3.47-2.3,13.1-19.77c.88-1.33.9-3.9.05-6.55-.88-2.74-2.53-5-4.11-5.6l-22.05-8.48c-3.9-1.5-7.13-7.01-7.37-12.55-.17-4.09-2.56-7.92-4.61-8.81l-15.41-6.65,1.65-3.81,15.41,6.65c3.77,1.63,6.89,7.1,7.12,12.45.17,4.09,2.63,8.05,4.71,8.85l22.05,8.48c2.82,1.08,5.28,4.16,6.58,8.22,1.25,3.92,1.05,7.7-.55,10.12l-13.1,19.77Z"/>
  </g>
  <g>
    <path class="cls-2" d="M583.22,772.84s0,0,.01,0c-3.5-1.43-7.37-1.71-11.04-2.49-.16-.03-.27-.15-.42-.2-1.39.04-2.77.12-4.16.09l-2.01,8.56,2.8,11.91,6.76,4.93,6.76-4.93,2.8-11.91-1.39-5.93s-.07-.02-.1-.03Z"/>
    <path class="cls-1" d="M575.16,798.22l-8.61-6.28-3.09-13.14,2.51-10.67,1.68.03c1.01.02,1.98-.02,2.97-.05l1.49-.05.89.4c.7.09,1.8.28,2.91.46,2.68.45,5.45.91,8.11,2l.13.06h0s.58.23.58.23l.62,1.18,1.51,6.41-3.09,13.14-8.6,6.28ZM570.25,789.49l4.91,3.58,4.91-3.58,2.51-10.68-1.03-4.37c-1.98-.68-4.1-1.04-6.33-1.41-1.16-.19-2.32-.39-3.47-.63l-.47-.14-.52.02c-.51.02-1.01.03-1.52.04l-1.53,6.49,2.51,10.68ZM583.22,772.84l-.02.06.02-.06Z"/>
  </g>
  <rect class="cls-1" x="634.12" y="644.19" width="37.73" height="4.16"/>
  <path class="cls-1" d="M573.14,669.49c36.92,1.48,73.71,1.52,110.39.05,18.08-.72,26.65,15.56,12.32,23.49-19.48,10.77-36.99,22.47-51.22,35.72-7.01,6.52-20.52,7.21-28.19,1.08-16.43-13.12-34.91-25.42-55.58-36.83-14.35-7.93-5.81-24.23,12.29-23.5Z"/>
  <path class="cls-1" d="M675.26,773.71c-16.03,0-32.69-7.06-40.79-18.05-5.86-7.95-5.6-16-4.35-21.35l4.05.94c-1.05,4.5-1.27,11.27,3.65,17.94,8.73,11.84,29.52,18.82,46.3,15.53,6.62-1.29,12.71-4.13,17.61-8.23l2.66,3.19c-5.44,4.54-12.17,7.7-19.48,9.12-3.14.61-6.38.9-9.65.9Z"/>
  <path class="cls-1" d="M585.84,773.71c-3.27,0-6.51-.3-9.65-.9-7.3-1.42-14.04-4.58-19.48-9.12l2.66-3.19c4.9,4.09,10.99,6.94,17.61,8.23,16.78,3.29,37.57-3.68,46.3-15.53,4.92-6.67,4.7-13.44,3.65-17.94l4.05-.94c1.25,5.36,1.51,13.41-4.35,21.35-8.1,10.99-24.76,18.04-40.79,18.05Z"/>
  <g>
    <path class="cls-4" d="M545.91,1318.76h-55.12c-13.18,0-23.86,10.68-23.86,23.86v18.37c0,13.18,10.68,23.86,23.86,23.86h55.12"/>
    <path class="cls-1" d="M545.91,1386.42h-55.13c-14.02,0-25.42-11.4-25.42-25.42v-18.37c0-14.02,11.4-25.42,25.42-25.42h55.13v3.12h-55.13c-12.3,0-22.3,10-22.3,22.3v18.37c0,12.3,10,22.31,22.3,22.31h55.13v3.12Z"/>
  </g>
  <g>
    <path class="cls-4" d="M696.87,1318.76h55.12c13.18,0,23.86,10.68,23.86,23.86v18.37c0,13.18-10.68,23.86-23.86,23.86h-55.12"/>
    <path class="cls-1" d="M751.99,1386.42h-55.12v-3.12h55.12c12.3,0,22.31-10.01,22.31-22.31v-18.37c0-12.3-10.01-22.3-22.31-22.3h-55.12v-3.12h55.12c14.02,0,25.42,11.4,25.42,25.42v18.37c0,14.02-11.4,25.42-25.42,25.42Z"/>
  </g>
</svg>