<?xml version="1.0" encoding="UTF-8"?>
<svg xmlns="http://www.w3.org/2000/svg" xmlns:xlink="http://www.w3.org/1999/xlink" viewBox="0 0 1178.6 1420.81">
  <defs>
    <style>
      .cls-1 {
        mask: url(#mask-1);
      }

      .cls-2 {
        fill: #231f20;
      }

      .cls-3 {
        fill: #a5764d;
      }

      .cls-4 {
        fill: #fff;
      }

      .cls-5 {
        mask: url(#mask);
      }

      .cls-6 {
        opacity: .41;
      }

      .cls-7 {
        stroke: #fcc189;
        stroke-width: 80px;
      }

      .cls-7, .cls-8 {
        fill: none;
        stroke-linecap: round;
        stroke-miterlimit: 10;
      }

      .cls-9 {
        fill: url(#radial-gradient);
      }

      .cls-10 {
        mask: url(#mask-2);
      }

      .cls-8 {
        stroke: #231f20;
        stroke-width: 89px;
      }

      .cls-11 {
        fill: #fcc189;
      }

      .cls-12 {
        fill: #fed7b4;
      }
    </style>
    <mask id="mask" x="406.52" y="923" width="169.47" height="455.83" maskUnits="userSpaceOnUse">
      <g id="mask0_35406_3843" data-name="mask0 35406 3843">
        <path class="cls-4" d="M551.09,1009.01c-1.25-3.41-1.91-7.31-1.83-11.64,1.21-4.78,2.45-9.43,3.87-14.09,1.91-1.33,3.62-2.66,5.28-4.03-16.17.21-32.43-10.06-32.31-30.87.04-8.48,1.25-17.54-2.04-25.39-.91,3.37-1.87,6.4-3.08,8.98-1.29,4.07-2.74,8.23-4.49,12.42-1.41,4.36-2.79,8.77-4.12,13.17-2.66,8.85-5.16,17.78-7.4,26.89,3.58,3.28,7.15,6.61,10.48,9.68,3.7,6.15,8.48,11.68,14.01,16.16v59.67c-2.49,33.24-2.49,73.22,0,103.3v163.93c0,12.76,6.07,24.14,15.43,31.45-.04-.74-.21-1.45-.21-2.24.25-58.96,1.66-119.05,5.95-178.68.38-4.98.79-9.93,1.58-14.79,22.78-29.71,30.77-69.68,17.01-109.86-.5-4.57-1.08-9.1-1.83-13.71.79-3.57,1.71-7.23,2.74-10.89,1.04-3.66,2.12-7.35,3.37-11.05-9.85-2.04-18.67-8.14-22.37-18.41h-.04Z"/>
      </g>
    </mask>
    <mask id="mask-1" x="698.19" y="898.21" width="102.96" height="486.19" maskUnits="userSpaceOnUse">
      <g id="mask1_35406_3843" data-name="mask1 35406 3843">
        <path class="cls-4" d="M762.14,931.14c-3.95-6.48-9.23-17.95-15.43-29-11.77,39.97-22.12,80.28-30.39,120.59-1.04,5.03-2.95,9.02-5.41,12.3-1.16,2.2-2.54,4.28-4.24,6.19,10.44,34.41,11.27,74.26,9.48,102.64-2.49,39.4-5.53,78.54-6.24,118.06-.33,18.11-12.47,72.38,1.25,84.97,9.94,9.1,11.68,19.99,8.65,29.63,19.58-3.12,33.68-20.99,33.68-41.06v-332.25c9.61-10.89,15.51-25.26,15.51-41.01v-19.2c-2.16-3.91-4.41-7.85-6.86-11.84Z"/>
      </g>
    </mask>
    <mask id="mask-2" x="124.75" y="191.72" width="930.57" height="1012.92" maskUnits="userSpaceOnUse">
      <g id="mask2_35406_3843" data-name="mask2 35406 3843">
        <path class="cls-4" d="M953.81,221.55l-166.19,106.42c-35.67,14.38-253.54,14-288.84-1.12l-188.43-100.77c-100.16-42.8-94.96,73.63-85.61,182.08l20.42,236.31c3.53,39.89,21.91,75.17,49.52,103.97,40.87,42.72,98.5,65.15,157.62,65.15h9.36c-12.31,22.73-23.03,46.29-32.18,70.6l-22.66-24.56s-.17-.12-.25-.21c-2.41,6.81-6.82,12.76-13.51,15.87-17.13,8.02-32.14,19.07-48.85,27.67-6.49,12.3-19.46,20.44-35.05,14.34-35.67-14-60.33-38.48-90.64-60.71-29.27-21.48-48.9-34.78-54.51-70.22l-4.82,4.82c-13.85,13.84-12.97,36.48,1.91,49.2l142.9,122.04,8.73,7.52c6.49,5.44,16.09,4.74,21.54-1.74,13.26-15.67,35.67-42.22,52.39-62.04,5.7-6.65,15.51-7.27,21.91-1.37,2.95,2.7,6.49,5.98,10.39,9.6-25.11,79.41-33.22,164.96-23.37,248.11,1.96,16.41,13.64,29.17,28.57,33.53-3.04-23.97-1-47.7.37-72.3,2-36.11,2.87-71.97,9.44-107.71,6.69-36.44,14.84-74.59,27.03-109.62,11.68-33.58,28.65-64.99,40.29-98.6,0-.08.04-.12.08-.17-9.27-15.17-21.08-19.61-40.04-22.98-31.56-5.61-64.36-6.65-89.85-28.8-27.27-23.73-36.84-59.42-41.95-93.83-5.4-36.23-5.65-72.68-15.18-108.24-10.1-37.73-17.71-75.29-22.7-114.06-4.82-37.56-26.24-121.54,33.8-125.07,27.52-1.62,61.08,17.2,84.61,29.04,36.92,18.53,71.39,43.88,110.64,57.43,79.95,27.63,183.77,1.87,261.86-21.19,31.31-9.27,65.28-22.81,95.26-21.07,17.17-10.18,32.76-30.67,51.06-36.61,21.58-6.98,42.99.21,54.76,19.7,25.61,42.26,9.65,113.48,7.36,158.77-3.45,68.98.21,140.66-49.15,195.71-22.33,24.89-51.14,40.39-79.75,56.26-19.46,23.35-42.87,42.3-74.8,48.24-1.62.29-3.28.42-4.91.5-4.36,12.17-8.65,24.39-12.81,36.69,11.52,10.22,20.04,23.35,29.06,38.89,16.51,28.42,36.01,55.47,46.86,86.8,25.2,73.01,23.62,163.3,18.34,240.79,16.76-3.61,29.94-17.7,31.47-35.56,7.36-86.51-4.57-174.98-34.47-255.8-12.97-34.86-28.98-68.15-48.02-99.64h4.41c54.88,0,108.73-19.45,148.81-56.84,31.27-29.17,52.89-65.9,57.67-108.12l27.19-239.18c12.39-108.58,4.16-228.96-97.21-187.9l.12-.04Z"/>
      </g>
    </mask>
    <radialGradient id="radial-gradient" cx="619.91" cy="497.71" fx="619.91" fy="497.71" r="278.47" gradientTransform="translate(0 149.6) scale(1 .68)" gradientUnits="userSpaceOnUse">
      <stop offset="0" stop-color="#9fddf9"/>
      <stop offset="1" stop-color="#fed7b4" stop-opacity="0"/>
    </radialGradient>
  </defs>
  <g id="Layer_3" data-name="Layer 3">
    <g>
      <path class="cls-11" d="M556.33,1041.3c3.41-.6,5.75-3.79,5.26-7.23l-30.85-228.7c-1.08-8.11-8.31-13.87-16.42-13.16-16.1,1.47-42.36,3.84-64.95,5.89-8.34.76-15.72-5.31-16.5-13.62-3.47-35.74-10.41-106.5-14.58-149.58-1.89-19.42-19.95-33.07-39.17-29.67l-12.1,2.14c-19.22,3.39-31.48,22.45-26.58,41.35l47.19,181.96,2.87,11.13c2.14,8.19,10.47,13.1,18.63,10.95,19.79-5.23,53.43-14.15,78.48-20.82,8.47-2.24,16.87,2.87,18.77,11.4,10.65,48.26,42.52,193,42.52,193,.75,3.36,4.03,5.56,7.42,4.99l.02-.03Z"/>
      <path class="cls-2" d="M550.29,1041.95c-1.7-1.19-2.98-3-3.45-5.15l-42.52-193c-.78-3.53-2.86-6.51-5.94-8.41-3.05-1.88-6.72-2.37-10.26-1.44l-78.48,20.82c-4.48,1.18-9.16.54-13.15-1.8-4.02-2.3-6.88-6.13-8.04-10.64l-50.08-193.06c-2.5-9.56-.86-19.82,4.5-28.13,5.36-8.32,13.99-14.05,23.71-15.77l12.1-2.14c9.73-1.72,19.91.69,27.73,6.71,7.96,6.02,12.9,14.85,13.89,24.82l14.58,149.58c.7,7.13,7.1,12.42,14.24,11.78l64.95-5.89c9.22-.85,17.46,5.72,18.68,14.94l30.85,228.7c.63,4.54-2.45,8.73-6.97,9.53-2.32.41-4.6-.17-6.37-1.41l.02-.03ZM501.47,832.43c3.54,2.48,5.95,6.14,6.93,10.48l42.52,193c.5,2.33,2.73,3.79,5.05,3.38,2.32-.41,3.87-2.57,3.58-4.9l-30.85-228.69c-.94-7-7.18-12.01-14.19-11.34l-64.95,5.89c-9.43.86-17.86-6.1-18.75-15.49l-14.58-149.58c-.84-8.81-5.21-16.57-12.22-21.93-7.07-5.35-15.74-7.46-24.48-5.91l-12.1,2.14c-8.74,1.54-16.16,6.5-20.96,13.94-4.8,7.44-6.19,16.26-3.98,24.85l50.08,193.06c.9,3.42,3.06,6.29,6.12,8.08,3.03,1.76,6.58,2.27,9.97,1.34l78.48-20.82c4.65-1.21,9.42-.56,13.47,1.92l.89.62-.03-.02Z"/>
    </g>
  </g>
  <g id="Layer_6" data-name="Layer 6">
    <g>
      <path class="cls-8" d="M759.56,840.52c13.37,24.25,118.85,81.03,155.38,80.36,26.32-.49,30.6,2.25,120.64-127.85"/>
      <path class="cls-7" d="M759.56,840.52c13.37,24.25,118.85,81.03,155.38,80.36,26.32-.49,30.6,2.25,120.64-127.85"/>
    </g>
    <g>
      <path class="cls-8" d="M504.69,840.52c-13.37,24.25-102.07,79.78-137.95,86.68s-87.17.78-159.55-129.01"/>
      <path class="cls-7" d="M504.69,840.52c-13.37,24.25-102.07,79.78-137.95,86.68s-87.17.78-159.55-129.01"/>
    </g>
  </g>
  <g id="Layer_5" data-name="Layer 5">
    <g>
      <g>
        <path class="cls-11" d="M764.67,755.49c-.59-.9-1.31-1.63-1.82-2.63-.51-4.36.92-11.62.58-15.65-3.03-35.05-22.39-62.58-62.32-64.65s-94.5-1.14-134.24-.45-60.04,26.31-65.57,60.5c-.33,2.01.49,5.71-.1,7.84-.94,1.36-2.01,2.59-3.01,3.9-2,55.3-3.72,110.63-5.56,165.94,1.01-2.39,2.12-5.12,3.1-7.27-.32,19.71-2.04,44.14-2.4,62.7-.45,22.5,6.56,33.64,19.31,50.1-7.93,109.54-56.96,216.79-70.22,322.39-3.79,30.22,13.31,43.49,37.9,45.01,21.42,1.32,35.97-7.14,40.99-34.35,18.75-101.57,61.05-208.66,70.65-312.79,22.89,1.04,45.93,0,68.87-.19,2.37,105.84,17.45,217.85,45.07,318.17,8.25,29.98,30.64,36.65,55.19,29.95,21.38-5.84,33.75-21.14,26.06-47.95-30.62-106.76-44.6-210.37-45.62-322.59,9.3-14.26,14.63-22.58,15.04-41.29.46-20.81.39-46.77,1.19-68.63.57,1.07,1.22,2.7,1.81,3.99,1.37-50.69,3.68-101.36,5.1-152.04Z"/>
        <path class="cls-2" d="M503.21,741.19c.62-2.33-.22-6.33.14-8.52,5.47-33.07,24.9-57.77,63.34-58.49,40.17-.75,94.08-1.61,134.44.5,38.62,2.02,57.14,28.57,60.17,62.48.38,4.23-1.12,11.81-.59,16.39.04.34.27.45.39.65,1.27,2.03,2.14,2.34,3.63,5.48-1.9-18.44,3.06-4.44.13-29.37-2.93-24.93-24.63-60.27-63.84-60.39-39.63-.12-94.53-1.23-134.17.05-40.56,1.32-62.28,26.9-67.69,62.62-.28,1.87.51,5.14-.06,7.17-.19.41-.53.7-.78,1.07-.09,2.32-.17,4.63-.25,6.95,1.58-2.03,3.13-4.03,4.75-6.04.11-.13.34-.33.39-.55Z"/>
        <path class="cls-2" d="M759.69,902.89c-.06-.13-.08-.19-.15-.33-1.23-2.69-2.51-5.67-3.71-8.19-.88,25.16-.98,53.62-1.44,77.89-.34,17.87-5.62,26.22-14.65,39.72-.12.18-.42.15-.44.59,1.32,112.84,14.28,216.57,45.82,324.31,7.7,26.29-5.03,36.75-24.71,45.87-11.14,5.17-22.18,2.86-32.49-3.16s-16.04-11.03-19.87-25c-28.39-103.51-42.66-213.18-45.21-321.01-24.24.72-48.58,1.33-72.88.22-9.32,105.44-52.34,211.82-70.55,314.9-4.72,26.73-19.34,29.96-39.27,33.2-11.29,1.84-19.99-4.14-27.22-12.66-7.24-8.53-10.46-15.75-8.66-29.84,13.88-108.63,62.2-213.03,70.55-324.56-.07-.46-.5-.47-.66-.68-12.29-15.55-19.34-26.39-18.75-48.18.61-22.57,2.27-50.15,2.76-73.73-1.32,2.96-2.9,6.66-4.27,9.77-.43.98-.65,1.49-1.04,2.4-.12,3.93-.27,7.9-.4,11.84.26-.64.6-1.52.82-2.01-.19,16.06-1.87,36.57-2.07,51.65-.29,21.77,6.42,34.78,19.32,50.6-8.13,110.57-56.63,214.7-70.42,322.71-2,15.64,1.96,22.47,9.61,33.26,6.84,9.65,15.93,10.74,25.95,14.08,0,0,.04-.03.05-.03,1.47-.31,2.56.87,4.16.52,24.05-5.24,37.88-7.85,43.37-37.3,18.95-101.64,61.11-207.79,70.71-311.37,21.45.86,43.22.01,64.72-.47,2.62,106.52,17.66,215.38,45.26,317.54,4.19,15.51,10.64,21.08,22.03,27.77,11.39,6.69,23.45,9.1,35.93,3.5,22-9.87,35.54-21.92,27.34-50.88-30.35-107.14-44.57-209.21-45.63-321.69,8.76-11.82,13.55-23.36,15.01-37.96.11-24.42.45-48.86,1.1-73.28Z"/>
        <path class="cls-12" d="M704.66,781.47c-44.05-1.87-94.16-2.76-138.25-2.63-14.65.04-21.39,5.87-22.1,20.78-2.59,54.69-4.04,115.01-6.18,169.72-.58,14.92,5.32,21.58,20.19,22.83,44.76,3.77,96.07,3.95,140.94,2.21,14.91-.58,21.4-6.52,21.62-21.44.81-54.72,3.08-114.84,4.44-169.5.37-14.91-6.01-21.35-20.65-21.97Z"/>
        <g class="cls-5">
          <g>
            <path class="cls-2" d="M540.88,962.16c1.19.07,2.12-.8,2.18-1.98s-.79-2.15-1.97-2.21-2.12.79-2.18,1.98.78,2.15,1.97,2.22Z"/>
            <path class="cls-2" d="M513.91,1148.33c1.17.22,2.25-.53,2.52-1.68.27-1.15-.38-2.21-1.56-2.42s-2.24.54-2.52,1.69.38,2.19,1.55,2.4Z"/>
            <path class="cls-2" d="M537.35,1100.17c2.61.37,4.94-1.34,5.42-3.92.49-2.58-1.09-4.85-3.7-5.22-2.61-.37-4.94,1.34-5.42,3.92-.49,2.58,1.09,4.84,3.7,5.22Z"/>
            <path class="cls-2" d="M532.45,1055.93c1.17.12,2.21-.65,2.38-1.82s-.63-2.14-1.8-2.26c-1.17-.12-2.21.65-2.38,1.82s.63,2.14,1.8,2.26Z"/>
            <path class="cls-2" d="M550.67,1006.4c2.61.21,4.78-1.63,5.01-4.26s-1.64-4.78-4.26-4.98c-2.62-.19-4.75,1.66-4.97,4.26-.22,2.6,1.61,4.76,4.22,4.98Z"/>
            <path class="cls-2" d="M480.34,1076c-.79-.19-1.67-.05-2.45,0-.91,5.28-1.92,10.49-3.02,15.73.73.25,1.53.64,2.33.67,4.69.19,9.32-1.85,10.29-6.87.97-5.01-2.52-8.45-7.15-9.53Z"/>
            <path class="cls-2" d="M491.63,985.61c-.82-.15-1.63.06-2.41.15-.34,5.57-.69,11.11-1.03,16.69.77.19,1.55.51,2.38.47,4.85-.21,8.8-2.93,9.11-8.07.32-5.14-3.25-8.38-8.05-9.24Z"/>
            <path class="cls-2" d="M467.38,1336.1c1.22.14,2.23-.69,2.42-1.88.19-1.19-.52-2.27-1.75-2.45s-2.23.71-2.42,1.91c-.19,1.2.53,2.28,1.75,2.42Z"/>
            <path class="cls-2" d="M490.44,1285.96c2.61.58,5.07-.97,5.72-3.56.65-2.58-.79-5.02-3.41-5.6-2.61-.58-5.07.98-5.73,3.56-.65,2.58.8,5.01,3.41,5.59Z"/>
            <path class="cls-2" d="M489.6,1240.35c1.17.27,2.29-.44,2.6-1.59.32-1.15-.3-2.24-1.47-2.51-1.17-.27-2.28.43-2.6,1.58s.29,2.25,1.47,2.52Z"/>
            <path class="cls-2" d="M515.37,1193.04c2.59.53,5.04-1.13,5.69-3.66.65-2.54-.76-4.92-3.35-5.41-2.59-.49-5.02,1.11-5.68,3.64-.65,2.53.75,4.9,3.34,5.44Z"/>
            <path class="cls-2" d="M430.65,1274.76c5.07,1.06,9.57-2.46,10.78-7.35,1.21-4.89-.94-9.63-6.18-10.78-5.24-1.15-9.49,2.36-10.73,7.33-1.25,4.97,1.06,9.74,6.13,10.79Z"/>
            <path class="cls-2" d="M460.26,1165.01c-.79-.25-1.65-.15-2.45-.17-1.43,5.43-2.85,10.82-4.28,16.25.74.29,1.45.7,2.29.78,4.91.44,9.4-1.71,10.72-6.72,1.32-5.02-1.65-8.65-6.28-10.13Z"/>
            <path class="cls-2" d="M414.26,1378.79c5.01.52,8.99-3.55,9.5-8.44.51-4.89-2.7-9.23-7.69-9.5s-9.01,3.28-9.51,8.17,2.68,9.25,7.7,9.78Z"/>
          </g>
        </g>
        <g class="cls-1">
          <g>
            <path class="cls-2" d="M706.63,915.61c4.94.03,8.74-3.73,8.87-8.65.13-4.92-3.49-8.71-8.43-8.75-4.94-.04-8.76,3.71-8.88,8.64-.12,4.93,3.5,8.73,8.44,8.77Z"/>
            <path class="cls-2" d="M762.22,1149.34c1.16-.07,2.02-1,1.97-2.16-.05-1.17-.99-2-2.15-1.93-1.16.07-2.02.99-1.97,2.16.05,1.17.99,2,2.15,1.93Z"/>
            <path class="cls-2" d="M756.05,1057.36c1.16-.04,2.04-.91,1.96-2.09-.08-1.18-1.07-1.99-2.23-1.96s-2.04.91-1.96,2.09c.08,1.18,1.07,1.99,2.23,1.96Z"/>
            <path class="cls-2" d="M710.97,1102.2c4.9-.23,8.46-4.03,8.08-8.94s-4.51-8.38-9.4-8.2c-4.9.19-8.43,3.96-8.07,8.89s4.49,8.47,9.39,8.24Z"/>
            <path class="cls-2" d="M799.51,1330.53c1.2-.25,1.88-1.32,1.55-2.5-.33-1.18-1.52-1.88-2.73-1.64-1.21.24-1.89,1.31-1.55,2.5.34,1.19,1.53,1.88,2.73,1.64Z"/>
            <path class="cls-2" d="M773.79,1238.07c1.15-.21,1.91-1.21,1.65-2.38-.26-1.17-1.4-1.81-2.55-1.59-1.15.21-1.91,1.2-1.65,2.37s1.4,1.82,2.55,1.6Z"/>
            <path class="cls-2" d="M736.14,1290.16c4.9-1,7.66-5.5,6.52-10.31-1.14-4.81-5.63-7.8-10.49-6.83-4.86.97-7.66,5.44-6.59,10.3,1.07,4.86,5.66,7.84,10.56,6.84Z"/>
            <path class="cls-2" d="M718.06,1197c4.94-.58,8.09-4.7,7.59-9.59-.5-4.89-4.49-8.35-9.43-7.78-4.94.56-8.15,4.73-7.68,9.67.47,4.94,4.58,8.28,9.52,7.7Z"/>
            <path class="cls-2" d="M761.69,1384.19c4.97-1,8.31-5.32,6.99-10.35-1.32-5.03-6.32-7.71-11.32-6.72s-8.1,5.37-6.8,10.38c1.3,5.02,6.17,7.68,11.14,6.68Z"/>
          </g>
        </g>
      </g>
      <path class="cls-11" d="M475.78,1315.29c-17.5-2.59-38.73-4.34-55.72-3.94-16.23.39-23.64,8.44-27.01,22.9-1.18,5.04-2.01,13.57-1.98,18.59.09,14.4,5.86,24.17,21.27,26.71,16.13,2.66,36.63,1.23,53.39,3.61"/>
      <path class="cls-2" d="M465.6,1384.7c-16.97-2.14-37.19-.96-53.44-3.58s-22.6-13.17-22.66-28.44c-.02-4.99.8-13.56,1.97-18.59,3.57-15.36,11.65-23.93,28.78-24.36s38.16,1.3,55.93,3.97c-.09,1.13-.32,2.19-.62,3.21-17.69-2.72-38.63-4.32-55.73-3.97-15.25.31-22.12,7.95-25.27,21.47-1.18,5.05-2.01,13.57-1.98,18.59.07,13.44,5.43,22.7,19.91,24.98,16.23,2.56,36.54,1.3,53.51,3.6-.03.98-.17,2.01-.41,3.12Z"/>
      <path class="cls-11" d="M735.77,1321.28c17.69-3.12,39.55-8.56,56.56-10.79,16.25-2.13,24.64,4.55,30.18,18.29,1.93,4.79,3.99,12.74,4.62,17.72,1.8,14.27-1.9,24.27-17.53,28.63-16.36,4.57-38.59,7.85-55.9,12.03"/>
      <path class="cls-2" d="M809.89,1376.67c-16.42,4.62-38.45,7.86-55.95,12.05-.4-1.05-.64-2.07-.74-3.07,17.58-4.15,39.56-7.44,56.06-12,14.72-4.07,18.1-13.46,16.35-26.8-.65-4.98-2.69-12.93-4.63-17.72-5.19-12.83-13.02-19.2-28.28-17.1-17.11,2.35-38.73,7.63-56.63,10.87-.4-.98-.68-2.03-.83-3.15,17.89-3.18,39.51-8.64,56.65-10.81,17.14-2.17,26.24,4.84,32.15,19.51,1.93,4.8,3.99,12.75,4.62,17.72,1.93,15.17-2.33,25.89-18.75,30.5Z"/>
    </g>
  </g>
  <g id="Layer_1" data-name="Layer 1">
    <path class="cls-11" d="M447.77,812.47h364.97c54.92,0,108.73-19.36,148.85-56.84,31.27-29.17,52.89-65.86,57.71-108.12l27.19-239.14c12.35-108.58,4.16-228.96-97.21-187.98l-166.23,106.46c-35.59,14.38-253.5,14-288.8-1.12l-188.47-100.77c-100.12-42.8-94.92,73.63-85.57,182.08l20.42,236.27c3.45,39.89,21.87,75.17,49.48,103.97,40.87,42.67,98.54,65.15,157.66,65.15v.04Z"/>
    <path class="cls-2" d="M812.74,814.55h-364.97c-61.08,0-119.12-23.98-159.16-65.82-29.44-30.75-46.73-67.11-50.02-105.21l-20.42-236.27c-6.9-80.07-10.77-160.35,23.91-185.41,15.18-10.97,36.92-10.55,64.53,1.29l188.64,100.81c34.05,14.54,251.51,15.38,287.06,1l165.9-106.25c29.4-11.93,52.85-11.26,70.06,1.83,39.38,29.92,38.25,118.8,30.35,188.15l-27.19,239.14c-4.57,40.22-24.74,78.08-58.33,109.41-39.67,37.02-93.05,57.42-150.26,57.42l-.08-.08ZM268.48,217.89c-9.35,0-17.34,2.41-24.03,7.27-32.89,23.77-28.98,102.8-22.2,181.71l20.41,236.27c3.2,37.15,20.12,72.68,48.9,102.72,39.29,41.01,96.21,64.53,156.17,64.53h364.97c56.17,0,108.56-19.99,147.44-56.3,32.85-30.67,52.6-67.61,57.04-106.83l27.19-239.14c7.78-68.23,9.06-155.61-28.73-184.37-15.97-12.13-38.04-12.63-65.65-1.45l-165.9,106.25c-37.67,15.29-254.79,14.42-290.76-.96l-188.6-100.81c-13.89-5.94-25.95-8.89-36.3-8.89h.04Z"/>
    <g class="cls-10">
      <g>
        <path class="cls-2" d="M1050.69,503.19c2.27,0,4.12-1.84,4.12-4.11s-1.84-4.11-4.12-4.11-4.12,1.84-4.12,4.11,1.84,4.11,4.12,4.11Z"/>
        <path class="cls-2" d="M870.66,495.76c4.98,0,9.02-4.04,9.02-9.02s-4.04-9.02-9.02-9.02-9.02,4.04-9.02,9.02,4.04,9.02,9.02,9.02Z"/>
        <path class="cls-2" d="M754.07,497.62c9.37,0,16.96-7.59,16.96-16.95s-7.59-16.95-16.96-16.95-16.96,7.59-16.96,16.95,7.59,16.95,16.96,16.95Z"/>
        <path class="cls-2" d="M1050.69,321.86c2.27,0,4.12-1.84,4.12-4.11s-1.84-4.11-4.12-4.11-4.12,1.84-4.12,4.11,1.84,4.11,4.12,4.11Z"/>
        <path class="cls-2" d="M846.54,412.53c2.27,0,4.12-1.84,4.12-4.11s-1.84-4.11-4.12-4.11-4.12,1.84-4.12,4.11,1.84,4.11,4.12,4.11Z"/>
        <path class="cls-2" d="M958.22,406.96c9.37,0,16.96-7.59,16.96-16.95s-7.6-16.95-16.96-16.95-16.96,7.59-16.96,16.95,7.6,16.95,16.96,16.95Z"/>
        <path class="cls-2" d="M870.66,314.42c4.98,0,9.02-4.04,9.02-9.02s-4.04-9.02-9.02-9.02-9.02,4.04-9.02,9.02,4.04,9.02,9.02,9.02Z"/>
        <path class="cls-2" d="M754.07,316.29c9.37,0,16.96-7.59,16.96-16.95s-7.59-16.95-16.96-16.95-16.96,7.59-16.96,16.95,7.59,16.95,16.96,16.95Z"/>
        <path class="cls-2" d="M846.54,231.19c2.27,0,4.12-1.84,4.12-4.11s-1.84-4.11-4.12-4.11-4.12,1.84-4.12,4.11,1.84,4.11,4.12,4.11Z"/>
        <path class="cls-2" d="M958.22,225.62c9.37,0,16.96-7.59,16.96-16.95s-7.6-16.95-16.96-16.95-16.96,7.59-16.96,16.95,7.6,16.95,16.96,16.95Z"/>
        <path class="cls-2" d="M1050.69,684.53c2.27,0,4.12-1.84,4.12-4.11s-1.84-4.11-4.12-4.11-4.12,1.84-4.12,4.11,1.84,4.11,4.12,4.11Z"/>
        <path class="cls-2" d="M846.54,775.2c2.27,0,4.12-1.84,4.12-4.11s-1.84-4.11-4.12-4.11-4.12,1.84-4.12,4.11,1.84,4.11,4.12,4.11Z"/>
        <path class="cls-2" d="M958.22,769.63c9.37,0,16.96-7.59,16.96-16.95s-7.6-16.95-16.96-16.95-16.96,7.59-16.96,16.95,7.6,16.95,16.96,16.95Z"/>
        <path class="cls-2" d="M870.66,677.1c4.98,0,9.02-4.04,9.02-9.02s-4.04-9.02-9.02-9.02-9.02,4.04-9.02,9.02,4.04,9.02,9.02,9.02Z"/>
        <path class="cls-2" d="M754.07,678.96c9.37,0,16.96-7.59,16.96-16.95s-7.59-16.95-16.96-16.95-16.96,7.59-16.96,16.95,7.59,16.95,16.96,16.95Z"/>
        <path class="cls-2" d="M846.54,593.86c2.27,0,4.12-1.84,4.12-4.11s-1.84-4.11-4.12-4.11-4.12,1.84-4.12,4.11,1.84,4.11,4.12,4.11Z"/>
        <path class="cls-2" d="M958.22,588.29c9.37,0,16.96-7.59,16.96-16.95s-7.6-16.95-16.96-16.95-16.96,7.59-16.96,16.95,7.6,16.95,16.96,16.95Z"/>
        <path class="cls-2" d="M642.43,503.19c2.27,0,4.12-1.84,4.12-4.11s-1.84-4.11-4.12-4.11-4.12,1.84-4.12,4.11,1.84,4.11,4.12,4.11Z"/>
        <path class="cls-2" d="M666.55,405.09c4.98,0,9.02-4.04,9.02-9.02s-4.04-9.02-9.02-9.02-9.02,4.04-9.02,9.02,4.04,9.02,9.02,9.02Z"/>
        <path class="cls-2" d="M462.4,495.76c4.98,0,9.02-4.04,9.02-9.02s-4.04-9.02-9.02-9.02-9.02,4.04-9.02,9.02,4.04,9.02,9.02,9.02Z"/>
        <path class="cls-2" d="M345.82,497.62c9.37,0,16.96-7.59,16.96-16.95s-7.59-16.95-16.96-16.95-16.96,7.59-16.96,16.95,7.6,16.95,16.96,16.95Z"/>
        <path class="cls-2" d="M642.43,321.86c2.27,0,4.12-1.84,4.12-4.11s-1.84-4.11-4.12-4.11-4.12,1.84-4.12,4.11,1.84,4.11,4.12,4.11Z"/>
        <path class="cls-2" d="M666.55,223.75c4.98,0,9.02-4.04,9.02-9.02s-4.04-9.02-9.02-9.02-9.02,4.04-9.02,9.02,4.04,9.02,9.02,9.02Z"/>
        <path class="cls-2" d="M438.28,412.53c2.27,0,4.12-1.84,4.12-4.11s-1.84-4.11-4.12-4.11-4.12,1.84-4.12,4.11,1.84,4.11,4.12,4.11Z"/>
        <path class="cls-2" d="M549.96,406.96c9.37,0,16.96-7.59,16.96-16.95s-7.6-16.95-16.96-16.95-16.96,7.59-16.96,16.95,7.6,16.95,16.96,16.95Z"/>
        <path class="cls-2" d="M462.4,314.42c4.98,0,9.02-4.04,9.02-9.02s-4.04-9.02-9.02-9.02-9.02,4.04-9.02,9.02,4.04,9.02,9.02,9.02Z"/>
        <path class="cls-2" d="M345.82,316.29c9.37,0,16.96-7.59,16.96-16.95s-7.59-16.95-16.96-16.95-16.96,7.59-16.96,16.95,7.6,16.95,16.96,16.95Z"/>
        <path class="cls-2" d="M438.28,231.19c2.27,0,4.12-1.84,4.12-4.11s-1.84-4.11-4.12-4.11-4.12,1.84-4.12,4.11,1.84,4.11,4.12,4.11Z"/>
        <path class="cls-2" d="M549.96,225.62c9.37,0,16.96-7.59,16.96-16.95s-7.6-16.95-16.96-16.95-16.96,7.59-16.96,16.95,7.6,16.95,16.96,16.95Z"/>
        <path class="cls-2" d="M666.55,767.76c4.98,0,9.02-4.04,9.02-9.02s-4.04-9.02-9.02-9.02-9.02,4.04-9.02,9.02,4.04,9.02,9.02,9.02Z"/>
        <path class="cls-2" d="M642.43,684.53c2.27,0,4.12-1.84,4.12-4.11s-1.84-4.11-4.12-4.11-4.12,1.84-4.12,4.11,1.84,4.11,4.12,4.11Z"/>
        <path class="cls-2" d="M666.55,586.42c4.98,0,9.02-4.04,9.02-9.02s-4.04-9.02-9.02-9.02-9.02,4.04-9.02,9.02,4.04,9.02,9.02,9.02Z"/>
        <path class="cls-2" d="M438.28,775.2c2.27,0,4.12-1.84,4.12-4.11s-1.84-4.11-4.12-4.11-4.12,1.84-4.12,4.11,1.84,4.11,4.12,4.11Z"/>
        <path class="cls-2" d="M549.96,769.63c9.37,0,16.96-7.59,16.96-16.95s-7.6-16.95-16.96-16.95-16.96,7.59-16.96,16.95,7.6,16.95,16.96,16.95Z"/>
        <path class="cls-2" d="M462.4,677.1c4.98,0,9.02-4.04,9.02-9.02s-4.04-9.02-9.02-9.02-9.02,4.04-9.02,9.02,4.04,9.02,9.02,9.02Z"/>
        <path class="cls-2" d="M345.82,678.96c9.37,0,16.96-7.59,16.96-16.95s-7.59-16.95-16.96-16.95-16.96,7.59-16.96,16.95,7.6,16.95,16.96,16.95Z"/>
        <path class="cls-2" d="M438.28,593.86c2.27,0,4.12-1.84,4.12-4.11s-1.84-4.11-4.12-4.11-4.12,1.84-4.12,4.11,1.84,4.11,4.12,4.11Z"/>
        <path class="cls-2" d="M549.96,588.29c9.37,0,16.96-7.59,16.96-16.95s-7.6-16.95-16.96-16.95-16.96,7.59-16.96,16.95,7.6,16.95,16.96,16.95Z"/>
        <path class="cls-2" d="M234.18,503.19c2.27,0,4.12-1.84,4.12-4.11s-1.84-4.11-4.12-4.11-4.12,1.84-4.12,4.11,1.84,4.11,4.12,4.11Z"/>
        <path class="cls-2" d="M258.29,405.09c4.98,0,9.02-4.04,9.02-9.02s-4.04-9.02-9.02-9.02-9.02,4.04-9.02,9.02,4.04,9.02,9.02,9.02Z"/>
        <path class="cls-2" d="M234.18,321.86c2.27,0,4.12-1.84,4.12-4.11s-1.84-4.11-4.12-4.11-4.12,1.84-4.12,4.11,1.84,4.11,4.12,4.11Z"/>
        <path class="cls-2" d="M258.29,223.75c4.98,0,9.02-4.04,9.02-9.02s-4.04-9.02-9.02-9.02-9.02,4.04-9.02,9.02,4.04,9.02,9.02,9.02Z"/>
        <path class="cls-2" d="M141.71,406.96c9.37,0,16.96-7.59,16.96-16.95s-7.6-16.95-16.96-16.95-16.96,7.59-16.96,16.95,7.59,16.95,16.96,16.95Z"/>
        <path class="cls-2" d="M141.71,225.62c9.37,0,16.96-7.59,16.96-16.95s-7.6-16.95-16.96-16.95-16.96,7.59-16.96,16.95,7.59,16.95,16.96,16.95Z"/>
        <path class="cls-2" d="M234.18,684.53c2.27,0,4.12-1.84,4.12-4.11s-1.84-4.11-4.12-4.11-4.12,1.84-4.12,4.11,1.84,4.11,4.12,4.11Z"/>
        <path class="cls-2" d="M258.29,586.42c4.98,0,9.02-4.04,9.02-9.02s-4.04-9.02-9.02-9.02-9.02,4.04-9.02,9.02,4.04,9.02,9.02,9.02Z"/>
        <path class="cls-2" d="M141.71,588.29c9.37,0,16.96-7.59,16.96-16.95s-7.6-16.95-16.96-16.95-16.96,7.59-16.96,16.95,7.59,16.95,16.96,16.95Z"/>
      </g>
    </g>
    <path class="cls-11" d="M498.78,788.67l61.37,57.19c12.47,7.96,26.19,12.13,40.12,12.13h79.54c24.11,0,47.27-12.51,64.32-34.71l29.52-38.45"/>
    <path class="cls-2" d="M679.77,860.69h-79.54c-14.14,0-28.31-4.28-41.04-12.4l-61.66-57.46,2.41-4.39,61.37,57.19c11.85,7.53,25.4,11.64,38.92,11.64h79.54c23.74,0,46.07-12.02,62.87-33.9l29.52-38.45,2.95,3.84-29.52,38.45c-17.59,22.91-40.95,35.52-65.82,35.52v-.05Z"/>
    <ellipse class="cls-2" cx="636.22" cy="779.28" rx="83.15" ry="44.7"/>
    <path class="cls-12" d="M1009.49,580.44c-5.95,90.54-80.7,163.59-171.39,167.54-37.75,1.66-73.01-8.31-102.61-26.64-2.33-1.45-5.49-.46-6.32,2.16-7.98,26.18-32.31,45.13-61.12,45.13-13.6,0-18.64-13.38-28.95-20.73-10.31,7.27-24.41,24.5-44.4,20.73-27.05-5.1-50.98-17.41-59.87-41.93-.91-2.53-3.74-3.66-6.07-2.33-32.22,18.49-70.64,27.3-111.35,22.48-82.12-9.72-147.93-76.13-156.92-158.28-11.85-108.37,72.8-200.08,178.83-200.08,50.68,0,96.42,20.94,129.1,54.64,16.38,16.91,39.29,24.68,62.74,22.61,1.91-.17,3.83-.25,5.78-.25s3.99.08,5.95.29c22.2,2.08,43.49-8.02,59.17-23.85,32.6-32.99,77.88-53.44,127.93-53.44,103.36,0,186.31,87.14,179.49,191.93Z"/>
    <ellipse class="cls-9" cx="619.91" cy="486.74" rx="299.37" ry="173.33"/>
    <path class="cls-4" d="M446.93,733.81c85.33,0,154.5-69.13,154.5-154.41s-69.17-154.41-154.5-154.41-154.5,69.13-154.5,154.41,69.17,154.41,154.5,154.41Z"/>
    <path class="cls-2" d="M446.94,735.89c-86.36,0-156.58-70.22-156.58-156.49s70.27-156.49,156.58-156.49,156.58,70.22,156.58,156.49-70.27,156.49-156.58,156.49ZM446.94,427.07c-84.07,0-152.43,68.35-152.43,152.33s68.4,152.33,152.43,152.33,152.43-68.35,152.43-152.33-68.4-152.33-152.43-152.33Z"/>
    <path class="cls-2" d="M446.94,600.26c12.06,0,21.83-9.77,21.83-21.82s-9.77-21.82-21.83-21.82-21.83,9.77-21.83,21.82,9.77,21.82,21.83,21.82Z"/>
    <path class="cls-4" d="M820.22,733.81c85.33,0,154.5-69.13,154.5-154.41s-69.17-154.41-154.5-154.41-154.5,69.13-154.5,154.41,69.17,154.41,154.5,154.41Z"/>
    <path class="cls-2" d="M820.22,735.89c-86.36,0-156.58-70.22-156.58-156.49s70.27-156.49,156.58-156.49,156.58,70.22,156.58,156.49-70.27,156.49-156.58,156.49ZM820.22,427.07c-84.07,0-152.43,68.35-152.43,152.33s68.4,152.33,152.43,152.33,152.42-68.35,152.42-152.33-68.4-152.33-152.42-152.33Z"/>
    <path class="cls-2" d="M828.02,598.37c11.01,0,19.93-8.92,19.93-19.92s-8.92-19.92-19.93-19.92-19.93,8.92-19.93,19.92,8.92,19.92,19.93,19.92Z"/>
    <path class="cls-2" d="M594.37,773.66c-3.28,0-6.49-.29-9.65-.91-7.32-1.41-14.05-4.57-19.5-9.14l2.66-3.2c3.41,2.87,9.23,6.61,17.63,8.23,16.8,3.28,37.59-3.7,46.32-15.54,4.91-6.65,4.7-13.42,3.66-17.95l4.03-.96c1.25,5.36,1.5,13.42-4.37,21.36-8.11,10.97-24.78,18.03-40.83,18.03l.04.08Z"/>
    <path class="cls-2" d="M683.89,773.66c-16.05,0-32.72-7.06-40.83-18.03-5.86-7.94-5.61-16-4.37-21.36l4.03.96c-1.04,4.49-1.29,11.26,3.66,17.95,8.73,11.84,29.52,18.78,46.32,15.54,8.36-1.62,14.22-5.36,17.63-8.23l2.66,3.2c-5.45,4.53-12.18,7.69-19.5,9.14-3.12.62-6.36.91-9.65.91l.04-.08Z"/>
    <path class="cls-4" d="M591.79,772.83c-3.49-1.41-7.36-1.7-11.06-2.49-.17,0-.29-.17-.42-.21-1.37,0-2.79.12-4.16.08l-2,8.56,2.79,11.93,6.78,4.95,6.78-4.95,2.79-11.93-1.41-5.94h-.08Z"/>
    <path class="cls-2" d="M583.68,798.18l-8.61-6.27-3.08-13.13,2.49-10.68h1.66c.96.04,1.91,0,2.87,0h1.58l.75.25c1.04.21,2.08.37,3.08.54,2.62.46,5.32.87,7.94,1.91l.38.17.87.42,1.75,7.35-3.08,13.13-8.61,6.28v.04ZM578.78,789.45l4.91,3.57,4.91-3.57,2.49-10.68-1.04-4.36c-1.95-.67-4.08-1.04-6.32-1.41-1.16-.21-2.33-.37-3.49-.62l-.46-.12h-.62c-.46,0-.92.04-1.41.08l-1.54,6.48,2.49,10.68.08-.04Z"/>
    <path class="cls-4" d="M682.89,771.54l-1.7,7.23,2.79,11.93,6.78,4.94,6.78-4.94,2.79-11.93-1.91-8.23c-5.16.37-10.31.79-15.51,1Z"/>
    <path class="cls-2" d="M690.75,798.17l-8.61-6.27-3.08-13.13,2.16-9.22,1.58-.08c5.15-.21,10.27-.58,15.42-1l1.79-.12,2.45,10.43-3.08,13.13-8.61,6.27h-.04ZM685.84,789.45l4.91,3.57,4.91-3.57,2.49-10.68-1.41-6.03c-4.07.29-8.15.58-12.22.79l-1.25,5.24,2.49,10.68h.08Z"/>
    <path class="cls-4" d="M908.03,631.88c23.12,0,41.87-18.73,41.87-41.84s-18.75-41.84-41.87-41.84-41.87,18.73-41.87,41.84,18.75,41.84,41.87,41.84Z"/>
    <path class="cls-4" d="M373.65,628.35c23.12,0,41.87-18.73,41.87-41.84s-18.75-41.84-41.87-41.84-41.87,18.73-41.87,41.84,18.75,41.84,41.87,41.84Z"/>
    <g class="cls-6">
      <path class="cls-3" d="M242.08,258.7l18.29,98.73c.71,3.82,3.66,6.81,7.48,7.56l94.51,18.28c9.06,1.75,15.01-9.18,8.61-15.83l-112.8-117.05c-6.49-6.73-17.79-.96-16.09,8.27l18.29,98.73c.71,3.82,3.66,6.82,7.48,7.56l94.51,18.28c9.06,1.74,15.01-9.18,8.61-15.83l-112.8-117.05c-6.49-6.73-17.79-.96-16.09,8.27v.08Z"/>
    </g>
    <g class="cls-6">
      <path class="cls-3" d="M1011.69,258.24l-18.29,98.73c-.71,3.82-3.66,6.81-7.48,7.56l-94.51,18.28c-9.06,1.75-15.01-9.18-8.61-15.83l112.8-117.05c6.49-6.73,17.8-.96,16.09,8.27l-18.29,98.73c-.71,3.82-3.66,6.82-7.48,7.56l-94.51,18.28c-9.06,1.74-15.01-9.18-8.61-15.83l112.8-117.05c6.49-6.73,17.8-.96,16.09,8.27v.08Z"/>
    </g>
    <path class="cls-12" d="M697.57,693.05l13.1-19.78c2.7-4.11-.37-13.46-5.03-15.25l-22.08-8.48c-3.08-1.2-5.86-6.07-6.03-10.72-.21-4.53-2.83-9.31-5.86-10.64l-15.43-6.65"/>
    <path class="cls-2" d="M699.27,694.21l-3.45-2.28,13.1-19.78c.87-1.33.91-3.91.04-6.57-.87-2.74-2.54-4.99-4.12-5.61l-22.08-8.48c-3.91-1.5-7.15-7.02-7.36-12.55-.17-4.11-2.58-7.94-4.61-8.81l-15.43-6.65,1.66-3.82,15.42,6.65c3.78,1.62,6.9,7.11,7.11,12.47.17,4.11,2.62,8.06,4.7,8.85l22.08,8.48c2.83,1.08,5.28,4.15,6.57,8.23,1.25,3.91,1.04,7.69-.54,10.1l-13.1,19.78Z"/>
    <path class="cls-12" d="M572,690.76l-13.1-19.78c-2.7-4.11.37-13.46,5.03-15.25l22.08-8.48c3.08-1.2,5.86-6.07,6.03-10.72.21-4.53,2.83-9.31,5.86-10.64l15.42-6.65"/>
    <path class="cls-2" d="M570.26,691.92l-13.1-19.78c-1.58-2.41-1.79-6.19-.54-10.1,1.29-4.07,3.74-7.15,6.57-8.23l22.08-8.48c2.08-.79,4.53-4.74,4.7-8.85.21-5.36,3.37-10.85,7.11-12.47l15.43-6.65,1.66,3.82-15.42,6.65c-2.04.87-4.45,4.74-4.61,8.81-.25,5.53-3.45,11.05-7.36,12.55l-22.08,8.48c-1.58.62-3.24,2.87-4.12,5.61-.83,2.66-.83,5.24.04,6.57l13.1,19.78-3.45,2.29Z"/>
    <path class="cls-2" d="M581.69,669.44c36.92,1.5,73.76,1.54,110.47.04,18.09-.71,26.65,15.58,12.31,23.48-19.5,10.76-37,22.48-51.27,35.74-7.03,6.52-20.54,7.19-28.19,1.08-16.42-13.13-34.92-25.43-55.63-36.82-14.35-7.94-5.82-24.23,12.31-23.52Z"/>
    <path class="cls-2" d="M680.44,644.14h-37.75v4.15h37.75v-4.15Z"/>
  </g>
</svg>