<?xml version="1.0" encoding="UTF-8"?>
<svg xmlns="http://www.w3.org/2000/svg" xmlns:xlink="http://www.w3.org/1999/xlink" viewBox="0 0 1178.6 1420.81">
  <defs>
    <style>
      .cls-1 {
        fill: url(#radial-gradient-3);
        opacity: .65;
      }

      .cls-2 {
        mask: url(#mask-1);
      }

      .cls-3 {
        fill: #231f20;
      }

      .cls-4 {
        fill: #a5764d;
      }

      .cls-5, .cls-6 {
        fill: #fff;
      }

      .cls-7 {
        mask: url(#mask);
      }

      .cls-8 {
        opacity: .41;
      }

      .cls-9 {
        stroke: #fcc189;
        stroke-width: 80px;
      }

      .cls-9, .cls-6, .cls-10, .cls-11 {
        stroke-miterlimit: 10;
      }

      .cls-9, .cls-10, .cls-11 {
        fill: none;
      }

      .cls-9, .cls-11 {
        stroke-linecap: round;
      }

      .cls-12 {
        fill: url(#radial-gradient-5);
      }

      .cls-13 {
        fill: url(#radial-gradient);
      }

      .cls-14 {
        mask: url(#mask-2);
      }

      .cls-6 {
        stroke-width: 4px;
      }

      .cls-6, .cls-10, .cls-11 {
        stroke: #231f20;
      }

      .cls-10 {
        stroke-width: 30px;
      }

      .cls-11 {
        stroke-width: 89px;
      }

      .cls-15 {
        fill: #fcc189;
      }

      .cls-16 {
        fill: url(#radial-gradient-2);
      }

      .cls-17 {
        fill: url(#radial-gradient-4);
      }

      .cls-18 {
        fill: #fed7b4;
      }
    </style>
    <mask id="mask" x="492.67" y="923" width="83.32" height="460.74" maskUnits="userSpaceOnUse">
      <g id="mask0_35406_3843" data-name="mask0 35406 3843">
        <path class="cls-5" d="M551.09,1009.01c-1.25-3.41-1.91-7.31-1.83-11.64,1.21-4.78,2.45-9.43,3.87-14.09,1.91-1.33,3.62-2.66,5.28-4.03-16.17.21-32.43-10.06-32.31-30.87.04-8.48,1.25-17.54-2.04-25.39-.91,3.37-1.87,6.4-3.08,8.98-1.29,4.07-2.74,8.23-4.49,12.42-1.41,4.36-2.79,8.77-4.12,13.17-2.66,8.85-5.16,17.78-7.4,26.89,3.58,3.28,7.15,6.61,10.48,9.68,3.7,6.15,8.48,11.68,14.01,16.16v59.67c-2.49,33.24-2.49,73.22,0,103.3v163.93c0,12.76,6.07,24.14,15.43,31.45-.04-.74-.21-1.45-.21-2.24.25-58.96,1.66-119.05,5.95-178.68.38-4.98.79-9.93,1.58-14.79,22.78-29.71,30.77-69.68,17.01-109.86-.5-4.57-1.08-9.1-1.83-13.71.79-3.57,1.71-7.23,2.74-10.89,1.04-3.66,2.12-7.35,3.37-11.05-9.85-2.04-18.67-8.14-22.37-18.41h-.04Z"/>
      </g>
    </mask>
    <mask id="mask-1" x="704.64" y="894.95" width="64.36" height="488.79" maskUnits="userSpaceOnUse">
      <g id="mask1_35406_3843" data-name="mask1 35406 3843">
        <path class="cls-5" d="M762.14,931.14c-3.95-6.48-9.23-17.95-15.43-29-11.77,39.97-22.12,80.28-30.39,120.59-1.04,5.03-2.95,9.02-5.41,12.3-1.16,2.2-2.54,4.28-4.24,6.19,10.44,34.41,11.27,74.26,9.48,102.64-2.49,39.4-5.53,78.54-6.24,118.06-.33,18.11-12.47,72.38,1.25,84.97,9.94,9.1,11.68,19.99,8.65,29.63,19.58-3.12,33.68-20.99,33.68-41.06v-332.25c9.61-10.89,15.51-25.26,15.51-41.01v-19.2c-2.16-3.91-4.41-7.85-6.86-11.84Z"/>
      </g>
    </mask>
    <radialGradient id="radial-gradient" cx="414.77" cy="445.83" fx="414.77" fy="445.83" r="278.47" gradientTransform="translate(0 149.6) scale(1 .68)" gradientUnits="userSpaceOnUse">
      <stop offset="0" stop-color="#ed1c24"/>
      <stop offset="1" stop-color="#fed7b4" stop-opacity="0"/>
    </radialGradient>
    <radialGradient id="radial-gradient-2" cx="809.93" fx="809.93" xlink:href="#radial-gradient"/>
    <radialGradient id="radial-gradient-3" cx="614.16" fx="614.16" xlink:href="#radial-gradient"/>
    <mask id="mask-2" x="124.75" y="191.72" width="930.57" height="1012.92" maskUnits="userSpaceOnUse">
      <g id="mask2_35406_3843" data-name="mask2 35406 3843">
        <path class="cls-5" d="M953.81,221.55l-166.19,106.42c-35.67,14.38-253.54,14-288.84-1.12l-188.43-100.77c-100.16-42.8-94.96,73.63-85.61,182.08l20.42,236.31c3.53,39.89,21.91,75.17,49.52,103.97,40.87,42.72,98.5,65.15,157.62,65.15h9.36c-12.31,22.73-23.03,46.29-32.18,70.6l-22.66-24.56s-.17-.12-.25-.21c-2.41,6.81-6.82,12.76-13.51,15.87-17.13,8.02-32.14,19.07-48.85,27.67-6.49,12.3-19.46,20.44-35.05,14.34-35.67-14-60.33-38.48-90.64-60.71-29.27-21.48-48.9-34.78-54.51-70.22l-4.82,4.82c-13.85,13.84-12.97,36.48,1.91,49.2l142.9,122.04,8.73,7.52c6.49,5.44,16.09,4.74,21.54-1.74,13.26-15.67,35.67-42.22,52.39-62.04,5.7-6.65,15.51-7.27,21.91-1.37,2.95,2.7,6.49,5.98,10.39,9.6-25.11,79.41-33.22,164.96-23.37,248.11,1.96,16.41,13.64,29.17,28.57,33.53-3.04-23.97-1-47.7.37-72.3,2-36.11,2.87-71.97,9.44-107.71,6.69-36.44,14.84-74.59,27.03-109.62,11.68-33.58,28.65-64.99,40.29-98.6,0-.08.04-.12.08-.17-9.27-15.17-21.08-19.61-40.04-22.98-31.56-5.61-64.36-6.65-89.85-28.8-27.27-23.73-36.84-59.42-41.95-93.83-5.4-36.23-5.65-72.68-15.18-108.24-10.1-37.73-17.71-75.29-22.7-114.06-4.82-37.56-26.24-121.54,33.8-125.07,27.52-1.62,61.08,17.2,84.61,29.04,36.92,18.53,71.39,43.88,110.64,57.43,79.95,27.63,183.77,1.87,261.86-21.19,31.31-9.27,65.28-22.81,95.26-21.07,17.17-10.18,32.76-30.67,51.06-36.61,21.58-6.98,42.99.21,54.76,19.7,25.61,42.26,9.65,113.48,7.36,158.77-3.45,68.98.21,140.66-49.15,195.71-22.33,24.89-51.14,40.39-79.75,56.26-19.46,23.35-42.87,42.3-74.8,48.24-1.62.29-3.28.42-4.91.5-4.36,12.17-8.65,24.39-12.81,36.69,11.52,10.22,20.04,23.35,29.06,38.89,16.51,28.42,36.01,55.47,46.86,86.8,25.2,73.01,23.62,163.3,18.34,240.79,16.76-3.61,29.94-17.7,31.47-35.56,7.36-86.51-4.57-174.98-34.47-255.8-12.97-34.86-28.98-68.15-48.02-99.64h4.41c54.88,0,108.73-19.45,148.81-56.84,31.27-29.17,52.89-65.9,57.67-108.12l27.19-239.18c12.39-108.58,4.16-228.96-97.21-187.9l.12-.04Z"/>
      </g>
    </mask>
    <radialGradient id="radial-gradient-4" cx="-774.22" cy="614.77" fx="-774.22" fy="614.77" r="272.95" gradientTransform="translate(958.12 149.6) scale(.68)" gradientUnits="userSpaceOnUse">
      <stop offset=".76" stop-color="#ed1c24" stop-opacity="0"/>
      <stop offset=".88" stop-color="#ed1c24" stop-opacity=".3"/>
      <stop offset="1" stop-color="#ed1c24" stop-opacity="0"/>
    </radialGradient>
    <radialGradient id="radial-gradient-5" cx="-190.01" fx="-190.01" xlink:href="#radial-gradient-4"/>
  </defs>
  <g id="Layer_3" data-name="Layer 3">
    <g>
      <path class="cls-15" d="M571.36,1015.5c2.36-2.54,2.3-6.49-.16-8.93l-162.38-163.97c-5.74-5.82-14.99-6.07-21.03-.61-11.96,10.87-31.5,28.58-48.3,43.83-6.2,5.63-15.74,5.23-21.38-.93-24.3-26.44-72.46-78.74-101.74-110.62-13.21-14.36-35.84-14.38-49.14-.09l-8.37,8.99c-13.3,14.29-11.6,36.89,3.69,49.01l147.27,116.82,9,7.16c6.64,5.25,16.25,4.15,21.46-2.48,12.65-16.09,34.12-43.48,50.11-63.89,5.41-6.89,15.19-7.87,21.85-2.2,37.57,32.11,150.19,128.44,150.19,128.44,2.62,2.23,6.56,2.01,8.93-.49v-.04Z"/>
      <path class="cls-3" d="M566.93,1019.66c-2.08.08-4.18-.6-5.86-2.03l-150.19-128.44c-2.75-2.35-6.2-3.48-9.81-3.14-3.57.34-6.79,2.16-9.05,5.03l-50.11,63.89c-2.86,3.64-6.98,5.95-11.58,6.49-4.6.58-9.18-.75-12.82-3.65l-156.27-123.94c-7.75-6.12-12.62-15.3-13.35-25.17-.73-9.87,2.7-19.64,9.43-26.87l8.37-8.99c6.73-7.23,16.31-11.44,26.17-11.34,9.99.01,19.24,4.08,26.04,11.45l101.74,110.62c4.85,5.27,13.14,5.64,18.46.83l48.3-43.83c6.85-6.24,17.38-5.95,23.91.67l162.38,163.97c3.24,3.25,3.3,8.44.18,11.8-1.6,1.72-3.77,2.63-5.93,2.71v-.04ZM401.76,881.82c4.32-.16,8.45,1.32,11.84,4.19l150.19,128.44c1.8,1.56,4.46,1.38,6.06-.34,1.6-1.72,1.55-4.38-.1-6.07l-162.38-163.97c-4.97-5.02-12.96-5.27-18.16-.51l-48.3,43.83c-7.01,6.37-17.93,5.89-24.29-1.07l-101.74-110.62c-5.98-6.52-14.14-10.09-22.96-10.15-8.86-.01-17.06,3.53-23.1,10.03l-8.37,8.99c-6.05,6.5-8.99,14.92-8.33,23.75.65,8.83,4.85,16.71,11.79,22.23l156.27,123.94c2.78,2.19,6.23,3.18,9.75,2.77,3.48-.42,6.62-2.15,8.77-4.93l50.11-63.89c2.98-3.77,7.18-6.12,11.91-6.59l1.08-.04h-.04Z"/>
    </g>
  </g>
  <g id="Layer_6" data-name="Layer 6">
    <g>
      <path class="cls-11" d="M510.56,840.52c-13.37,30.86-31.75,83.22-43.1,127.93-35.17,138.52-48.5,380.58-146.62,377.5"/>
      <path class="cls-9" d="M510.56,840.52c-13.37,30.86-31.75,83.22-43.1,127.93-35.17,138.52-48.5,380.58-146.62,377.5"/>
    </g>
    <g>
      <path class="cls-11" d="M737.11,840.52c13.37,30.86,31.75,83.22,43.1,127.93,35.17,138.52,48.5,380.58,146.62,377.5"/>
      <path class="cls-9" d="M737.11,840.52c13.37,30.86,31.75,83.22,43.1,127.93,35.17,138.52,48.5,380.58,146.62,377.5"/>
    </g>
  </g>
  <g id="Layer_2" data-name="Layer 2">
    <g>
      <path class="cls-15" d="M766.41,751.71c-.65-.83-1.28-1.66-1.94-2.49v-15.75c0-34.2-27.73-62.04-62.08-62.04h-138.33c-34.3,0-62.08,27.8-62.08,62.04v8.06c-.98,1.33-1.93,2.67-2.9,4.01v167.76c.95-2.54,1.9-5.07,2.9-7.59v64.03c0,19.41,8.94,36.77,22.95,48.12v326.9c0,23.39,20.08,42.09,43.95,39.81,20.79-2,36.05-20.66,36.05-41.51v-311.32h64.03v313.06c0,23.39,20.08,42.09,43.95,39.81,20.79-2,36.05-20.65,36.05-41.51v-332.26c9.6-10.85,15.51-25.26,15.51-41.01v-70.06c.65,1.37,1.3,2.75,1.94,4.13v-152.19Z"/>
      <path class="cls-3" d="M504.02,742.25v-8.77c0-33.08,26.9-59.96,60-59.96h138.33c33.1,0,60,26.88,60,59.96v16.5l.46.58c1.22,1.53,2.4,3.08,3.6,4.62v-25.18c-1.81-33.75-29.84-60.64-64.06-60.64h-138.33c-35.38,0-64.16,28.75-64.16,64.11v7.4c-.26.36-.51.72-.78,1.08v7.08c1.5-2.09,2.99-4.18,4.52-6.25l.42-.54Z"/>
      <path class="cls-3" d="M766.41,899.23c-.05-.11-.1-.22-.15-.32l-3.95-8.31v79.24c0,14.59-5.32,28.67-15.01,39.64l-.5.58v333.05c0,20.32-15.01,37.65-34.18,39.48-10.85,1.03-21.2-2.41-29.23-9.69-7.9-7.14-12.43-17.41-12.43-28.04v-315.14h-68.15v313.39c0,20.32-15.01,37.65-34.18,39.48-10.85,1.08-21.21-2.37-29.23-9.64-7.9-7.15-12.43-17.42-12.43-28.05v-327.89l-.75-.62c-14.09-11.47-22.2-28.42-22.2-46.54v-75.04l-3.99,10.18c-.32.8-.63,1.6-.94,2.41v11.92c.26-.72.52-1.44.78-2.15v52.73c0,19.03,8.36,36.9,22.95,49.11v325.9c0,11.8,5.03,23.14,13.8,31.12,7.86,7.11,17.75,10.93,28.23,10.93h.04c1.37,0,2.79-.08,4.2-.21,21.25-2.04,37.92-21.19,37.92-43.59v-309.23h59.83v310.98c0,11.8,5.03,23.14,13.8,31.12,8.9,8.06,20.37,11.88,32.43,10.72,21.25-2.04,37.92-21.19,37.92-43.59v-331.51c9.29-10.78,14.67-24.28,15.41-38.43v-73.98Z"/>
      <path class="cls-18" d="M708.04,778.77h-140.16c-11.64,0-21.08,9.43-21.08,21.07v170.66c0,11.63,9.44,21.07,21.08,21.07h140.16c11.64,0,21.08-9.43,21.08-21.07v-170.66c0-11.64-9.44-21.07-21.08-21.07Z"/>
      <g class="cls-7">
        <g>
          <path class="cls-3" d="M549.55,962.56c1.17,0,2.12-.95,2.12-2.12s-.95-2.12-2.12-2.12-2.12.95-2.12,2.12.95,2.12,2.12,2.12Z"/>
          <path class="cls-3" d="M549.55,1151c1.17,0,2.12-.95,2.12-2.12s-.95-2.12-2.12-2.12-2.12.95-2.12,2.12.95,2.12,2.12,2.12Z"/>
          <path class="cls-3" d="M562.07,1100.05c2.59,0,4.7-2.1,4.7-4.69s-2.1-4.7-4.7-4.7-4.7,2.1-4.7,4.7,2.1,4.69,4.7,4.69Z"/>
          <path class="cls-3" d="M549.55,1056.76c1.17,0,2.12-.95,2.12-2.12s-.95-2.12-2.12-2.12-2.12.95-2.12,2.12.95,2.12,2.12,2.12Z"/>
          <path class="cls-3" d="M562.07,1005.86c2.59,0,4.7-2.1,4.7-4.7s-2.1-4.7-4.7-4.7-4.7,2.1-4.7,4.7,2.1,4.7,4.7,4.7Z"/>
          <path class="cls-3" d="M501.49,1083.39c-.83,0-1.64.12-2.4.34v16.94c.76.22,1.57.34,2.4.34,4.87,0,8.81-3.94,8.81-8.81s-3.95-8.81-8.81-8.81Z"/>
          <path class="cls-3" d="M501.49,989.19c-.83,0-1.64.12-2.4.34v16.94c.76.22,1.57.34,2.4.34,4.87,0,8.81-3.94,8.81-8.81s-3.95-8.81-8.81-8.81Z"/>
          <path class="cls-3" d="M549.55,1339.49c1.17,0,2.12-.95,2.12-2.12s-.95-2.12-2.12-2.12-2.12.95-2.12,2.12.95,2.12,2.12,2.12Z"/>
          <path class="cls-3" d="M562.07,1288.54c2.59,0,4.7-2.1,4.7-4.69s-2.1-4.7-4.7-4.7-4.7,2.1-4.7,4.7,2.1,4.69,4.7,4.69Z"/>
          <path class="cls-3" d="M549.55,1245.24c1.17,0,2.12-.95,2.12-2.12s-.95-2.11-2.12-2.11-2.12.94-2.12,2.11.95,2.12,2.12,2.12Z"/>
          <path class="cls-3" d="M562.07,1194.3c2.59,0,4.7-2.1,4.7-4.7s-2.1-4.69-4.7-4.69-4.7,2.1-4.7,4.69,2.1,4.7,4.7,4.7Z"/>
          <path class="cls-3" d="M501.49,1289.49c4.87,0,8.81-3.94,8.81-8.8s-3.95-8.81-8.81-8.81-8.82,3.94-8.82,8.81,3.95,8.8,8.82,8.8Z"/>
          <path class="cls-3" d="M501.49,1177.64c-.83,0-1.64.12-2.4.34v16.94c.76.22,1.57.34,2.4.34,4.87,0,8.81-3.95,8.81-8.81s-3.95-8.81-8.81-8.81Z"/>
          <path class="cls-3" d="M501.49,1383.74c4.87,0,8.81-3.95,8.81-8.81s-3.95-8.81-8.81-8.81-8.82,3.94-8.82,8.81,3.95,8.81,8.82,8.81Z"/>
        </g>
      </g>
      <g class="cls-2">
        <g>
          <path class="cls-3" d="M713.66,912.57c4.87,0,8.81-3.94,8.81-8.81s-3.95-8.81-8.81-8.81-8.82,3.94-8.82,8.81,3.95,8.81,8.82,8.81Z"/>
          <path class="cls-3" d="M761.68,1151c1.17,0,2.12-.95,2.12-2.12s-.95-2.12-2.12-2.12-2.12.95-2.12,2.12.95,2.12,2.12,2.12Z"/>
          <path class="cls-3" d="M761.68,1056.76c1.17,0,2.12-.95,2.12-2.12s-.95-2.12-2.12-2.12-2.12.95-2.12,2.12.95,2.12,2.12,2.12Z"/>
          <path class="cls-3" d="M713.66,1101c4.87,0,8.81-3.94,8.81-8.81s-3.95-8.81-8.81-8.81-8.82,3.94-8.82,8.81,3.95,8.81,8.82,8.81Z"/>
          <path class="cls-3" d="M761.68,1339.49c1.17,0,2.12-.95,2.12-2.12s-.95-2.12-2.12-2.12-2.12.95-2.12,2.12.95,2.12,2.12,2.12Z"/>
          <path class="cls-3" d="M761.68,1245.24c1.17,0,2.12-.95,2.12-2.12s-.95-2.11-2.12-2.11-2.12.94-2.12,2.11.95,2.12,2.12,2.12Z"/>
          <path class="cls-3" d="M713.66,1289.49c4.87,0,8.81-3.94,8.81-8.8s-3.95-8.81-8.81-8.81-8.82,3.94-8.82,8.81,3.95,8.8,8.82,8.8Z"/>
          <path class="cls-3" d="M713.66,1195.26c4.87,0,8.81-3.95,8.81-8.81s-3.95-8.81-8.81-8.81-8.82,3.94-8.82,8.81,3.95,8.81,8.82,8.81Z"/>
          <path class="cls-3" d="M713.66,1383.74c4.87,0,8.81-3.95,8.81-8.81s-3.95-8.81-8.81-8.81-8.82,3.94-8.82,8.81,3.95,8.81,8.82,8.81Z"/>
        </g>
      </g>
    </g>
  </g>
  <g id="Layer_4" data-name="Layer 4">
    <path class="cls-15" d="M554.45,1318.75h-105.36c-25.17,0-45.57,10.68-45.57,23.85v18.37c0,13.17,20.41,23.85,45.57,23.85h105.36"/>
    <path class="cls-3" d="M554.45,1386.4h-105.36c-26.76,0-48.59-11.39-48.59-25.43v-18.37c0-14,21.76-25.43,48.59-25.43h105.36v3.12h-105.36c-23.5,0-42.64,10.01-42.64,22.31v18.37c0,12.3,19.13,22.31,42.64,22.31h105.36v3.12Z"/>
  </g>
  <g id="Layer_5" data-name="Layer 5">
    <path class="cls-15" d="M705.55,1318.75h106.99c25.56,0,46.28,10.68,46.28,23.85v18.37c0,13.17-20.72,23.85-46.28,23.85h-106.99"/>
    <path class="cls-3" d="M812.46,1386.4h-106.99v-3.12h106.99c23.87,0,43.3-10.01,43.3-22.31v-18.37c0-12.3-19.43-22.31-43.3-22.31h-106.99v-3.12h106.99c27.17,0,49.34,11.38,49.34,25.43v18.37c0,14-22.09,25.43-49.34,25.43Z"/>
  </g>
  <g id="Layer_1" data-name="Layer 1">
    <path class="cls-15" d="M447.77,812.47h364.97c54.92,0,108.73-19.36,148.85-56.84,31.27-29.17,52.89-65.86,57.71-108.12l27.19-239.14c12.35-108.58,4.16-228.96-97.21-187.98l-166.23,106.46c-35.59,14.38-253.5,14-288.8-1.12l-188.47-100.77c-100.12-42.8-94.92,73.63-85.57,182.08l20.42,236.27c3.45,39.89,21.87,75.17,49.48,103.97,40.87,42.67,98.54,65.15,157.66,65.15v.04Z"/>
    <path class="cls-18" d="M1007.6,577.65c-5.95,90.54-80.7,163.59-171.39,167.54-37.75,1.66-73.01-8.31-102.61-26.64-2.33-1.45-5.49-.46-6.32,2.16-7.98,26.18-32.31,45.13-61.12,45.13-13.6,0-26.32-4.24-36.63-11.59-10.31,7.27-22.95,11.59-36.71,11.59-27.52,0-50.98-17.41-59.87-41.93-.91-2.53-3.74-3.66-6.07-2.33-32.22,18.49-70.64,27.3-111.35,22.48-82.12-9.72-147.93-76.13-156.92-158.28-11.85-108.37,72.8-200.08,178.83-200.08,50.68,0,96.42,20.94,129.1,54.64,16.38,16.91,39.29,24.68,62.74,22.61,1.91-.17,3.83-.25,5.78-.25s3.99.08,5.95.29c22.2,2.08,43.49-8.02,59.17-23.85,32.6-32.99,77.88-53.44,127.93-53.44,103.36,0,186.31,87.14,179.49,191.93Z"/>
    <ellipse class="cls-13" cx="414.77" cy="451.6" rx="299.37" ry="173.33"/>
    <ellipse class="cls-16" cx="809.93" cy="451.6" rx="299.37" ry="173.33"/>
    <ellipse class="cls-1" cx="614.16" cy="451.6" rx="299.37" ry="173.33"/>
    <path class="cls-3" d="M812.74,814.55h-364.97c-61.08,0-119.12-23.98-159.16-65.82-29.44-30.75-46.73-67.11-50.02-105.21l-20.42-236.27c-6.9-80.07-10.77-160.35,23.91-185.41,15.18-10.97,36.92-10.55,64.53,1.29l188.64,100.81c34.05,14.54,251.51,15.38,287.06,1l165.9-106.25c29.4-11.93,52.85-11.26,70.06,1.83,39.38,29.92,38.25,118.8,30.35,188.15l-27.19,239.14c-4.57,40.22-24.74,78.08-58.33,109.41-39.67,37.02-93.05,57.42-150.26,57.42l-.08-.08ZM268.48,217.89c-9.35,0-17.34,2.41-24.03,7.27-32.89,23.77-28.98,102.8-22.2,181.71l20.41,236.27c3.2,37.15,20.12,72.68,48.9,102.72,39.29,41.01,96.21,64.53,156.17,64.53h364.97c56.17,0,108.56-19.99,147.44-56.3,32.85-30.67,52.6-67.61,57.04-106.83l27.19-239.14c7.78-68.23,9.06-155.61-28.73-184.37-15.97-12.13-38.04-12.63-65.65-1.45l-165.9,106.25c-37.67,15.29-254.79,14.42-290.76-.96l-188.6-100.81c-13.89-5.94-25.95-8.89-36.3-8.89h.04Z"/>
    <g class="cls-14">
      <g>
        <path class="cls-3" d="M1050.69,503.19c2.27,0,4.12-1.84,4.12-4.11s-1.84-4.11-4.12-4.11-4.12,1.84-4.12,4.11,1.84,4.11,4.12,4.11Z"/>
        <path class="cls-3" d="M870.66,495.76c4.98,0,9.02-4.04,9.02-9.02s-4.04-9.02-9.02-9.02-9.02,4.04-9.02,9.02,4.04,9.02,9.02,9.02Z"/>
        <path class="cls-3" d="M754.07,497.62c9.37,0,16.96-7.59,16.96-16.95s-7.59-16.95-16.96-16.95-16.96,7.59-16.96,16.95,7.59,16.95,16.96,16.95Z"/>
        <path class="cls-3" d="M1050.69,321.86c2.27,0,4.12-1.84,4.12-4.11s-1.84-4.11-4.12-4.11-4.12,1.84-4.12,4.11,1.84,4.11,4.12,4.11Z"/>
        <path class="cls-3" d="M846.54,412.53c2.27,0,4.12-1.84,4.12-4.11s-1.84-4.11-4.12-4.11-4.12,1.84-4.12,4.11,1.84,4.11,4.12,4.11Z"/>
        <path class="cls-3" d="M958.22,406.96c9.37,0,16.96-7.59,16.96-16.95s-7.6-16.95-16.96-16.95-16.96,7.59-16.96,16.95,7.6,16.95,16.96,16.95Z"/>
        <path class="cls-3" d="M870.66,314.42c4.98,0,9.02-4.04,9.02-9.02s-4.04-9.02-9.02-9.02-9.02,4.04-9.02,9.02,4.04,9.02,9.02,9.02Z"/>
        <path class="cls-3" d="M754.07,316.29c9.37,0,16.96-7.59,16.96-16.95s-7.59-16.95-16.96-16.95-16.96,7.59-16.96,16.95,7.59,16.95,16.96,16.95Z"/>
        <path class="cls-3" d="M846.54,231.19c2.27,0,4.12-1.84,4.12-4.11s-1.84-4.11-4.12-4.11-4.12,1.84-4.12,4.11,1.84,4.11,4.12,4.11Z"/>
        <path class="cls-3" d="M958.22,225.62c9.37,0,16.96-7.59,16.96-16.95s-7.6-16.95-16.96-16.95-16.96,7.59-16.96,16.95,7.6,16.95,16.96,16.95Z"/>
        <path class="cls-3" d="M1050.69,684.53c2.27,0,4.12-1.84,4.12-4.11s-1.84-4.11-4.12-4.11-4.12,1.84-4.12,4.11,1.84,4.11,4.12,4.11Z"/>
        <path class="cls-3" d="M846.54,775.2c2.27,0,4.12-1.84,4.12-4.11s-1.84-4.11-4.12-4.11-4.12,1.84-4.12,4.11,1.84,4.11,4.12,4.11Z"/>
        <path class="cls-3" d="M958.22,769.63c9.37,0,16.96-7.59,16.96-16.95s-7.6-16.95-16.96-16.95-16.96,7.59-16.96,16.95,7.6,16.95,16.96,16.95Z"/>
        <path class="cls-3" d="M870.66,677.1c4.98,0,9.02-4.04,9.02-9.02s-4.04-9.02-9.02-9.02-9.02,4.04-9.02,9.02,4.04,9.02,9.02,9.02Z"/>
        <path class="cls-3" d="M754.07,678.96c9.37,0,16.96-7.59,16.96-16.95s-7.59-16.95-16.96-16.95-16.96,7.59-16.96,16.95,7.59,16.95,16.96,16.95Z"/>
        <path class="cls-3" d="M846.54,593.86c2.27,0,4.12-1.84,4.12-4.11s-1.84-4.11-4.12-4.11-4.12,1.84-4.12,4.11,1.84,4.11,4.12,4.11Z"/>
        <path class="cls-3" d="M958.22,588.29c9.37,0,16.96-7.59,16.96-16.95s-7.6-16.95-16.96-16.95-16.96,7.59-16.96,16.95,7.6,16.95,16.96,16.95Z"/>
        <path class="cls-3" d="M642.43,503.19c2.27,0,4.12-1.84,4.12-4.11s-1.84-4.11-4.12-4.11-4.12,1.84-4.12,4.11,1.84,4.11,4.12,4.11Z"/>
        <path class="cls-3" d="M666.55,405.09c4.98,0,9.02-4.04,9.02-9.02s-4.04-9.02-9.02-9.02-9.02,4.04-9.02,9.02,4.04,9.02,9.02,9.02Z"/>
        <path class="cls-3" d="M462.4,495.76c4.98,0,9.02-4.04,9.02-9.02s-4.04-9.02-9.02-9.02-9.02,4.04-9.02,9.02,4.04,9.02,9.02,9.02Z"/>
        <path class="cls-3" d="M345.82,497.62c9.37,0,16.96-7.59,16.96-16.95s-7.59-16.95-16.96-16.95-16.96,7.59-16.96,16.95,7.6,16.95,16.96,16.95Z"/>
        <path class="cls-3" d="M642.43,321.86c2.27,0,4.12-1.84,4.12-4.11s-1.84-4.11-4.12-4.11-4.12,1.84-4.12,4.11,1.84,4.11,4.12,4.11Z"/>
        <path class="cls-3" d="M666.55,223.75c4.98,0,9.02-4.04,9.02-9.02s-4.04-9.02-9.02-9.02-9.02,4.04-9.02,9.02,4.04,9.02,9.02,9.02Z"/>
        <path class="cls-3" d="M438.28,412.53c2.27,0,4.12-1.84,4.12-4.11s-1.84-4.11-4.12-4.11-4.12,1.84-4.12,4.11,1.84,4.11,4.12,4.11Z"/>
        <path class="cls-3" d="M549.96,406.96c9.37,0,16.96-7.59,16.96-16.95s-7.6-16.95-16.96-16.95-16.96,7.59-16.96,16.95,7.6,16.95,16.96,16.95Z"/>
        <path class="cls-3" d="M462.4,314.42c4.98,0,9.02-4.04,9.02-9.02s-4.04-9.02-9.02-9.02-9.02,4.04-9.02,9.02,4.04,9.02,9.02,9.02Z"/>
        <path class="cls-3" d="M345.82,316.29c9.37,0,16.96-7.59,16.96-16.95s-7.59-16.95-16.96-16.95-16.96,7.59-16.96,16.95,7.6,16.95,16.96,16.95Z"/>
        <path class="cls-3" d="M438.28,231.19c2.27,0,4.12-1.84,4.12-4.11s-1.84-4.11-4.12-4.11-4.12,1.84-4.12,4.11,1.84,4.11,4.12,4.11Z"/>
        <path class="cls-3" d="M549.96,225.62c9.37,0,16.96-7.59,16.96-16.95s-7.6-16.95-16.96-16.95-16.96,7.59-16.96,16.95,7.6,16.95,16.96,16.95Z"/>
        <path class="cls-3" d="M666.55,767.76c4.98,0,9.02-4.04,9.02-9.02s-4.04-9.02-9.02-9.02-9.02,4.04-9.02,9.02,4.04,9.02,9.02,9.02Z"/>
        <path class="cls-3" d="M642.43,684.53c2.27,0,4.12-1.84,4.12-4.11s-1.84-4.11-4.12-4.11-4.12,1.84-4.12,4.11,1.84,4.11,4.12,4.11Z"/>
        <path class="cls-3" d="M666.55,586.42c4.98,0,9.02-4.04,9.02-9.02s-4.04-9.02-9.02-9.02-9.02,4.04-9.02,9.02,4.04,9.02,9.02,9.02Z"/>
        <path class="cls-3" d="M438.28,775.2c2.27,0,4.12-1.84,4.12-4.11s-1.84-4.11-4.12-4.11-4.12,1.84-4.12,4.11,1.84,4.11,4.12,4.11Z"/>
        <path class="cls-3" d="M549.96,769.63c9.37,0,16.96-7.59,16.96-16.95s-7.6-16.95-16.96-16.95-16.96,7.59-16.96,16.95,7.6,16.95,16.96,16.95Z"/>
        <path class="cls-3" d="M462.4,677.1c4.98,0,9.02-4.04,9.02-9.02s-4.04-9.02-9.02-9.02-9.02,4.04-9.02,9.02,4.04,9.02,9.02,9.02Z"/>
        <path class="cls-3" d="M345.82,678.96c9.37,0,16.96-7.59,16.96-16.95s-7.59-16.95-16.96-16.95-16.96,7.59-16.96,16.95,7.6,16.95,16.96,16.95Z"/>
        <path class="cls-3" d="M438.28,593.86c2.27,0,4.12-1.84,4.12-4.11s-1.84-4.11-4.12-4.11-4.12,1.84-4.12,4.11,1.84,4.11,4.12,4.11Z"/>
        <path class="cls-3" d="M549.96,588.29c9.37,0,16.96-7.59,16.96-16.95s-7.6-16.95-16.96-16.95-16.96,7.59-16.96,16.95,7.6,16.95,16.96,16.95Z"/>
        <path class="cls-3" d="M234.18,503.19c2.27,0,4.12-1.84,4.12-4.11s-1.84-4.11-4.12-4.11-4.12,1.84-4.12,4.11,1.84,4.11,4.12,4.11Z"/>
        <path class="cls-3" d="M258.29,405.09c4.98,0,9.02-4.04,9.02-9.02s-4.04-9.02-9.02-9.02-9.02,4.04-9.02,9.02,4.04,9.02,9.02,9.02Z"/>
        <path class="cls-3" d="M234.18,321.86c2.27,0,4.12-1.84,4.12-4.11s-1.84-4.11-4.12-4.11-4.12,1.84-4.12,4.11,1.84,4.11,4.12,4.11Z"/>
        <path class="cls-3" d="M258.29,223.75c4.98,0,9.02-4.04,9.02-9.02s-4.04-9.02-9.02-9.02-9.02,4.04-9.02,9.02,4.04,9.02,9.02,9.02Z"/>
        <path class="cls-3" d="M141.71,406.96c9.37,0,16.96-7.59,16.96-16.95s-7.6-16.95-16.96-16.95-16.96,7.59-16.96,16.95,7.59,16.95,16.96,16.95Z"/>
        <path class="cls-3" d="M141.71,225.62c9.37,0,16.96-7.59,16.96-16.95s-7.6-16.95-16.96-16.95-16.96,7.59-16.96,16.95,7.59,16.95,16.96,16.95Z"/>
        <path class="cls-3" d="M234.18,684.53c2.27,0,4.12-1.84,4.12-4.11s-1.84-4.11-4.12-4.11-4.12,1.84-4.12,4.11,1.84,4.11,4.12,4.11Z"/>
        <path class="cls-3" d="M258.29,586.42c4.98,0,9.02-4.04,9.02-9.02s-4.04-9.02-9.02-9.02-9.02,4.04-9.02,9.02,4.04,9.02,9.02,9.02Z"/>
        <path class="cls-3" d="M141.71,588.29c9.37,0,16.96-7.59,16.96-16.95s-7.6-16.95-16.96-16.95-16.96,7.59-16.96,16.95,7.59,16.95,16.96,16.95Z"/>
      </g>
    </g>
    <path class="cls-15" d="M498.78,787.33l61.37,43.88c12.47,6.11,26.19,9.31,40.12,9.31h79.54c24.11,0,47.27-9.6,64.32-26.64l29.52-29.5"/>
    <path class="cls-3" d="M679.77,842.6h-79.54c-14.14,0-28.31-3.28-41.04-9.52l-61.66-44.09,2.41-3.37,61.37,43.88c11.85,5.78,25.4,8.93,38.92,8.93h79.54c23.74,0,46.07-9.23,62.87-26.01l29.52-29.5,2.95,2.95-29.52,29.5c-17.59,17.58-40.95,27.26-65.82,27.26v-.04Z"/>
    <path class="cls-3" d="M589.87,817.87c-3.28,0-6.49-.29-9.65-.91-7.32-1.41-14.05-4.57-19.5-9.14l2.66-3.2c3.41,2.87,9.23,6.61,17.63,8.23,16.8,3.28,37.59-3.7,46.32-15.54,4.91-6.65,4.7-13.42,3.66-17.95l4.03-.96c1.25,5.36,1.5,13.42-4.37,21.36-8.11,10.97-24.78,18.03-40.83,18.03l.04.08Z"/>
    <path class="cls-3" d="M679.39,817.87c-16.05,0-32.72-7.06-40.83-18.03-5.86-7.94-5.61-16-4.37-21.36l4.03.96c-1.04,4.49-1.29,11.26,3.66,17.95,8.73,11.84,29.52,18.78,46.32,15.54,8.36-1.62,14.22-5.36,17.63-8.23l2.66,3.2c-5.45,4.53-12.18,7.69-19.5,9.14-3.12.62-6.36.91-9.65.91l.04-.08Z"/>
    <g class="cls-8">
      <path class="cls-4" d="M242.08,258.7l18.29,98.73c.71,3.82,3.66,6.81,7.48,7.56l94.51,18.28c9.06,1.75,15.01-9.18,8.61-15.83l-112.8-117.05c-6.49-6.73-17.79-.96-16.09,8.27l18.29,98.73c.71,3.82,3.66,6.82,7.48,7.56l94.51,18.28c9.06,1.74,15.01-9.18,8.61-15.83l-112.8-117.05c-6.49-6.73-17.79-.96-16.09,8.27v.08Z"/>
    </g>
    <g class="cls-8">
      <path class="cls-4" d="M1011.69,258.24l-18.29,98.73c-.71,3.82-3.66,6.81-7.48,7.56l-94.51,18.28c-9.06,1.75-15.01-9.18-8.61-15.83l112.8-117.05c6.49-6.73,17.8-.96,16.09,8.27l-18.29,98.73c-.71,3.82-3.66,6.82-7.48,7.56l-94.51,18.28c-9.06,1.74-15.01-9.18-8.61-15.83l112.8-117.05c6.49-6.73,17.8-.96,16.09,8.27v.08Z"/>
    </g>
    <path class="cls-18" d="M697.57,693.05l13.1-19.78c2.7-4.11-.37-13.46-5.03-15.25l-22.08-8.48c-3.08-1.2-5.86-6.07-6.03-10.72-.21-4.53-2.83-9.31-5.86-10.64l-15.43-6.65"/>
    <path class="cls-3" d="M699.27,751.45l-3.45-2.28,13.1-19.78c.87-1.33.91-3.91.04-6.57-.87-2.74-2.54-4.99-4.12-5.61l-22.08-8.48c-3.91-1.5-7.15-7.02-7.36-12.55-.17-4.11-2.58-7.94-4.61-8.81l-15.43-6.65,1.66-3.82,15.42,6.65c3.78,1.62,6.9,7.11,7.11,12.47.17,4.11,2.62,8.06,4.7,8.85l22.08,8.48c2.83,1.08,5.28,4.15,6.57,8.23,1.25,3.91,1.04,7.69-.54,10.1l-13.1,19.78Z"/>
    <path class="cls-18" d="M572,690.76l-13.1-19.78c-2.7-4.11.37-13.46,5.03-15.25l22.08-8.48c3.08-1.2,5.86-6.07,6.03-10.72.21-4.53,2.83-9.31,5.86-10.64l15.42-6.65"/>
    <path class="cls-3" d="M570.26,749.16l-13.1-19.78c-1.58-2.41-1.79-6.19-.54-10.1,1.29-4.07,3.74-7.15,6.57-8.23l22.08-8.48c2.08-.79,4.53-4.74,4.7-8.85.21-5.36,3.37-10.85,7.11-12.47l15.43-6.65,1.66,3.82-15.42,6.65c-2.04.87-4.45,4.74-4.61,8.81-.25,5.53-3.45,11.05-7.36,12.55l-22.08,8.48c-1.58.62-3.24,2.87-4.12,5.61-.83,2.66-.83,5.24.04,6.57l13.1,19.78-3.45,2.29Z"/>
    <path class="cls-3" d="M581.69,726.68c36.92,1.5,73.76,1.54,110.47.04,18.09-.71,26.65,15.58,12.31,23.48-19.5,10.76-37,22.48-51.27,35.74-7.03,6.52-20.54,7.19-28.19,1.08-16.42-13.13-34.92-25.43-55.63-36.82-14.35-7.94-5.82-24.23,12.31-23.52Z"/>
    <path class="cls-3" d="M680.44,701.37h-37.75v4.15h37.75v-4.15Z"/>
    <path class="cls-5" d="M829.53,744.35c97.25,0,176.08-78.78,176.08-175.97s-78.83-175.97-176.08-175.97-176.08,78.78-176.08,175.97,78.83,175.97,176.08,175.97Z"/>
    <path class="cls-3" d="M829.53,746.73c-98.42,0-178.45-80.03-178.45-178.34s80.08-178.34,178.45-178.34,178.45,80.03,178.45,178.34-80.08,178.34-178.45,178.34ZM829.53,394.78c-95.81,0-173.71,77.9-173.71,173.6s77.95,173.6,173.71,173.6,173.71-77.9,173.71-173.6-77.95-173.6-173.71-173.6Z"/>
    <path class="cls-5" d="M434.17,738.21c-93.85,0-169.93-76.03-169.93-169.83s76.08-169.83,169.93-169.83,169.93,76.03,169.93,169.83-76.08,169.83-169.93,169.83Z"/>
    <path class="cls-3" d="M434.17,740.5c94.98,0,172.22-77.24,172.22-172.11s-77.28-172.11-172.22-172.11-172.22,77.24-172.22,172.11,77.28,172.11,172.22,172.11ZM434.17,400.85c92.46,0,167.64,75.18,167.64,167.54s-75.22,167.54-167.64,167.54-167.64-75.18-167.64-167.54,75.22-167.54,167.64-167.54Z"/>
    <ellipse class="cls-3" cx="635.75" cy="810.39" rx="93.38" ry="19.94"/>
    <path class="cls-5" d="M596.41,801.23c-3.13-1.77-6.6-2.14-9.92-3.13-.15,0-.26-.21-.37-.26-1.23,0-2.5.16-3.73.1l-1.79,10.75,2.5,14.98,6.08,6.21,6.08-6.21,2.5-14.98-1.27-7.46h-.08Z"/>
    <path class="cls-3" d="M589.13,835.86l-8.61-8.78-3.08-18.38,2.49-14.95h1.66c.96.06,1.91,0,2.87,0h1.58l.75.35c1.04.29,2.08.52,3.08.76,2.62.64,5.32,1.22,7.94,2.67l.38.23.87.58,1.75,10.29-3.08,18.38-8.61,8.78v.06ZM584.22,823.65l4.91,5,4.91-5,2.49-14.95-1.04-6.11c-1.95-.93-4.08-1.45-6.32-1.98-1.16-.29-2.33-.52-3.49-.87l-.46-.17h-.62c-.46,0-.92.06-1.41.12l-1.54,9.07,2.49,14.95.08-.06Z"/>
    <path class="cls-5" d="M688.34,799.82l-1.7,10.12,2.79,16.69,6.78,6.92,6.78-6.92,2.79-16.69-1.91-11.52c-5.16.52-10.31,1.11-15.51,1.4Z"/>
    <path class="cls-3" d="M696.2,837.1l-8.61-8.78-3.08-18.38,2.16-12.91,1.58-.12c5.15-.29,10.27-.81,15.42-1.4l1.79-.17,2.45,14.6-3.08,18.38-8.61,8.78h-.04ZM691.29,824.88l4.91,5,4.91-5,2.49-14.95-1.41-8.43c-4.07.41-8.15.81-12.22,1.1l-1.25,7.33,2.49,14.95h.08Z"/>
    <ellipse class="cls-17" cx="434.17" cy="566.04" rx="198.58" ry="169.89"/>
    <ellipse class="cls-12" cx="829.53" cy="566.04" rx="198.58" ry="169.89"/>
    <circle class="cls-10" cx="442.4" cy="668.08" r="25.26"/>
    <circle class="cls-10" cx="821.28" cy="668.08" r="25.26"/>
    <path class="cls-6" d="M310.69,341.52c0,15.6-12.65,28.24-28.24,28.24-11.46,0-21.32-6.82-25.75-16.62-6.02,2.63-12.66,4.08-19.64,4.08-27.18,0-49.21-22.04-49.21-49.21,0-21.66,13.99-40.05,33.43-46.63-2.69-3.42-4.29-7.72-4.29-12.39,0-11.08,8.99-20.07,20.07-20.07,10.25,0,18.7,7.68,19.93,17.59h.15c6.35,0,11.57,4.82,12.22,10.99,2.56-1.25,5.44-1.95,8.48-1.95,10.67,0,19.32,8.65,19.32,19.32,0,8.51-5.51,15.75-13.15,18.32,1.47,4.68,2.27,9.66,2.27,14.82,0,1.86-.1,3.69-.31,5.49,13.93,1.72,24.72,13.61,24.72,28.02Z"/>
    <circle class="cls-6" cx="165.54" cy="239.91" r="22.31"/>
    <circle class="cls-6" cx="185.46" cy="191.72" r="10.41"/>
    <circle class="cls-6" cx="154.82" cy="181.31" r="14.55"/>
    <circle class="cls-6" cx="145.63" cy="146.46" r="6.13"/>
  </g>
</svg>